{
    "asset" : {
        "generator" : "Khronos glTF Blender I/O v1.2.20",
        "version" : "2.0"
    },
    "scene" : 0,
    "scenes" : [
        {
            "nodes" : [
                2
            ],
            "name" : "Scene"
        }
    ],
    "nodes" : [
        {
            "name" : "Root",
            "rotation" : [
                1.0033481601112726e-07,
                0,
                0,
                1
            ]
        },
        {
            "skin" : 0,
            "mesh" : 0,
            "name" : "Body__mCap"
        },
        {
            "children" : [
                1,
                0
            ],
            "name" : "Armature"
        }
    ],
    "materials" : [
        {
            "pbrMetallicRoughness" : {
                "baseColorTexture" : {
                    "index" : 0,
                    "texCoord" : 0
                }
            },
            "name" : "mCap.001"
        }
    ],
    "meshes" : [
        {
            "primitives" : [
                {
                    "indices" : 5,
                    "material" : 0,
                    "attributes" : {
                        "JOINTS_0" : 0,
                        "NORMAL" : 1,
                        "POSITION" : 2,
                        "TEXCOORD_0" : 3,
                        "WEIGHTS_0" : 4
                    }
                }
            ],
            "name" : "Body__mCap.002"
        }
    ],
    "textures" : [
        {
            "sampler" : 0,
            "source" : 0
        }
    ],
    "images" : [
        {
            "bufferView" : 6,
            "mimeType" : "image/png",
            "name" : "Dress_LS_Test.png"
        }
    ],
    "skins" : [
        {
            "inverseBindMatrices" : 6,
            "joints" : [
                0
            ],
            "name" : "Armature"
        }
    ],
    "accessors" : [
        {
            "bufferView" : 0,
            "count" : 392,
            "componentType" : 5123,
            "type" : "VEC4"
        },
        {
            "bufferView" : 1,
            "count" : 392,
            "componentType" : 5126,
            "type" : "VEC3"
        },
        {
            "min" : [
                -3.901257038116455,
                -0.006886125076562166,
                -4.289082050323486
            ],
            "max" : [
                3.901257038116455,
                5.37290096282959,
                4.001899719238281
            ],
            "type" : "VEC3",
            "bufferView" : 2,
            "count" : 392,
            "componentType" : 5126
        },
        {
            "bufferView" : 3,
            "count" : 392,
            "componentType" : 5126,
            "type" : "VEC2"
        },
        {
            "bufferView" : 4,
            "count" : 392,
            "componentType" : 5126,
            "type" : "VEC4"
        },
        {
            "bufferView" : 5,
            "count" : 1920,
            "componentType" : 5123,
            "type" : "SCALAR"
        },
        {
            "bufferView" : 7,
            "count" : 1,
            "componentType" : 5126,
            "type" : "MAT4"
        }
    ],
    "bufferViews" : [
        {
            "byteOffset" : 0,
            "byteLength" : 3136,
            "buffer" : 0
        },
        {
            "byteOffset" : 3136,
            "byteLength" : 4704,
            "buffer" : 0
        },
        {
            "byteOffset" : 7840,
            "byteLength" : 4704,
            "buffer" : 0
        },
        {
            "byteOffset" : 12544,
            "byteLength" : 3136,
            "buffer" : 0
        },
        {
            "byteOffset" : 15680,
            "byteLength" : 6272,
            "buffer" : 0
        },
        {
            "byteOffset" : 21952,
            "byteLength" : 3840,
            "buffer" : 0
        },
        {
            "byteOffset" : 25792,
            "byteLength" : 119,
            "buffer" : 0
        },
        {
            "byteOffset" : 25912,
            "byteLength" : 64,
            "buffer" : 0
        }
    ],
    "samplers" : [
        {
            "minFilter" : 9986,
            "magFilter" : 9729,
            "wrapT" : 10497,
            "wrapS" : 10497
        }
    ],
    "buffers" : [
        {
            "uri" : "data:application/octet-stream;base64,",
            "byteLength" : 25976
        }
    ]
}
