<?xml version="1.0" encoding="UTF-8" standalone="no"?>
<svg
   xmlns:dc="http://purl.org/dc/elements/1.1/"
   xmlns:cc="http://creativecommons.org/ns#"
   xmlns:rdf="http://www.w3.org/1999/02/22-rdf-syntax-ns#"
   xmlns:svg="http://www.w3.org/2000/svg"
   xmlns="http://www.w3.org/2000/svg"
   xmlns:xlink="http://www.w3.org/1999/xlink"
   id="svg8"
   version="1.1"
   viewBox="0 0 508 285.75"
   height="285.75mm"
   width="508mm">
  <defs
     id="defs2" />
  <metadata
     id="metadata5">
    <rdf:RDF>
      <cc:Work
         rdf:about="">
        <dc:format>image/svg+xml</dc:format>
        <dc:type
           rdf:resource="http://purl.org/dc/dcmitype/StillImage" />
        <dc:title></dc:title>
      </cc:Work>
    </rdf:RDF>
  </metadata>
  <g
     transform="translate(382.42276,148.11913)"
     id="layer1">
    <rect
       y="-148.11913"
       x="-382.42276"
       height="285.75"
       width="508"
       id="rect4544"
       style="opacity:1;fill:#f2f1e2;fill-opacity:1;stroke:none;stroke-width:0.27301693;stroke-linecap:round;stroke-linejoin:round;stroke-miterlimit:4;stroke-dasharray:none;stroke-dashoffset:0;stroke-opacity:1" />
    <g
       id="g4705">
      <path
         style="opacity:1;fill:#d0e4d2;fill-opacity:1;stroke:none;stroke-width:1.03187501;stroke-linecap:round;stroke-linejoin:round;stroke-miterlimit:4;stroke-dasharray:none;stroke-dashoffset:0;stroke-opacity:1"
         d="m -372.40377,-117.71866 c -3.00449,0 -2.99942,1.50016 -5.99964,1.50016 -0.61471,0 -1.09938,-0.065 -1.51412,-0.16536 a 16.933332,16.933332 0 0 0 -3.40341,2.24482 c 1.96865,0.30791 2.33564,1.42059 4.91753,1.42059 3.00455,0 2.99831,-1.50017 5.99964,-1.50017 2.99554,0 3.00434,1.50017 6.00015,1.50017 2.59945,0 2.94893,-1.12141 4.93871,-1.4242 a 16.933332,16.933332 0 0 0 -3.44165,-2.23656 c -0.41049,0.0978 -0.89081,0.16071 -1.49706,0.16071 -2.99712,0 -3.00422,-1.50016 -6.00015,-1.50016 z m -11.99979,7.00008 c -1.02621,0 -1.69863,0.17623 -2.26239,0.4067 a 16.933332,16.933332 0 0 0 -1.98541,4.36717 c 1.42846,-0.41887 1.9811,-1.27382 4.2478,-1.27382 2.99554,0 3.00434,1.50017 6.00015,1.50017 3.00455,0 2.99831,-1.50017 5.99964,-1.50017 2.99554,0 3.00434,1.50017 6.00015,1.50017 3.00455,0 2.99882,-1.50017 6.00015,-1.50017 2.26228,0 2.82299,0.85442 4.25142,1.27331 a 16.933332,16.933332 0 0 0 -1.96371,-4.35529 c -0.56987,-0.23615 -1.24742,-0.41807 -2.28771,-0.41807 -3.00449,0 -2.99993,1.50017 -6.00015,1.50017 -2.99712,0 -3.00422,-1.50017 -6.00015,-1.50017 -3.00449,0 -2.99942,1.50017 -5.99964,1.50017 -2.99712,0 -3.00422,-1.50017 -6.00015,-1.50017 z m 0,7.0001 c -2.57227,0 -2.94375,1.09698 -4.87877,1.41334 a 16.933332,16.933332 0 0 0 -0.0543,1.08676 16.933332,16.933332 0 0 0 0.18707,2.389518 c 1.82339,-0.343495 2.23592,-1.389578 4.74596,-1.389578 2.99554,0 3.00434,1.500166 6.00015,1.500166 3.00455,0 2.99831,-1.500166 5.99964,-1.500166 2.99554,0 3.00434,1.500166 6.00015,1.500166 3.00454,0 2.99882,-1.500166 6.00015,-1.500166 2.50275,0 2.92641,1.044527 4.74338,1.389062 a 16.933332,16.933332 0 0 0 0.19017,-2.389002 16.933332,16.933332 0 0 0 -0.0382,-1.08417 c -1.94922,-0.31294 -2.32338,-1.41593 -4.89531,-1.41593 -3.00449,0 -2.99993,1.50016 -6.00015,1.50016 -2.99712,0 -3.00422,-1.50016 -6.00015,-1.50016 -3.00449,0 -2.99942,1.50016 -5.99964,1.50016 -2.99712,0 -3.00422,-1.50016 -6.00015,-1.50016 z m 0,7.000085 c -2.09539,0 -2.72898,0.728385 -3.93723,1.169953 a 16.933332,16.933332 0 0 0 1.34721,2.883546 c 0.6353,-0.298437 1.35673,-0.553455 2.59002,-0.553455 2.99554,0 3.00434,1.500166 6.00015,1.500166 3.00455,0 2.99831,-1.500166 5.99964,-1.500166 2.99554,0 3.00434,1.500166 6.00015,1.500166 3.00454,0 2.99882,-1.500166 6.00015,-1.500166 1.2323,0 1.95532,0.255611 2.5926,0.55449 a 16.933332,16.933332 0 0 0 1.34152,-2.885612 c -1.20808,-0.441683 -1.84647,-1.168922 -3.93412,-1.168922 -3.00449,0 -2.99993,1.500167 -6.00015,1.500167 -2.99712,0 -3.00422,-1.500167 -6.00015,-1.500167 -3.00449,0 -2.99942,1.500167 -5.99964,1.500167 -2.99712,0 -3.00422,-1.500167 -6.00015,-1.500167 z m 0,7.00009 c -0.14102,0 -0.26901,0.0061 -0.39739,0.0124 a 16.933332,16.933332 0 0 0 7.96282,4.809527 c 1.56878,-0.396055 2.07313,-1.321885 4.43436,-1.321885 2.37202,0 2.87593,0.938564 4.46846,1.330153 a 16.933332,16.933332 0 0 0 7.92096,-4.817795 c -0.12587,-0.0061 -0.25116,-0.0124 -0.38912,-0.0124 -3.00449,0 -2.99993,1.500166 -6.00015,1.500166 -2.99712,0 -3.00422,-1.500166 -6.00015,-1.500166 -3.00449,0 -2.99942,1.500166 -5.99964,1.500166 -2.99712,0 -3.00422,-1.500166 -6.00015,-1.500166 z"
         id="path4560-4" />
      <a
         id="a4551"
         transform="translate(-44.016613,-79.570324)">
        <path
           id="path4546"
           d="m -294.72464,-59.754578 a 16.933332,16.933332 0 0 0 -16.93333,16.933333 16.933332,16.933332 0 0 0 16.93333,16.933333 16.933332,16.933332 0 0 0 16.93334,-16.933333 16.933332,16.933332 0 0 0 -16.93334,-16.933333 z m 0,12.7 a 4.233333,4.233333 0 0 1 4.23334,4.233333 4.233333,4.233333 0 0 1 -4.23334,4.233333 4.233333,4.233333 0 0 1 -4.23333,-4.233333 4.233333,4.233333 0 0 1 4.23333,-4.233333 z"
           style="opacity:1;fill:#d0e4d2;fill-opacity:1;stroke:none;stroke-width:1.03187501;stroke-linecap:round;stroke-linejoin:round;stroke-miterlimit:4;stroke-dasharray:none;stroke-dashoffset:0;stroke-opacity:1" />
      </a>
      <use
         x="0"
         y="0"
         xlink:href="#a4551"
         id="use4554"
         transform="translate(0,77.530064)"
         width="100%"
         height="100%" />
      <use
         x="0"
         y="0"
         xlink:href="#a4551"
         id="use4556"
         transform="translate(-33.662049,94.532266)"
         width="100%"
         height="100%" />
      <circle
         style="opacity:1;fill:#f3f18b;fill-opacity:1;stroke:none;stroke-width:1.03187501;stroke-linecap:round;stroke-linejoin:round;stroke-miterlimit:4;stroke-dasharray:none;stroke-dashoffset:0;stroke-opacity:1"
         id="path4560"
         cx="-338.74124"
         cy="-83.626541"
         r="16.933332" />
      <g
         id="g4580"
         transform="translate(0.12022375,-147.03365)"
         style="fill:#f3f18b;fill-opacity:1;stroke:none;stroke-opacity:1">
        <path
           id="path4562"
           d="m -368.22604,7.1777839 7.93477,-4.9291742 c 6.67695,-4.147803 6.50956,16.5186513 0,12.3830443 l -7.93451,-5.0408982 c -1.01357,-0.6439367 -0.9431,-1.8272671 -2.6e-4,-2.4129719 z"
           style="fill:#f3f18b;fill-opacity:1;fill-rule:evenodd;stroke:none;stroke-width:0.26458332px;stroke-linecap:butt;stroke-linejoin:miter;stroke-opacity:1" />
        <use
           style="fill:#f3f18b;fill-opacity:1;stroke:none;stroke-opacity:1"
           height="100%"
           width="100%"
           transform="rotate(-60.392904,-372.17485,8.5220616)"
           id="use4564"
           xlink:href="#path4562"
           y="0"
           x="0" />
        <use
           style="fill:#f3f18b;fill-opacity:1;stroke:none;stroke-opacity:1"
           height="100%"
           width="100%"
           transform="rotate(62.276479,-371.86473,8.3083529)"
           id="use4566"
           xlink:href="#path4562"
           y="0"
           x="0" />
        <use
           style="fill:#f3f18b;fill-opacity:1;stroke:none;stroke-opacity:1"
           height="100%"
           width="100%"
           transform="rotate(125.3688,-371.71741,8.4523517)"
           id="use4568"
           xlink:href="#path4562"
           y="0"
           x="0" />
        <use
           style="fill:#f3f18b;fill-opacity:1;stroke:none;stroke-opacity:1"
           height="100%"
           width="100%"
           transform="rotate(-173.86123,-372.49634,8.9679871)"
           id="use4570"
           xlink:href="#path4562"
           y="0"
           x="0" />
        <use
           style="fill:#f3f18b;fill-opacity:1;stroke:none;stroke-opacity:1"
           height="100%"
           width="100%"
           transform="rotate(-121.25836,-372.11229,8.5660316)"
           id="use4572"
           xlink:href="#path4562"
           y="0"
           x="0" />
      </g>
      <use
         height="100%"
         width="100%"
         transform="translate(487.00815,40.966031)"
         id="use4792"
         xlink:href="#g4580"
         y="0"
         x="0" />
      <use
         height="100%"
         width="100%"
         transform="translate(487.00815,-33.976475)"
         id="use4794"
         xlink:href="#path4560-4"
         y="0"
         x="0" />
      <use
         height="100%"
         width="100%"
         transform="translate(421.6547,-67.821715)"
         id="use4796"
         xlink:href="#path4560"
         y="0"
         x="0" />
      <use
         height="100%"
         width="100%"
         transform="translate(421.65471,8.1610589)"
         id="use4798"
         xlink:href="#a4551"
         y="0"
         x="0" />
      <use
         height="100%"
         width="100%"
         transform="translate(453.3461,62.170062)"
         id="use4802"
         xlink:href="#a4551"
         y="0"
         x="0" />
      <use
         height="100%"
         width="100%"
         transform="translate(421.65471,79.570324)"
         id="use4804"
         xlink:href="#a4551"
         y="0"
         x="0" />
    </g>
    <use
       height="100%"
       width="100%"
       transform="translate(0,146.89906)"
       id="use4707"
       xlink:href="#g4705"
       y="0"
       x="0" />
  </g>
</svg>
