<svg id="Layer_1" data-name="Layer 1" xmlns="http://www.w3.org/2000/svg" viewBox="0 0 1000 1000"><defs><style>.cls-1{fill:#fff;}</style></defs><path class="cls-1" d="M571.24354,464.49276a35.56339,35.56339,0,0,0-29.20629,10.28586,11.85992,11.85992,0,0,1-16.77891-.037l0,0a11.85992,11.85992,0,0,1-.037-16.77892,35.7205,35.7205,0,1,0-50.5-.05753,11.898,11.898,0,0,1,.02076,16.83635l-.00011.00012a11.85992,11.85992,0,0,1-16.77891.037,35.72064,35.72064,0,1,0-.05768,50.50012,11.89794,11.89794,0,0,1,16.83635-.02077l.00026.00026a11.85992,11.85992,0,0,1,.037,16.77892,35.7205,35.7205,0,1,0,50.5.05752,11.898,11.898,0,0,1-.02076-16.83635l.00035-.00035a11.89794,11.89794,0,0,1,16.83635.02077,35.7104,35.7104,0,1,0,29.14861-60.786Z"/><path class="cls-1" d="M424.34246,709.96523A154.58146,154.58146,0,0,0,356.8331,666.867c15.60656-12.93941,31.86393-25.22839,47.42612-38.21193q13.21042-11.11416,25.42156-23.22734c2.06723-1.98651,4.03344-4.07455,6.038-6.124,1.96671-2.08742,4.13222-3.976,5.659-6.50318a22.92791,22.92791,0,0,0,3.17531-8.98706,33.29472,33.29472,0,0,0-.8491-13.01124,19.94,19.94,0,0,0-14.52181-14.5218,33.29381,33.29381,0,0,0-13.01111-.849,22.92565,22.92565,0,0,0-8.98719,3.17506c-2.527,1.527-4.41576,3.6925-6.503,5.65908-2.04969,2.00456-4.13748,3.97064-6.124,6.03813q-12.13494,12.18984-23.22747,25.42143c-12.98,15.55793-25.26537,31.81016-38.20077,47.41259A154.80307,154.80307,0,0,0,185.56978,535.07083c-85.32781,0-154.74647,69.41866-154.74647,154.74648V952.732a16.42913,16.42913,0,0,0,16.4296,16.4296H310.18864a155.82417,155.82417,0,0,0,16.42158-.87343,16.4297,16.4297,0,0,0,.69894-32.58543A52.5748,52.5748,0,0,1,282.587,883.64525,52.59115,52.59115,0,0,1,308.866,838.06174a52.65619,52.65619,0,0,1,65.76853,80.52749,16.42964,16.42964,0,0,0,21.4024,24.57922,154.723,154.723,0,0,0,28.30556-233.20322ZM303.00546,804.453a104.57332,104.57332,0,0,0-52.50622-37.94368c3.17606-3.07867,6.38346-6.12625,9.57256-9.192,23.30092,3.96187,46.45543,19.80359,62.30668,41.82495A85.69432,85.69432,0,0,0,303.00546,804.453ZM266.711,832.52212a91.51664,91.51664,0,0,0-46.92624-36.32306q4.834-4.67894,9.67435-9.352a80.18292,80.18292,0,0,1,52.1901,30.16748A86.11152,86.11152,0,0,0,266.711,832.52212ZM185.56978,567.93A121.247,121.247,0,0,1,306.3164,673.19079c-.56507.59064-1.11234,1.19958-1.67966,1.78821l-12.01936,12.61777c-.38156-1.27316-.73053-2.55659-1.1507-3.81722a132.28514,132.28514,0,0,0-125.70688-90.5844,162.63187,162.63187,0,0,0-23.47414,1.59844,12.32253,12.32253,0,0,0,3.57993,24.38367,138.01008,138.01008,0,0,1,19.89421-1.33771A107.62315,107.62315,0,0,1,272.286,708.94038q-4.83029,5.07339-9.66282,10.144c-8.023-22.90219-24.17258-44.47506-45.937-60.50379-32.31468-23.797-72.18233-32.13018-112.2746-23.46513A12.32276,12.32276,0,1,0,109.62,659.20435c33.0778-7.14784,65.91193-.32691,92.45158,19.22034,21.59443,15.90326,36.7347,39.04085,40.58589,61.49793-3.05824,3.18108-6.09817,6.38071-9.1692,9.54913A105.60786,105.60786,0,0,0,133.045,676.47929c-20.22413,0-35.28292,2.865-50.35375,9.57959A12.32192,12.32192,0,1,0,92.7211,708.56935c11.86994-5.28868,23.55336-7.44566,40.32391-7.44566,40.15845,0,74.4762,30.13225,80.096,69.39785q-4.6776,4.84344-9.35972,9.68237A92.13978,92.13978,0,0,0,87.299,722.91015a88.97044,88.97044,0,0,0-8.4314,3.31821,12.32191,12.32191,0,0,0,10.19028,22.43828,64.8155,64.8155,0,0,1,6.115-2.40367,67.49138,67.49138,0,0,1,87.71644,50.90828c.25772,1.3129.47106,2.63244.64855,3.95022-3.17456,3.26355-6.37268,6.50355-9.55125,9.76322A78.96481,78.96481,0,0,0,150.71,778.00807a78.67484,78.67484,0,0,0-50.37983-18.26369,78.88477,78.88477,0,0,0-19.39984,2.40267,12.3221,12.3221,0,1,0,6.06483,23.88629,54.248,54.248,0,0,1,13.335-1.64456,54.02879,54.02879,0,0,1,34.589,12.5408,54.29437,54.29437,0,0,1,18.99146,34.47719q-4.8927,4.99179-9.77588,9.99311a65.40268,65.40268,0,0,0-60.172-40.01293,12.3222,12.3222,0,1,0,0,24.6444A40.62074,40.62074,0,0,1,124.211,861.6388q-5.06229,5.12435-10.12309,10.25A51.58814,51.58814,0,0,0,89.07,847.6684a12.32233,12.32233,0,0,0-10.21435,22.42825,26.9592,26.9592,0,0,1,15.683,21.425Q79.1592,906.92117,63.6825,922.22332v-232.406A122.02577,122.02577,0,0,1,185.56978,567.93ZM77.76058,936.30239q15.29068-15.48886,30.70271-30.85689a26.96012,26.96012,0,0,1,21.424,15.68278,12.32191,12.32191,0,1,0,22.42824-10.21234,51.5875,51.5875,0,0,0-24.21972-25.01944q5.11571-5.07114,10.2502-10.12335a40.6213,40.6213,0,0,1,35.60757,40.249,12.3222,12.3222,0,1,0,24.6444,0,65.40245,65.40245,0,0,0-40.0133-60.17263q4.9852-4.89928,9.99324-9.776a54.30937,54.30937,0,0,1,34.49147,19.01027,54.02824,54.02824,0,0,1,12.52576,34.57094,54.27008,54.27008,0,0,1-1.64456,13.337,12.32259,12.32259,0,1,0,23.8883,6.06082,78.98166,78.98166,0,0,0,2.40066-19.39784,78.67077,78.67077,0,0,0-18.24865-50.36177,79.007,79.007,0,0,0-32.89128-23.295c3.25955-3.17857,6.49979-6.37682,9.7636-9.55138q1.937.26361,3.95447.65607a68.08945,68.08945,0,0,1,50.24645,42.87048c-.36526,1.27166-.70946,2.55071-1.01481,3.84216a85.05764,85.05764,0,0,0,15.90514,72.48718ZM351.8054,799.76746c-15.938-29.55615-42.10987-52.34565-70.89877-62.41259q5.06793-4.82672,10.13538-9.65442a107.59951,107.59951,0,0,1,88.45574,82.7573A84.85093,84.85093,0,0,0,351.8054,799.76746Zm56.13053,38.79768c-.38106-.61358-.7932-1.20084-1.1883-1.80288.011-.84786.04713-1.67189.04713-2.52915a132.295,132.295,0,0,0-90.59443-125.71089c-1.2615-.42067-2.54381-.76913-3.81684-1.15119l12.62178-12.0235c.58286-.56156,1.18554-1.10306,1.77016-1.66261a121.91226,121.91226,0,0,1,92.66041,174.83034A85.20047,85.20047,0,0,0,407.93593,838.56514Z"/><path class="cls-1" d="M814.43022,535.07083a154.80238,154.80238,0,0,0-147.5579,108.06768c-12.93565-15.60268-25.22125-31.85516-38.20128-47.41334q-11.11434-13.21023-23.22746-25.42143c-1.98651-2.06749-4.07456-4.03357-6.124-6.03813-2.08729-1.96658-3.976-4.13209-6.503-5.65908a22.92709,22.92709,0,0,0-8.9872-3.17506,33.29361,33.29361,0,0,0-13.01111.849,19.94035,19.94035,0,0,0-14.522,14.5218,33.294,33.294,0,0,0-.84886,13.01124,22.93173,22.93173,0,0,0,3.17507,8.98706c1.527,2.52714,3.69249,4.41576,5.6592,6.50318,2.00456,2.04944,3.97052,4.13748,6.038,6.124q12.18982,12.13456,25.42155,23.22734c15.56219,12.98366,31.81931,25.27239,47.42613,38.21193A154.81853,154.81853,0,0,0,535.06576,814.41511c0,85.32782,69.41866,154.74648,154.74647,154.74648H952.74709a16.42913,16.42913,0,0,0,16.4296-16.4296V689.81731C969.17669,604.48949,899.758,535.07083,814.43022,535.07083Zm0,32.8592A122.02577,122.02577,0,0,1,936.3175,689.81731V922.22307q-15.48831-15.2905-30.85576-30.70171a26.95856,26.95856,0,0,1,15.68265-21.42471A12.32233,12.32233,0,0,0,910.93,847.6684a51.58759,51.58759,0,0,0-25.01756,24.22022q-5.07076-5.11569-10.1231-10.25007a40.62026,40.62026,0,0,1,40.24783-35.6072,12.3222,12.3222,0,0,0,0-24.6444,65.40242,65.40242,0,0,0-60.17175,40.0128q-4.89946-4.98521-9.776-9.99311a54.30993,54.30993,0,0,1,19.01038-34.4921,54.0338,54.0338,0,0,1,34.57-12.52576,54.248,54.248,0,0,1,13.335,1.64456,12.3221,12.3221,0,1,0,6.06483-23.88629,78.88477,78.88477,0,0,0-19.39984-2.40267A78.68,78.68,0,0,0,849.309,777.993a79.00939,79.00939,0,0,0-23.29528,32.89191c-3.17857-3.25992-6.37695-6.49979-9.55151-9.7636.17749-1.318.391-2.63819.64843-3.95209A67.492,67.492,0,0,1,904.85117,746.271a64.70706,64.70706,0,0,1,6.0909,2.39565,12.32191,12.32191,0,1,0,10.19028-22.43828,88.86122,88.86122,0,0,0-8.40733-3.31018,92.14045,92.14045,0,0,0-116.5066,57.28536q-4.68269-4.83818-9.35935-9.68212c5.62-39.26548,39.93872-69.39773,80.09692-69.39773,16.77055,0,28.453,2.157,40.32291,7.44566a12.32192,12.32192,0,1,0,10.02984-22.51047c-15.07083-6.71464-30.12962-9.57959-50.35275-9.57959A105.60688,105.60688,0,0,0,766.5121,749.47162c-3.07127-3.16842-6.111-6.36792-9.16945-9.54913,3.85119-22.4572,18.99146-45.59466,40.58577-61.4978,26.54066-19.54625,59.37579-26.37319,92.45158-19.22034a12.32276,12.32276,0,1,0,5.20846-24.08886c-40.08826-8.662-79.95992-.33192-112.27473,23.46513-21.7639,16.02873-37.91347,37.60148-45.93649,60.50367q-4.83141-5.07246-9.66332-10.14416A107.62844,107.62844,0,0,1,834.2412,617.83955a138.0201,138.0201,0,0,1,19.89421,1.33771,12.32253,12.32253,0,1,0,3.57994-24.38367,162.65222,162.65222,0,0,0-23.47415-1.59844,132.28278,132.28278,0,0,0-125.705,90.57939c-.42067,1.2625-.77014,2.54782-1.1527,3.82286L695.36339,674.979c-.56682-.58851-1.11384-1.19707-1.67891-1.78746A121.24484,121.24484,0,0,1,814.43022,567.93ZM567.925,814.41511A121.23545,121.23545,0,0,1,673.225,693.685c.58462.55956,1.187,1.10106,1.76991,1.66249L687.61263,707.367c-1.27354.38193-2.5571.7309-3.8181,1.15119a132.28425,132.28425,0,0,0-90.5834,125.70688,162.65222,162.65222,0,0,0,1.59844,23.47415,12.32608,12.32608,0,0,0,12.17679,10.53424,12.54789,12.54789,0,0,0,1.805-.13237,12.32355,12.32355,0,0,0,10.40187-13.98181,138.02,138.02,0,0,1-1.33771-19.89421,107.62373,107.62373,0,0,1,91.10033-106.52715q5.07358,4.83066,10.14491,9.66382c-22.90231,8.02277-44.47519,24.17184-60.50417,45.936-23.799,32.31368-32.13218,72.18735-23.46513,112.2746a12.32227,12.32227,0,1,0,24.08786-5.20845c-7.15185-33.07781-.32591-65.91093,19.22034-92.45159,15.90464-21.59456,39.04236-36.735,61.49918-40.58514,3.18083,3.058,6.38021,6.0978,9.54825,9.1687a105.60775,105.60775,0,0,0-72.99183,100.444c0,20.22413,2.864,35.28192,9.57758,50.35174a12.32243,12.32243,0,1,0,22.51248-10.02783c-5.28867-11.87095-7.44566-23.55337-7.44566-40.32391,0-40.15846,30.13163-74.47733,69.3971-80.097q4.84381,4.67779,9.68288,9.3601a92.14056,92.14056,0,0,0-57.29351,116.48291,89.29668,89.29668,0,0,0,3.31419,8.42538A12.32216,12.32216,0,0,0,748.68462,910.933a64.97023,64.97023,0,0,1-2.40567-6.121,67.49318,67.49318,0,0,1,50.90941-87.71844c1.309-.25672,2.62842-.46968,3.94846-.64743,3.26369,3.17456,6.50355,6.37282,9.76347,9.55126a78.968,78.968,0,0,0-32.87624,23.27648,78.68035,78.68035,0,0,0-18.26369,50.38082,78.88513,78.88513,0,0,0,2.40267,19.39984,12.3221,12.3221,0,0,0,23.88629-6.06483,54.24839,54.24839,0,0,1-1.64456-13.335,54.02793,54.02793,0,0,1,12.54093-34.59,54.29486,54.29486,0,0,1,34.47669-18.99121q4.992,4.89271,9.99323,9.776a65.40248,65.40248,0,0,0-40.01355,60.17263,12.3222,12.3222,0,1,0,24.6444,0,40.62237,40.62237,0,0,1,35.60782-40.249q5.12454,5.06249,10.2502,10.12335a51.58635,51.58635,0,0,0-24.22,25.01944,12.32191,12.32191,0,1,0,22.42824,10.21234,26.96044,26.96044,0,0,1,21.42434-15.68265q15.39993,15.37962,30.70271,30.85676H689.81223A122.02577,122.02577,0,0,1,567.925,814.41511Z"/><path class="cls-1" d="M441.37774,407.19907c-1.52674-2.527-3.69225-4.41563-5.659-6.50305-2.00456-2.04944-3.97077-4.13748-6.038-6.124q-12.18984-12.13456-25.42156-23.22734c-15.56219-12.98354-31.81931-25.27252-47.42587-38.21193A154.81852,154.81852,0,0,0,464.93412,185.58489c0-85.32782-69.41866-154.74648-154.74648-154.74648H47.25291A16.42913,16.42913,0,0,0,30.82331,47.268V310.18269c0,85.32782,69.41866,154.74648,154.74647,154.74648a154.80291,154.80291,0,0,0,147.558-108.06793c12.9359,15.60268,25.2215,31.85516,38.20152,47.41334q11.11435,13.21023,23.22747,25.42143c1.98651,2.06748,4.0743,4.03344,6.124,6.038,2.08729,1.96671,3.976,4.13222,6.503,5.65921a22.92369,22.92369,0,0,0,8.98719,3.17494,33.29113,33.29113,0,0,0,13.01111-.84886A19.9396,19.9396,0,0,0,443.704,429.19737a33.294,33.294,0,0,0,.8491-13.01111A22.92929,22.92929,0,0,0,441.37774,407.19907Zm-9.30282-221.61418A121.2354,121.2354,0,0,1,326.77568,306.315c-.58462-.55968-1.18755-1.10118-1.77041-1.66274l-12.61752-12.01936c1.27353-.38181,2.55709-.73078,3.81759-1.15107a132.28608,132.28608,0,0,0,90.58441-125.70688,162.75617,162.75617,0,0,0-1.59844-23.47214,12.32224,12.32224,0,1,0-24.38367,3.57592,138.18981,138.18981,0,0,1,1.33771,19.89622,107.62464,107.62464,0,0,1-91.10084,106.527q-5.07357-4.83047-10.14465-9.66344c22.90231-8.02277,44.47493-24.17221,60.50342-45.93624,23.79905-32.31368,32.13217-72.18735,23.46612-112.2756a12.32275,12.32275,0,0,0-24.08885,5.20845c7.15185,33.07881.3259,65.91293-19.22035,92.45259-15.90413,21.59543-39.04185,36.73483-61.49842,40.585-3.18108-3.05811-6.38021-6.0978-9.54825-9.16869a105.6111,105.6111,0,0,0,72.99107-100.4439c0-20.22413-2.86395-35.28192-9.57758-50.35174A12.32263,12.32263,0,1,0,291.41454,92.7372c5.28868,11.87,7.44566,23.55237,7.44566,40.32291,0,40.15821-30.13112,74.47695-69.3966,80.09693q-4.84344-4.6778-9.68287-9.36011a92.144,92.144,0,0,0,57.294-116.48278,89.50006,89.50006,0,0,0-3.3152-8.42538A12.32216,12.32216,0,0,0,251.31525,89.067a64.88228,64.88228,0,0,1,2.40668,6.12,67.49725,67.49725,0,0,1-50.91029,87.71945c-1.30989.25672-2.6293.46968-3.94821.64705-3.26381-3.17443-6.5033-6.37269-9.76335-9.551a78.96312,78.96312,0,0,0,32.87574-23.27635,78.68035,78.68035,0,0,0,18.26369-50.38082,78.98166,78.98166,0,0,0-2.40066-19.39784,12.32259,12.32259,0,1,0-23.8883,6.06082,54.27008,54.27008,0,0,1,1.64456,13.337,54.038,54.038,0,0,1-12.5408,34.59,54.29511,54.29511,0,0,1-34.47618,18.99121q-4.99236-4.89327-9.994-9.77689a65.4018,65.4018,0,0,0,40.0138-60.17175,12.3222,12.3222,0,1,0-24.6444,0,40.62,40.62,0,0,1-35.60832,40.248q-5.124-5.06212-10.24945-10.12272a51.58671,51.58671,0,0,0,24.21972-25.01907,12.32191,12.32191,0,0,0-22.42824-10.21234,26.95623,26.95623,0,0,1-21.42447,15.682Q93.063,79.1745,77.76058,63.69761H310.18764A122.02577,122.02577,0,0,1,432.07492,185.58489ZM185.56978,432.07A122.02577,122.02577,0,0,1,63.6825,310.18269V77.77643Q79.171,93.06694,94.53864,108.47814a26.96088,26.96088,0,0,1-15.683,21.42521A12.32233,12.32233,0,1,0,89.07,152.3316a51.58737,51.58737,0,0,0,25.01794-24.22047q5.07094,5.11569,10.12309,10.24982a40.62068,40.62068,0,0,1-40.2482,35.6077,12.3222,12.3222,0,0,0,0,24.6444,65.40213,65.40213,0,0,0,60.17175-40.01343q4.89946,4.98521,9.77588,9.99323a54.30934,54.30934,0,0,1-19.01127,34.49261,54.02275,54.02275,0,0,1-34.56894,12.52576,54.258,54.258,0,0,1-13.337-1.64557,12.32259,12.32259,0,0,0-6.06082,23.8883,78.96974,78.96974,0,0,0,19.39783,2.40167A78.68821,78.68821,0,0,0,150.691,222.006a79.00576,79.00576,0,0,0,23.29516-32.89154c3.17882,3.26005,6.37719,6.5,9.55175,9.764-.17749,1.318-.39083,2.63782-.64855,3.95134A67.49181,67.49181,0,0,1,95.14883,253.729a64.70927,64.70927,0,0,1-6.09491-2.39765,12.32208,12.32208,0,1,0-10.18226,22.44228,89.12466,89.12466,0,0,0,8.40332,3.30818,92.13987,92.13987,0,0,0,116.50635-57.28611q4.68287,4.83818,9.36,9.68262c-5.61984,39.2656-39.93784,69.398-80.09629,69.398-16.76854,0-28.452-2.157-40.32492-7.44667a12.32243,12.32243,0,0,0-10.02783,22.51248c15.07183,6.71364,30.13063,9.57859,50.35275,9.57859A105.61084,105.61084,0,0,0,233.48827,250.528c3.071,3.16842,6.111,6.36805,9.16945,9.54913-3.85119,22.45733-18.99171,45.59492-40.58614,61.49818-26.53965,19.54725-59.37178,26.3752-92.45158,19.22034a12.32276,12.32276,0,0,0-5.20846,24.08886,145.90482,145.90482,0,0,0,30.84761,3.33926,136.30349,136.30349,0,0,0,81.427-26.80439c21.76441-16.02873,37.914-37.60173,45.937-60.504q4.831,5.07244,9.66282,10.14415a107.62053,107.62053,0,0,1-106.52615,91.101,138.16948,138.16948,0,0,1-19.89621-1.33771,12.32224,12.32224,0,0,0-3.57593,24.38367,162.73461,162.73461,0,0,0,23.47214,1.59844,132.28454,132.28454,0,0,0,125.70588-90.58039c.42067-1.262.76964-2.54669,1.1517-3.82123l12.01936,12.61752c.56707.58838,1.11409,1.19694,1.67916,1.78733A121.24516,121.24516,0,0,1,185.56978,432.07Z"/><path class="cls-1" d="M952.74709,30.83841H689.81223c-85.32781,0-154.74647,69.41866-154.74647,154.74648A154.81841,154.81841,0,0,0,643.167,333.13289c-15.60657,12.93941-31.86369,25.22826-47.42588,38.2118Q582.53074,382.45885,570.3196,394.572c-2.06749,1.98651-4.03345,4.07455-6.038,6.124-1.96671,2.08742-4.13222,3.976-5.6592,6.50305a22.93311,22.93311,0,0,0-3.17507,8.98719,33.29323,33.29323,0,0,0,.84886,13.01111,19.94034,19.94034,0,0,0,14.522,14.52193,33.29093,33.29093,0,0,0,13.01111.84886,22.92512,22.92512,0,0,0,8.9872-3.17494c2.527-1.527,4.41575-3.6925,6.503-5.65921,2.04944-2.00456,4.13749-3.97052,6.124-6.038q12.13455-12.18984,23.22746-25.42143c12.98-15.55818,25.26563-31.81066,38.201-47.41334A154.80288,154.80288,0,0,0,814.43022,464.92917c85.32781,0,154.74647-69.41866,154.74647-154.74648V47.268A16.42913,16.42913,0,0,0,952.74709,30.83841ZM567.925,185.58489A122.02577,122.02577,0,0,1,689.81223,63.69761H922.23955q-15.29069,15.48829-30.702,30.856a26.9578,26.9578,0,0,1-21.42484-15.6819,12.32191,12.32191,0,0,0-22.42824,10.21234A51.58632,51.58632,0,0,0,871.90473,114.103q-5.11551,5.07077-10.24982,10.12285a40.621,40.621,0,0,1-35.60845-40.248,12.3222,12.3222,0,0,0-24.6444,0,65.40156,65.40156,0,0,0,40.01405,60.17188q-4.98558,4.89984-9.994,9.77676a54.31,54.31,0,0,1-34.49147-19.01027,54.02753,54.02753,0,0,1-12.52589-34.57094,54.24839,54.24839,0,0,1,1.64456-13.335A12.3221,12.3221,0,1,0,762.163,80.94548a78.88513,78.88513,0,0,0-2.40267,19.39984A78.68,78.68,0,0,0,778.009,150.70709a79.01041,79.01041,0,0,0,32.89154,23.295c-3.25993,3.17844-6.49979,6.37682-9.76348,9.55138-1.31978-.17749-2.63995-.39083-3.95171-.64805A67.493,67.493,0,0,1,746.287,95.16394a64.862,64.862,0,0,1,2.39765-6.09692,12.32216,12.32216,0,0,0-22.44429-10.17825,89.18951,89.18951,0,0,0-3.30617,8.40132,92.14082,92.14082,0,0,0,57.28549,116.507q-4.83857,4.68306-9.68288,9.36c-39.26547-5.61985-69.3971-39.9386-69.3971-80.09693,0-16.77054,2.157-28.453,7.44566-40.32291a12.32263,12.32263,0,1,0-22.51248-10.02883c-6.71363,15.06982-9.57758,30.12761-9.57758,50.35174a105.611,105.611,0,0,0,72.99158,100.444c-3.168,3.0709-6.36717,6.11058-9.54825,9.1687-22.45657-3.85031-45.59454-18.99058-61.49893-40.58514-19.54625-26.54066-26.37219-59.37378-19.22034-92.45259a12.32275,12.32275,0,0,0-24.08886-5.20845c-8.666,40.08825-.33292,79.96192,23.46613,112.2756,16.02949,21.764,37.60236,37.913,60.50417,45.93586q-5.07283,4.83141-10.14516,9.66382a107.6256,107.6256,0,0,1-91.10008-106.527,138.02,138.02,0,0,1,1.33771-19.89421,12.32253,12.32253,0,1,0-24.38367-3.57994,162.65222,162.65222,0,0,0-1.59844,23.47415,132.28183,132.28183,0,0,0,90.57839,125.70487c1.26275.42092,2.54807.77039,3.82311,1.15283l-12.61777,12.01961c-.58287.56156-1.18554,1.10306-1.77016,1.66274A121.23554,121.23554,0,0,1,567.925,185.58489ZM814.43022,432.07A121.24447,121.24447,0,0,1,693.68448,326.80821c.56507-.59039,1.11184-1.199,1.67891-1.78746l12.01961-12.618c.38206,1.27328.731,2.55709,1.15119,3.81772a132.28519,132.28519,0,0,0,125.707,90.5844,162.75474,162.75474,0,0,0,23.47214-1.59844,12.32224,12.32224,0,1,0-3.57592-24.38367,138.18981,138.18981,0,0,1-19.89622,1.33771,107.62561,107.62561,0,0,1-106.52728-91.10083q4.83066-5.07321,9.66307-10.14416c8.023,22.90219,24.17284,44.47519,45.93674,60.50392a136.29746,136.29746,0,0,0,81.42712,26.80439,145.97019,145.97019,0,0,0,30.84761-3.33926A12.32276,12.32276,0,1,0,890.38,340.79565c-33.0768,7.15486-65.91092.32691-92.45158-19.22034-21.59431-15.90326-36.73458-39.04085-40.58577-61.498,3.05849-3.18121,6.09818-6.38071,9.16945-9.54913A105.60987,105.60987,0,0,0,866.956,323.52071c20.22112,0,35.27992-2.865,50.35175-9.57859a12.32243,12.32243,0,0,0-10.02783-22.51248c-11.87295,5.28969-23.55538,7.44667-40.32392,7.44667-40.15832,0-74.47707-30.13238-80.09692-69.398q4.678-4.84362,9.36-9.68275A92.13914,92.13914,0,0,0,912.701,277.08985a89.233,89.233,0,0,0,8.42739-3.31621,12.32208,12.32208,0,1,0-10.18226-22.44228,64.81714,64.81714,0,0,1-6.119,2.40567,67.492,67.492,0,0,1-87.71745-50.91029c-.257-1.31177-.47005-2.6308-.64742-3.94821,3.17456-3.26368,6.37281-6.50367,9.55126-9.76359a78.961,78.961,0,0,0,23.27547,32.875,78.69121,78.69121,0,0,0,50.38083,18.2657,78.96974,78.96974,0,0,0,19.39783-2.40167,12.32259,12.32259,0,1,0-6.06082-23.8883,54.258,54.258,0,0,1-13.337,1.64557,54.04626,54.04626,0,0,1-34.589-12.54181A54.29538,54.29538,0,0,1,846.08958,168.593q4.8927-4.992,9.776-9.99324A65.40177,65.40177,0,0,0,916.03721,198.613a12.3222,12.3222,0,1,0,0-24.6444,40.62052,40.62052,0,0,1-40.24795-35.60745q5.06211-5.12434,10.12309-10.24995A51.58812,51.58812,0,0,0,910.93,152.3316a12.32233,12.32233,0,0,0,10.21435-22.42825,26.96032,26.96032,0,0,1-15.68278-21.425q15.37924-15.39956,30.85589-30.70171v232.406A122.02577,122.02577,0,0,1,814.43022,432.07Z"/></svg>