<svg id="Layer_1" data-name="Layer 1" xmlns="http://www.w3.org/2000/svg" viewBox="0 0 1000 1000">
  <defs>
    <style>
      .cls-1 {
        fill: #FFFFFF;
      }
    </style>
  </defs>
  <path class="cls-1"
    d="M520.38922,532.93146a91.75424,91.75424,0,0,1,41.86914,21.49609,3.99834,3.99834,0,0,0,3.16113,1c17.877-2.1709,24.354-10.73633,28.69043-19.66894a4.00078,4.00078,0,0,0-.75244-4.55762,130.81265,130.81265,0,0,0-72.22607-37.06641,3.99615,3.99615,0,0,0-4.13916,2.04688c-4.72754,8.73144-7.90967,18.9873.73974,34.76465A3.99865,3.99865,0,0,0,520.38922,532.93146Zm2.34766-30.41016A122.8772,122.8772,0,0,1,585.609,534.78986c-3.08252,5.53222-7.7749,10.62988-19.39893,12.45312A99.772,99.772,0,0,0,523.921,525.53107C518.63239,515.034,520.03961,508.25177,522.73688,502.5213Z" />
  <path class="cls-1"
    d="M597.31989,525.08282a4.00015,4.00015,0,0,0,2.87109-2.26269c3.00781-6.57617,5.63623-12.751,8.03906-18.88477a311.39023,311.39023,0,0,0,10.11914-30.21191c1.55762-5.65332,2.8086-10.82422,3.82959-15.83789a147.93208,147.93208,0,0,0,2.53272-16.665,29.584,29.584,0,0,0-6.95508-21.59375l.00049.001a29.67968,29.67968,0,0,0-41.83448-3.42676,147.58965,147.58965,0,0,0-12.0708,11.791c-3.458,3.73243-6.9292,7.76563-10.61279,12.33008a311.054,311.054,0,0,0-18.64258,25.84571c-3.57373,5.51855-7.05176,11.24707-10.63232,17.51269a4,4,0,0,0,2.71045,5.91113,135.31137,135.31137,0,0,1,67.13427,34.47559,4,4,0,0,0,3.51124,1.01562ZM533.66071,482.909c2.55273-4.33106,5.07568-8.417,7.6455-12.38575a303.4315,303.4315,0,0,1,18.15918-25.17871c3.56739-4.41992,6.92139-8.31738,10.23535-11.89453a140.607,140.607,0,0,1,11.39747-11.14941,21.68181,21.68181,0,0,1,30.55908,2.50293l.00049.001a21.6264,21.6264,0,0,1,5.0791,15.78125,140.85558,140.85558,0,0,1-2.40283,15.73145c-.979,4.80566-2.18848,9.80371-3.69678,15.27832a303.38826,303.38826,0,0,1-9.85938,29.42969c-1.729,4.41406-3.58154,8.85742-5.61572,13.46875A143.27022,143.27022,0,0,0,533.66071,482.909Z" />
  <path class="cls-1"
    d="M542.9812,648.99091a4.00288,4.00288,0,0,0-4.37-2.87,21.55594,21.55594,0,0,1-14.85-3.81006,13.60113,13.60113,0,0,1-3.12-3.12988,15.56123,15.56123,0,0,1-2.8-9.24,18.64624,18.64624,0,0,1,8.13-14.79,19.1233,19.1233,0,0,1,9.25-3.41,17.42136,17.42136,0,0,1,1.75995-.08,15.99993,15.99993,0,0,1,13.37006,6.72,8.66905,8.66905,0,0,1,.49.84l.23.43c3.07,5.55994,3.08,13.79993.02,19.15991a4.0011,4.0011,0,0,0,5.95,5.13013c19.27-15.20007,27.44-39.16016,20.33-59.64014-6.08-17.53-21.61-28.26-41.8-29.05993-7.42-13.26-22.54-20.38-40.11-18.66-17.42,1.68994-40.18,13.31006-46.99,40.48-2.8,11.19007-3.71,20.89-4.51,29.46-1.33,14.2201-2.48,26.5-11.61,41.42017l.02.00989a4.07674,4.07674,0,0,0-.46.99011,4.01719,4.01719,0,0,0,2.78,4.93994c21.22,5.95,40.97,8.91992,58.76,8.91992,17.93,0,33.88-3.02,47.32-9.06994A4.00017,4.00017,0,0,0,542.9812,648.99091Zm26.84-62.06995c4.04,11.6499,2.47,27.81995-8.48,41.58a29.08154,29.08154,0,0,0-2.29-10.74c5.74-11.86,6.53-25.13,2.1-36.73011a42.45221,42.45221,0,0,0-8.28-13.47A33.693,33.693,0,0,1,569.82123,586.921Zm-26.22-17.17a34.47481,34.47481,0,0,1,10.06994,14.13,37.66773,37.66773,0,0,1-.04,26.13989,23.86969,23.86969,0,0,0-12.28-6C546.74121,592.39093,547.4812,580.56085,543.60126,569.75092Zm-91.68006,37.51c.82-8.68006,1.66-17.66,4.31-28.26,5.8-23.13,25.18-33.02,40-34.46009q2.19-.20983,4.29-.21a34.673,34.673,0,0,1,19.35,5.44995,43.58756,43.58756,0,0,0-22.07,1.4701c-13.88,4.61-25.18,15.5299-31,29.98a175.17,175.17,0,0,0-6.78,21.71008c-2.85,10.84985-5.38,20.5199-12.2,29.79993C450.35126,624.05084,451.12122,615.80084,451.9212,607.26093Zm1.7,31.09c8.2-10.76,11.1-21.81006,14.14-33.38a169.42215,169.42215,0,0,1,6.46-20.75c4.87-12.08,14.62-21.57,26.1-25.37a35.65232,35.65232,0,0,1,19.62-.86c-18.39,6.79992-27.48,24.14-36.32,41.01C475.88123,613.76093,467.88123,628.96088,453.62122,638.35089Zm37.08-35.64c9.63-18.37,18.06-34.46,36.89-38.65a154.85457,154.85457,0,0,1-14.11,31.78c-13.00995,22.11-29.56,37.07007-49.25995,44.59009C476.31122,630.171,483.60126,616.26093,490.70123,602.71088Zm43.81-33.98c5.38,10.84,4.69,23.09-2.14,35.31994a27.42267,27.42267,0,0,0-11,4.55005,26.888,26.888,0,0,0-11.41,19.12,105.06384,105.06384,0,0,1-30.16,14.16C513.51123,622.59088,528.9812,585.57086,534.51123,568.7309Zm-52.12,80.72a114.61831,114.61831,0,0,0,28.37-12.68006,23.27651,23.27651,0,0,0,3.33,7.01l.09.12012A120.67634,120.67634,0,0,1,482.39124,649.45087Zm24.94,4.67a105.65,105.65,0,0,0,13.56-4.11,27.05922,27.05922,0,0,0,2.43,1.31994A110.90182,110.90182,0,0,1,507.33124,654.12091Z" />
  <path class="cls-1"
    d="M72.51312,209.63934a91.75462,91.75462,0,0,1,29.63605-36.56244,3.99764,3.99764,0,0,0,1.62787-2.88842c1.54651-17.94171-5.50623-26.03968-13.358-32.11811a4.00088,4.00088,0,0,0-4.615-.19952,130.8128,130.8128,0,0,0-51.10852,63.07489,3.99609,3.99609,0,0,0,1.15319,4.47131c7.57453,6.41986,16.95838,11.64026,34.17566,6.41516A3.99838,3.99838,0,0,0,72.51312,209.63934Zm-6.51739-4.97619c-11.35938,3.0202-17.70807.25018-22.76251-3.56635a122.87667,122.87667,0,0,1,44.492-54.90552c4.78131,4.1529,8.8067,9.79212,8.204,21.54279A99.77156,99.77156,0,0,0,65.99573,204.66315Z" />
  <path class="cls-1"
    d="M25.0459,196.02679a4.00011,4.00011,0,0,0,6.3418-1.43878A135.31053,135.31053,0,0,1,78.915,135.96436a4.00027,4.00027,0,0,0,.09015-6.50245c-5.81836-4.29412-11.32178-8.13458-16.83142-11.74578a311.37035,311.37035,0,0,0-27.49-16.10773C29.47076,98.923,24.667,96.63684,19.96985,94.608A147.93832,147.93832,0,0,0,4.18,88.707,30.39519,30.39519,0,0,0,0,87.79791v8.11994c.64294.12793,1.28436.27691,1.9212.46344a140.8429,140.8429,0,0,1,14.90271,5.58221c4.5022,1.945,9.14539,4.15509,14.19355,6.75549A303.36931,303.36931,0,0,1,57.79523,124.4118c3.965,2.59864,7.93316,5.32416,12.0285,8.262a143.26965,143.26965,0,0,0-43.54156,53.70446c-3.71454-3.38769-7.19526-6.696-10.5517-10.02606C10.00806,170.64868,4.8183,165.1048,0,159.55377v11.98871c3.19226,3.4613,6.53735,6.94171,10.0899,10.48224C14.757,186.65558,19.64911,191.23584,25.0459,196.02679Z" />
  <path class="cls-1"
    d="M128.83911,299.55048c13.64386,4.22186,25.4259,7.86914,38.1532,19.86847l.01373-.01752a4.0773,4.0773,0,0,0,.87458.6535,4.01724,4.01724,0,0,0,5.40557-1.7063c10.18079-19.5459,17.14325-38.26507,20.79657-55.6759,3.682-17.54785,4.00183-33.77808.84082-48.17407a3.99714,3.99714,0,0,0-7.89135.55127,21.55587,21.55587,0,0,1-6.77845,13.751,13.60083,13.60083,0,0,1-3.70385,2.41077,15.56176,15.56176,0,0,1-9.618.84284,18.64642,18.64642,0,0,1-12.80529-10.994,19.12408,19.12408,0,0,1-1.43781-9.75318,17.42911,17.42911,0,0,1,.28314-1.73883,16.00025,16.00025,0,0,1,9.32239-11.70514,8.67111,8.67111,0,0,1,.92273-.307l.46808-.13678c6.0719-1.8628,14.13831-.18048,18.75568,3.915a4.00113,4.00113,0,0,0,6.24267-4.76966c-10.91888-21.98077-32.69055-34.897-54.19415-32.14422-18.405,2.35052-32.09546,15.346-37.02448,34.94146-14.50116,4.53882-24.5744,17.87439-26.4992,35.42316-1.9234,17.39581,4.77514,42.05695,29.96753,54.30133C111.30975,294.12512,120.61609,297.00763,128.83911,299.55048Zm60.1521-68.46656a110.90138,110.90138,0,0,1-.553,16.22217,105.64718,105.64718,0,0,0-1.23779-14.11505A27.04379,27.04379,0,0,0,188.99121,231.08392Zm-9.28454,7.48279.136-.06335a120.67574,120.67574,0,0,1-1.09668,32.25213,114.61828,114.61828,0,0,0-6.5838-30.36926A23.27566,23.27566,0,0,0,179.70667,238.56671Zm-33.31458-34.844c-10.27521-7.66333-21.70117-10.817-33.07745-9.23957a34.47484,34.47484,0,0,1,15.89672-6.95367,37.6677,37.6677,0,0,1,25.57459,5.40717A23.869,23.869,0,0,0,146.39209,203.72272ZM135.50317,172.348c12.23121-1.56146,27.73426,3.29572,38.95234,16.838a29.08205,29.08205,0,0,0-10.98139.03571c-10.42847-8.05316-23.25342-11.55145-35.516-9.598a42.45079,42.45079,0,0,0-14.88324,5.3374A33.69275,33.69275,0,0,1,135.50317,172.348Zm9.07416,40.16956a27.42253,27.42253,0,0,0,2.19415,11.7,26.88835,26.88835,0,0,0,16.36939,15.09326,105.06208,105.06208,0,0,1,7.66467,32.425c-11.9563-36.95288-45.0105-59.69544-60.35589-68.5658C122.16339,200.13068,134.01062,203.32159,144.57733,212.51752ZM132.66315,229.319c18.9671,17.27313,30.20965,36.5426,33.52392,57.367-7.55859-13.93927-19.67511-23.93048-31.47833-33.66174-16.00092-13.19714-30.01678-24.75165-30.25067-44.04077A154.853,154.853,0,0,1,132.66315,229.319ZM96.94647,215.22388c2.87848,19.39453,17.98236,31.85162,32.67743,43.96765,12.856,10.60608,26.08911,21.557,32.35065,37.4414-8.8468-10.23492-19.0658-15.34234-29.76489-20.69348A169.42989,169.42989,0,0,1,113.22852,265.356c-10.82239-7.24689-18.10791-18.73792-19.46949-30.7536A35.65288,35.65288,0,0,1,96.94647,215.22388ZM78.91406,235.66656q.24436-2.18646.67548-4.24176A34.673,34.673,0,0,1,88.897,213.60645a43.587,43.587,0,0,0-3.0935,21.90148c1.66137,14.53089,10.02807,27.83252,22.975,36.49592a175.163,175.163,0,0,0,19.85511,11.09375c10.03332,5.01739,18.97772,9.47924,26.65942,18.05963-7.98529-4.26068-15.90137-6.70838-24.095-9.24506-8.32666-2.585-16.94275-5.25128-26.77264-10.02154C82.97949,271.46429,77.28009,250.46637,78.91406,235.66656Z" />
  <path class="cls-1"
    d="M107.99646,44.2124a4.08185,4.08185,0,0,0,.20654.63043,4.00169,4.00169,0,0,0,2.80457,2.3443c7.26642,1.63855,13.86023,2.936,20.14874,3.96344a308.449,308.449,0,0,0,31.63452,3.6933c6.166.38251,11.33832.539,16.30554.49195a147.83972,147.83972,0,0,0,16.80042-.95276,29.89262,29.89262,0,0,0,19.72168-11.23853,29.6664,29.6664,0,0,0-5.25183-41.63367C209.702.99243,209.03589.49188,208.36877,0h-14.4729a124.53975,124.53975,0,0,1,11.56269,7.82886,21.66722,21.66722,0,0,1,3.83832,30.414,21.83642,21.83642,0,0,1-14.41034,8.204l-.00592.00043a141.04621,141.04621,0,0,1-15.88685.88958c-4.74505.04432-9.73651-.10711-15.70678-.47753a300.66252,300.66252,0,0,1-30.82971-3.60206c-4.56189-.74572-9.29108-1.63732-14.337-2.70391A143.562,143.562,0,0,0,133.34821,0h-8.20337a135.71873,135.71873,0,0,1-16.67017,41.19812A4.00032,4.00032,0,0,0,107.99646,44.2124Z" />
  <path class="cls-1"
    d="M71.85449,19.49072c.02863.12012.0633.24036.10358.35877,5.7832,17.03039,15.49982,21.62384,25.13867,24.05072a3.99994,3.99994,0,0,0,4.31274-1.67255A130.63928,130.63928,0,0,0,119.5545,0h-8.24218A122.70735,122.70735,0,0,1,96.30347,35.38324c-6.22205-1.91919-12.00788-5.395-16.173-16.4372A99.47809,99.47809,0,0,0,88.23187,0h-8.411a91.42055,91.42055,0,0,1-7.53265,16.55121A3.99855,3.99855,0,0,0,71.85449,19.49072Z" />
  <path class="cls-1"
    d="M46.55524,37.59082C59.74591,29.74152,66.78534,16.38635,66.723,0H2.97192a65.364,65.364,0,0,0,17.999,6.68066C32.91425,9.08691,44.014,7.26355,53.33472,1.55688a35.51236,35.51236,0,0,1-31.75544,18.415A44.8378,44.8378,0,0,1,0,14.04858v8.95624A51.74711,51.74711,0,0,0,21.552,27.966,43.45492,43.45492,0,0,0,57.61444,9.85052,32.24551,32.24551,0,0,1,42.46857,30.71088C30.39661,37.89349,14.23462,37.69141,0,30.88678v8.80457C15.741,46.16443,32.95569,45.67914,46.55524,37.59082Z" />
  <path class="cls-1"
    d="M247.19965,331.19373a29.41535,29.41535,0,0,0,22.63745,1.5971,144.31418,144.31418,0,0,0,15.59973-6.43542c4.577-2.17017,9.29932-4.61566,14.4458-7.48187a311.47179,311.47179,0,0,0,26.91821-17.05463c5.32093-3.72852,10.84491-7.863,16.4184-12.28833a4.00077,4.00077,0,0,0-.3169-6.49262,135.34093,135.34093,0,0,1-49.45611-57.01635,4,4,0,0,0-2.24066-2.07221,4.08176,4.08176,0,0,0-.63886-.17859,4.00184,4.00184,0,0,0-3.50732,1.02954c-5.39948,5.13147-10.1416,9.89325-14.48957,14.55115a308.44875,308.44875,0,0,0-20.646,24.25128c-3.74359,4.91431-6.74738,9.128-9.46784,13.2843a147.82581,147.82581,0,0,0-8.54162,14.49836,29.89248,29.89248,0,0,0-1.61225,22.64172A29.52718,29.52718,0,0,0,247.19965,331.19373Zm-6.12537-36.23926.003-.00513a141.05154,141.05154,0,0,1,8.08655-13.70367c2.59936-3.97,5.49835-8.03608,9.12323-12.79444a300.6613,300.6613,0,0,1,20.123-23.63281c3.15455-3.37872,6.52326-6.81555,10.21351-10.41858a143.28224,143.28224,0,0,0,45.30859,52.2384c-3.97833,3.064-7.90607,5.95508-11.72626,8.6319a303.98983,303.98983,0,0,1-26.22534,16.61994c-4.98291,2.77478-9.55334,5.14221-13.93951,7.22174a137.04956,137.04956,0,0,1-14.73041,6.088,21.66723,21.66723,0,0,1-27.42084-13.70563A21.83683,21.83683,0,0,1,241.07428,294.95447Z" />
  <path class="cls-1"
    d="M364.8891,245.16278a91.516,91.516,0,0,1-30.84564-35.53607,3.99892,3.99892,0,0,0-2.20313-1.99378c-.11578-.0429-.235-.08087-.35589-.11315-17.37323-4.653-26.59076.87414-33.96369,7.54028a4,4,0,0,0-1.00537,4.51514,130.9377,130.9377,0,0,0,53.20618,61.324,3.99739,3.99739,0,0,0,4.6037-.35431c7.65429-6.34625,14.441-14.68164,12.29235-32.54779A3.99754,3.99754,0,0,0,364.8891,245.16278Zm-13.52869,27.35669a123.0107,123.0107,0,0,1-46.31732-53.38733c5.05249-4.10712,11.157-6.98688,22.65222-4.31531A99.54109,99.54109,0,0,0,358.857,250.71692C359.85309,262.43152,356.00922,268.20325,351.36041,272.51947Z" />
  <path class="cls-1"
    d="M330.84607,176.5415c-.94952,18.152,9.31226,33.42176,28.24731,42.21253,1.93354,15.09357,13.31116,27.35351,30.28547,32.31372,16.78576,4.9223,42.2315,2.62482,58.69921-20.04437,6.77234-9.34882,11.23792-18.02765,15.176-25.68634,6.51984-12.69519,12.1626-23.65729,26.17236-34.08771l-.00586-.01282a4.04409,4.04409,0,0,0,.68232-.6322,3.99006,3.99006,0,0,0,.136-4.94092l.00348-.00928-.00934-.00348a4.04057,4.04057,0,0,0-.63226-.68237,182.41781,182.41781,0,0,0-52.98151-31.1618c-23.28137-8.63178-46.20062-10.84735-64.42675-5.2973C348.5932,135.69336,331.97839,154.991,330.84607,176.5415Zm125.28406,25.14112c-3.98566,7.75824-8.113,15.78393-14.53028,24.63519-14.0141,19.302-35.67718,21.26367-49.972,17.073-1.02167-.29352-2.01654-.6305-2.9823-.98859A35.0073,35.0073,0,0,1,371.6377,229.708a43.58246,43.58246,0,0,0,21.05914,6.85876c14.58795.89722,29.13763-5.03491,39.91516-16.269a172.75037,172.75037,0,0,0,14.39838-17.6344c6.70452-9.022,12.64733-17.02515,22.41418-23.08813C463.84351,186.6889,460.0542,194.0614,456.13013,201.68262Zm-15.54554-3.77991a165.83957,165.83957,0,0,1-13.74938,16.86188c-9.00763,9.39447-21.58918,14.56317-33.65424,13.82275a35.634,35.634,0,0,1-18.54852-6.52508c19.60193.54846,34.50323-12.14289,48.98559-24.50965,12.70673-10.82794,25.80084-21.98169,42.572-25.36224C454.55621,179.118,447.72687,188.27509,440.58459,197.90271Zm-22.15545-6.43323c-15.77155,13.45642-29.59247,25.24726-48.62457,22.12635A156.50355,156.50355,0,0,1,395.417,188.81409c20.17938-15.36335,40.92047-22.89252,61.80573-22.4975C441.90576,171.44159,429.5993,181.93811,418.42914,191.46948Zm-28.04468-8.87274a162.96063,162.96063,0,0,0-25.27673,24.10645c-1.07605-13.00513,5.21228-22.54419,11.29571-28.59674,14.77216-14.70173,40.4386-21.53534,67.02631-18.88739C425.37134,161.72778,407.39722,169.58972,390.38446,182.59674ZM443.402,151.12457a113.32458,113.32458,0,0,0-30.92145,1.21643c-16.97949,3.07947-31.78455,10.218-41.71973,20.10059-8.636,8.59369-13.28662,18.83588-13.72,29.75622a35.51243,35.51243,0,0,1,2.33081-36.63452C370.966,148.32892,399.32117,135.91168,443.402,151.12457ZM374.5163,136.16443c13.82452-4.20648,30.68359-3.48035,48.36016,1.48431-35.43457-5.68274-59.15106,7.11054-70.13659,23.45056a43.455,43.455,0,0,0-4.97272,40.04926,32.24515,32.24515,0,0,1-8.93017-24.18268C339.77557,159.04443,354.44287,142.26678,374.5163,136.16443Z" />
  <path class="cls-1"
    d="M704.19171,62.37842a4.0003,4.0003,0,0,0,1.98419,2.319,4.09824,4.09824,0,0,0,.61383.25171,4.00188,4.00188,0,0,0,3.60328-.61432c5.96008-4.46808,11.22424-8.64545,16.08483-12.76563a308.43394,308.43394,0,0,0,23.3285-21.68322c4.29022-4.44513,7.764-8.28058,10.94982-12.09192A147.826,147.826,0,0,0,770.92731,4.38849,29.38531,29.38531,0,0,0,773.28259,0h-9.0451l-.006.01025L764.228.015a141.05181,141.05181,0,0,1-9.62671,12.66926c-3.04383,3.64038-6.39643,7.34143-10.55054,11.64544a300.63846,300.63846,0,0,1-22.73706,21.12988c-3.52637,2.98859-7.27228,6.01-11.35675,9.15888A143.29851,143.29851,0,0,0,673.79254,0H661.71686A135.33993,135.33993,0,0,1,704.19171,62.37842Z" />
  <path class="cls-1"
    d="M661.9621,73.93634a3.999,3.999,0,0,0,1.95605,2.23663c.11005.05609.22406.10767.34027.15381,16.71356,6.64368,26.51178,2.227,34.61054-3.53558a3.99981,3.99981,0,0,0,1.52411-4.36743A130.93668,130.93668,0,0,0,654.68671,1.32343a3.99717,3.99717,0,0,0-4.61359-.184c-8.341,5.4121-16.05188,12.90081-15.99738,30.89569a3.99738,3.99738,0,0,0,1.38678,3.01617A91.51632,91.51632,0,0,1,661.9621,73.93634Zm-9.87848-64.481a123.01032,123.01032,0,0,1,39.78815,58.41577c-5.49622,3.49109-11.89441,5.64075-23.00055,1.64924a99.5412,99.5412,0,0,0-26.77106-39.28327C642.47443,18.48621,646.96405,13.20111,652.08362,9.45538Z" />
  <path class="cls-1"
    d="M501.70648,99.42834l.00885.00452a4.04358,4.04358,0,0,0,.54852.75134A182.41917,182.41917,0,0,0,551.258,137.30127c22.11834,11.283,44.624,16.15137,63.37219,12.76062,24.27521-4.38837,43.02325-21.62085,46.65643-42.89313,3.056-17.91809-5.35864-34.27844-23.14172-45.21356-.16352-15.216-10.03675-28.717-26.3183-35.61926-16.09869-6.84278-41.63886-7.52283-60.6333,13.0755-7.81458,8.49689-13.26,16.59692-18.06281,23.74518-7.95324,11.85-14.83368,22.08068-29.96228,30.80951l.00434.01342a4.0398,4.0398,0,0,0-.75129.54847,3.99005,3.99005,0,0,0-.71026,4.89147Zm32.87238,3.18549c15.80938-3.30719,29.254-12.29987,41.4577-20.46631,17.23065-11.529,32.33008-21.631,50.86951-16.316a156.50526,156.50526,0,0,1-28.32288,21.632C576.75262,100.37354,555.27618,105.43726,534.57886,102.61383Zm-8.22272-6.87762c12.36121-5.52637,20.21-13.8263,28.42438-22.557a165.82976,165.82976,0,0,1,15.61865-15.14685c10.03992-8.28217,23.13757-11.95123,35.03448-9.81146a35.63416,35.63416,0,0,1,17.66285,8.63983c-19.40479-2.82642-35.68213,8.04413-51.5055,18.641C557.71027,84.7771,543.40686,94.33081,526.35614,95.73621Zm127.04327,10.08093c-3.01831,17.69043-19.53881,32.64673-40.18609,36.371-14.22022,2.56867-30.88013-.11493-47.85864-7.10339,34.53216,9.76867,59.57666-.17694,72.38952-15.12726a43.45495,43.45495,0,0,0,9.60059-39.19812A32.2449,32.2449,0,0,1,653.39941,105.81714ZM638.25635,78.63782a35.51246,35.51246,0,0,1-6.57923,36.11419c-13.52166,15.76758-43.12951,24.79981-85.13983,4.55933a113.32216,113.32216,0,0,0,30.85285,2.39111c17.22253-1.08209,32.75781-6.44879,43.77581-15.10772C630.74365,99.0647,636.55481,89.43347,638.25635,78.63782Zm-7.48761-5.41376c-.44513,13.042-7.801,21.78418-14.54767,27.08752-16.383,12.88227-42.67041,16.68183-68.76917,10.9571,18.22767-.38971,36.99476-6.106,55.40589-17.04425A162.96461,162.96461,0,0,0,630.76874,73.22406Zm-90.9881-5.60864c4.86163-7.24158,9.89514-14.7323,17.29907-22.77637,16.16559-17.53961,37.90973-16.96631,51.61957-11.1402.98053.41046,1.92944.861,2.84692,1.329a35.00674,35.00674,0,0,1,15.41468,14.58771,43.5811,43.5811,0,0,0-20.11762-9.26343c-14.38434-2.58923-29.52563,1.609-41.53753,11.51215a172.76139,172.76139,0,0,0-16.35315,15.83856c-7.70911,8.1803-14.5431,15.43732-24.94928,20.3222C530.37445,81.60938,534.99609,74.728,539.78064,67.61542Z" />
  <path class="cls-1"
    d="M566.17242,317.34155a4.00168,4.00168,0,0,0,3.39124-1.364c4.87762-5.62988,9.13678-10.82813,13.01361-15.88489a308.43788,308.43788,0,0,0,18.20264-26.13519c3.25055-5.25342,5.83246-9.738,8.13806-14.138a147.8343,147.8343,0,0,0,7.09869-15.25684,29.89254,29.89254,0,0,0-.58612-22.69147,29.66642,29.66642,0,0,0-39.17438-15.04382,144.32462,144.32462,0,0,0-14.90393,7.91461c-4.34552,2.60291-8.809,5.49384-13.654,8.84455a311.47562,311.47562,0,0,0-25.14172,19.57922c-4.93518,4.22583-10.03321,8.87537-15.15235,13.81928a4.0008,4.0008,0,0,0,.94361,6.43151,135.34089,135.34089,0,0,1,54.7409,51.96344,4,4,0,0,0,2.43061,1.84577A4.08171,4.08171,0,0,0,566.17242,317.34155Zm-49.24493-58.37646c3.66321-3.43451,7.29279-6.69208,10.836-9.72595a303.97961,303.97961,0,0,1,24.4942-19.07947c4.691-3.244,9.011-6.04248,13.17535-8.53668a137.03482,137.03482,0,0,1,14.07227-7.48468,21.66714,21.66714,0,0,1,28.61823,10.988,21.8365,21.8365,0,0,1,.42144,16.57672l-.00244.00544a141.04058,141.04058,0,0,1-6.72272,14.42181c-2.203,4.20288-4.695,8.5304-7.84246,13.61713a300.634,300.634,0,0,1-17.74189,25.46905c-2.8128,3.66809-5.83319,7.41474-9.15747,11.35791A143.283,143.283,0,0,0,516.92749,258.96509Z" />
  <path class="cls-1"
    d="M488.13428,300.58759a3.99758,3.99758,0,0,0,1.99457,2.65374,91.5166,91.5166,0,0,1,34.1394,32.38477,3.99861,3.99861,0,0,0,2.38568,1.77118c.11945.03155.24176.0578.36517.07824,17.74195,2.95014,26.38141-3.44293,33.07471-10.79119a3.99975,3.99975,0,0,0,.56378-4.59119A130.93718,130.93718,0,0,0,501.76746,266.205a3.99748,3.99748,0,0,0-4.54779.79809C490.21533,274.06024,484.267,283.01318,488.13428,300.58759ZM500.94714,274.704a123.01116,123.01116,0,0,1,51.26569,48.65521c-4.63141,4.57678-10.42859,8.03363-22.12842,6.48688a99.54081,99.54081,0,0,0-34.48913-32.71643C493.4704,285.56635,496.73773,279.44977,500.94714,274.704Z" />
  <path class="cls-1"
    d="M373.06653,394.50848a4.03893,4.03893,0,0,0,.69531.618A182.41712,182.41712,0,0,0,429.51,421.01569c24.00732,6.33856,47.03345,6.32611,64.637-.96143,22.79346-9.4339,37.46308-30.2486,36.505-51.80762-.81134-18.15869-12.50238-32.36383-32.19922-39.28125-3.38489-14.83563-15.89539-25.93719-33.27-29.23169-17.18329-3.27508-42.28729,1.4737-56.48425,25.63-5.83606,9.9602-9.44092,19.03039-12.61945,27.03424-5.26093,13.26648-9.81653,24.72308-22.75128,36.46014l.007.01221a4.04071,4.04071,0,0,0-.61792.69525,3.99014,3.99014,0,0,0,.34265,4.93091l-.00257.00952Zm138.36273-49.11615a32.24575,32.24575,0,0,1,11.22821,23.20514c.79981,17.92823-12.17529,36.04633-31.564,44.06232-13.35272,5.52435-30.20288,6.43286-48.27691,3.2019,35.81811,2.22742,58.18555-12.80053,67.53845-30.12689A43.45487,43.45487,0,0,0,511.42926,345.39233Zm-9.33166-.147a35.51235,35.51235,0,0,1,1.22485,36.68817c-9.87244,18.27533-36.89313,33.37793-82.239,22.50159a113.32225,113.32225,0,0,0,30.65863-4.20258c16.60186-4.70794,30.64672-13.24554,39.579-24.043C499.08514,366.80048,502.7229,356.15631,502.0976,345.2453Zm-8.465-3.70367c2.32935,12.84-3.00647,22.94268-8.47577,29.55554-13.28033,16.062-38.1651,25.347-64.88428,25.28412,17.7309-4.24433,34.86-13.80848,50.53437-28.40058A162.96241,162.96241,0,0,0,493.63263,341.54163Zm-5.3418-6.40589a156.49983,156.49983,0,0,1-23.09436,27.14374c-18.5982,17.24377-38.51343,26.74451-59.33887,28.37213,14.74921-6.58295,25.98224-18.221,36.1778-28.78845C456.43091,346.94385,469.04608,333.871,488.29083,335.13574ZM396.364,385.6731c10.909-8.02082,16.82019-17.79578,22.99744-28.06922a165.83807,165.83807,0,0,1,12.05334-18.11316c8.0564-10.222,20.07874-16.5838,32.15888-17.01428a35.63489,35.63489,0,0,1,19.09283,4.69977c-19.563,1.35077-33.16644,15.42438-46.38421,29.1344C424.6828,368.31726,412.72937,380.68561,396.364,385.6731Zm7.15912-30.32727c3.21625-8.10749,6.54773-16.49488,12.07843-25.92548,12.08069-20.56751,33.45233-24.616,48.08551-21.82813,1.04529.1933,2.06812.43244,3.064.69532a35.00693,35.00693,0,0,1,18.15637,10.98907,43.58106,43.58106,0,0,0-21.624-4.78894c-14.60633.51843-28.51374,7.83057-38.15375,20.05475a172.75137,172.75137,0,0,0-12.62451,18.94482c-5.80011,9.62836-10.94068,18.169-20.075,25.14856C397.29663,371.0155,400.3548,363.311,403.52307,355.34583Z" />
  <path class="cls-1"
    d="M178.066,387.9931a29.41556,29.41556,0,0,0,3.98706,22.34076,144.30767,144.30767,0,0,0,10.05469,13.55249c3.22351,3.90735,6.74951,7.88831,10.78723,12.17768a311.47257,311.47257,0,0,0,23.11926,21.93054c4.91644,4.24762,10.27619,8.59289,15.93012,12.915a4.00074,4.00074,0,0,0,6.218-1.895,135.34072,135.34072,0,0,1,43.19165-61.897,4,4,0,0,0,1.46143-2.67938,4.0842,4.0842,0,0,0,.01691-.66321,4.00179,4.00179,0,0,0-1.8559-3.149c-6.29608-3.98072-12.07288-7.41449-17.65259-10.4914a308.4699,308.4699,0,0,0-28.56372-14.089c-5.68048-2.42822-10.50079-4.31036-15.19617-5.93194a147.818,147.818,0,0,0-16.14691-4.73694,29.89237,29.89237,0,0,0-22.34857,3.97339A29.527,29.527,0,0,0,178.066,387.9931Zm17.314-11.90509a21.83644,21.83644,0,0,1,16.32721-2.896l.00574.00158a141.04934,141.04934,0,0,1,15.26508,4.49012c4.4851,1.54962,9.13665,3.36633,14.637,5.71759a300.63561,300.63561,0,0,1,27.83606,13.733c4.04761,2.23254,8.20386,4.65857,12.59985,7.35571a143.28284,143.28284,0,0,0-39.57306,56.70709c-3.94372-3.10827-7.70752-6.20984-11.23724-9.25946a303.98185,303.98185,0,0,1-22.52832-21.365c-3.90906-4.15313-7.32227-8.00592-10.41119-11.75036a137.03074,137.03074,0,0,1-9.50525-12.79456,21.66713,21.66713,0,0,1,6.58416-29.93976Z" />
  <path class="cls-1"
    d="M317.17859,442.47321a3.99908,3.99908,0,0,0,1.39447-2.62378c.0133-.12281.021-.24775.02277-.37281.26336-17.98358-7.35-25.5697-15.61664-31.08868a3.99976,3.99976,0,0,0-4.6239.12927,130.93647,130.93647,0,0,0-46.45154,66.58667,3.99733,3.99733,0,0,0,1.4693,4.37726c8.02533,5.87,17.76721,10.41248,34.56555,3.96008a3.99754,3.99754,0,0,0,2.32556-2.36908A91.516,91.516,0,0,1,317.17859,442.47321Zm-33.775,34.10815c-11.11542,3.83044-17.65192,1.51465-22.97388-1.93756a123.0116,123.0116,0,0,1,40.44037-57.96619c5.218,3.89478,9.50305,9.10974,9.72357,20.9093A99.54078,99.54078,0,0,0,283.40363,476.58136Z" />
  <path class="cls-1"
    d="M405.16223,459.62811c-12.73694-21.1261-35.51153-32.51758-56.68475-28.3457-17.83313,3.51813-30.13,17.20227-34.02356,37.7121-14.16248,5.56573-23.268,19.59594-23.92688,37.26788-.66821,17.4798,7.78186,41.59119,33.78979,52.01556,10.721,4.2807,20.2284,6.48841,28.61756,8.43415,13.90411,3.21753,25.91321,6.00836,39.45282,17.04217l.011-.00879a4.03949,4.03949,0,0,0,.77985.507,3.99006,3.99006,0,0,0,4.82416-1.07623l.00982.001.0011-.00989a4.03641,4.03641,0,0,0,.50708-.77985,182.41787,182.41787,0,0,0,17.26-58.99322C418.45691,498.709,415.00067,475.94373,405.16223,459.62811Zm-50.42645,99.28266c-8.49732-1.96747-17.28864-4.007-27.44037-8.065-22.143-8.86865-29.34241-29.39434-28.77454-44.2799.03479-1.06244.11823-2.10956.22925-3.13349a35.00684,35.00684,0,0,1,8.1499-19.5957,43.581,43.581,0,0,0-1.50085,22.097c2.6972,14.36445,12.00714,27.02179,25.53558,34.725a172.75624,172.75624,0,0,0,20.61994,9.649c10.38763,4.2948,19.601,8.10016,27.86822,16.08789C371.16052,562.72351,363.08521,560.85211,354.73578,558.91077Zm-.13623-15.99787a165.83928,165.83928,0,0,1-19.71216-9.20868c-11.31195-6.43689-19.40033-17.37255-21.63269-29.25238a35.63368,35.63368,0,0,1,1.79126-19.581c4.26154,19.14093,20.21143,30.48639,35.74414,41.50494,13.60651,9.67316,27.62354,19.64234,35.00262,35.0777C376.23047,551.86682,365.6814,547.48407,354.59955,542.9129Zm.82013-23.056c-16.90454-12.00219-31.7171-22.52026-33.34491-41.73773A156.50227,156.50227,0,0,1,352.36725,496.894c19.83148,15.80994,32.204,34.0802,36.928,54.428C380.58044,537.72333,367.39325,528.35724,355.41968,519.85693Zm1.74554-29.363a162.96026,162.96026,0,0,0-29.55566-18.6145c12.34723-4.22358,23.13434-.45881,30.49084,3.96,17.86762,10.72857,30.77008,33.94476,34.7041,60.3728C385.95605,519.31549,373.93756,503.80957,357.16522,490.494Zm43.48126,43.712a113.3214,113.3214,0,0,0-8.74084-29.68524c-7.138-15.711-17.68018-28.32092-29.6922-35.53784-10.44464-6.27246-21.51312-8.27728-32.20789-6.0271a35.51243,35.51243,0,0,1,36.09229-6.69836C385.64423,463.2854,404.61823,487.74335,400.64648,534.20593Zm8.04755-23.19769c-3.15478-35.74841-21.35907-55.61652-39.8894-62.27283a43.45492,43.45492,0,0,0-40.04938,4.97162A32.24558,32.24558,0,0,1,350.02,439.13446c17.60693-3.47229,37.46185,6.6471,48.28754,24.61884C405.76691,476.12952,409.18542,492.6543,408.694,511.00824Z" />
  <path class="cls-1"
    d="M378.649,663.88013c-3.59949-3.564-7.50727-7.171-11.95514-11.03339a311.46141,311.46141,0,0,0-25.2038-19.49914c-5.318-3.73267-11.08679-7.51807-17.146-11.25086a4.00077,4.00077,0,0,0-5.99646,2.50952A135.34051,135.34051,0,0,1,281.587,690.52612a4.00033,4.00033,0,0,0-1.18512,2.8125,4.09115,4.09115,0,0,0,.0498.6615,4.00167,4.00167,0,0,0,2.1626,2.9469c6.66382,3.32868,12.7561,6.16522,18.61651,8.66657a308.475,308.475,0,0,0,29.83362,11.15069c5.89557,1.84583,10.88044,3.23462,15.71485,4.37665a147.82174,147.82174,0,0,0,16.54083,3.09229,29.89263,29.89263,0,0,0,21.83691-6.19654,29.66638,29.66638,0,0,0,4.85614-41.6817A144.33094,144.33094,0,0,0,378.649,663.88013Zm9.62707,33.3775a21.58546,21.58546,0,0,1-8.085,14.50793,21.83665,21.83665,0,0,1-15.9541,4.52021l-.00586-.001a141.0543,141.0543,0,0,1-15.63867-2.93512c-4.618-1.09168-9.42841-2.43225-15.1369-4.21954a300.65279,300.65279,0,0,1-29.074-10.86969c-4.25122-1.815-8.63-3.81159-13.27454-6.05384a143.2825,143.2825,0,0,0,33.68116-60.39282c4.23584,2.69672,8.29193,5.40479,12.10992,8.08472a303.9808,303.9808,0,0,1,24.55908,18.99585c4.30622,3.73974,8.08887,7.23047,11.53809,10.646A137.03623,137.03623,0,0,1,383.73676,681.316,21.45594,21.45594,0,0,1,388.27606,697.25763Z" />
  <path class="cls-1"
    d="M269.89307,690.42908a3.99993,3.99993,0,0,0,4.58758-.59278,130.9366,130.9366,0,0,0,39.53327-70.913,3.99729,3.99729,0,0,0-1.90125-4.20764c-8.574-5.03485-18.72266-8.57654-34.78845-.47058a3.99743,3.99743,0,0,0-2.07605,2.59051,91.51675,91.51675,0,0,1-22.90411,41.10559,3.99864,3.99864,0,0,0-1.12409,2.75049c-.00091.12354.004.24854.01483.37317C252.77783,678.98407,261.11414,685.7677,269.89307,690.42908Zm12.63177-69.814c10.67481-4.92682,17.41071-3.27881,23.05231-.37823a123.01113,123.01113,0,0,1-34.41779,61.73266c-5.58252-3.35138-10.36944-8.10986-11.77319-19.82769A99.541,99.541,0,0,0,282.52484,620.61511Z" />
  <path class="cls-1"
    d="M272.45813,591.799c-1.08966-17.45862-11.9173-40.6001-38.84021-48.3612-11.09656-3.183-20.77747-4.42524-29.31958-5.519-14.15686-1.80566-26.38544-3.377-40.96423-12.996l-.01007.00989a4.04091,4.04091,0,0,0-.82679-.42621,3.9902,3.9902,0,0,0-4.69183,1.55505l-.00989-.00006-.00006.01a4.0441,4.0441,0,0,0-.42621.82684,182.417,182.417,0,0,0-11.25134,60.42774c-.18536,24.82934,5.53851,47.13269,16.965,62.37835,14.79309,19.741,38.59613,28.78888,59.24365,22.51282,17.39-5.29034,28.251-20.13971,30.06634-40.93677C265.92517,624.32111,273.57648,609.44781,272.45813,591.799Zm-69.16907-45.93756c8.65192,1.10468,17.60358,2.25147,28.11133,5.27,22.92139,6.60126,32.14471,26.30066,33.07379,41.168.07208,1.06055.09412,2.11078.08643,3.14068a35.006,35.006,0,0,1-6.14179,20.31476,43.58056,43.58056,0,0,0-.72467-22.136c-4.12542-14.02118-14.65881-25.68018-28.89221-31.98658a172.74663,172.74663,0,0,0-21.48431-7.53051c-10.76624-3.23047-20.31507-6.0918-29.34229-13.20941C186.56464,543.71661,194.787,544.768,203.28906,545.86145Zm-31.5227,57.84637c8.679,14.91517,20.43365,26.40326,33.10937,32.378,11.02149,5.19238,22.23529,6.07611,32.65021,2.76379a35.51237,35.51237,0,0,1-35.23767,10.28729c-20.15308-5.03058-41.48627-27.46045-42.19824-74.087A113.322,113.322,0,0,0,171.76636,603.70782ZM167.691,572.26654c8.50989,16.124,22.02411,30.34522,40.04828,41.9101a162.95915,162.95915,0,0,0,31.27484,15.55383c-11.8609,5.44159-22.9715,2.77856-30.73431-.87946C189.42554,619.97009,174.25787,598.16626,167.691,572.26654Zm52.31262,92.293c-17.16943,5.222-37.93982-2.85321-50.51477-19.64758-8.66394-11.565-13.72388-27.66321-15.07727-45.97376,6.72711,35.25116,26.83374,53.19171,45.93866,57.95441a43.45482,43.45482,0,0,0,39.348-8.96649A32.24525,32.24525,0,0,1,220.0036,664.55951Zm-8.133-57.23224c-21.31824-13.73956-35.4621-30.6756-42.20478-50.44641,10.03583,12.65527,24.09656,20.65039,36.86286,27.90588,18.02386,10.24482,33.81738,19.2229,37.366,38.17993A156.5061,156.5061,0,0,1,211.87061,607.32727Zm38.33966,8.21637c-6.16132-18.61652-23.16944-28.30377-39.72974-37.70758-14.50867-8.25855-29.45557-16.77033-38.34674-31.38709,10.4762,8.57843,21.41193,11.88013,32.89661,15.31592a165.84538,165.84538,0,0,1,20.53692,7.18354c11.90094,5.269,21.04614,15.33746,24.45972,26.93328A35.63458,35.63458,0,0,1,250.21027,615.54364Z" />
  <path class="cls-1"
    d="M123.46411,796.69531a4.00019,4.00019,0,0,0-1.72192-2.51983,4.08682,4.08682,0,0,0-.583-.31659,4.00185,4.00185,0,0,0-3.64862.22125c-6.408,3.79779-12.09284,7.38184-17.37024,10.95251a308.45392,308.45392,0,0,0-25.53528,19.035c-4.74548,3.95538-8.61346,7.39294-12.1925,10.83764a147.833,147.833,0,0,0-11.56043,12.22779,29.89239,29.89239,0,0,0-6.622,21.71167,29.66637,29.66637,0,0,0,32.40381,26.66339,144.30118,144.30118,0,0,0,16.64221-2.79358c4.9458-1.09454,10.09461-2.42505,15.75074-4.07111a311.4554,311.4554,0,0,0,30.04418-10.6206c6.01856-2.44769,12.32557-5.24573,18.74579-8.31641a4.00075,4.00075,0,0,0,1.13935-6.39972A135.34059,135.34059,0,0,1,123.46411,796.69531Zm12.58856,73.91889a303.98619,303.98619,0,0,1-29.27185,10.35138c-5.47632,1.59344-10.45971,2.88171-15.19915,3.93048a137.04385,137.04385,0,0,1-15.71735,2.64886,21.6672,21.6672,0,0,1-23.67273-19.47674,21.83644,21.83644,0,0,1,4.844-15.85883l.004-.00433a141.03771,141.03771,0,0,1,10.93958-11.55463c3.41937-3.29016,7.15234-6.60718,11.74725-10.437A300.64713,300.64713,0,0,1,104.614,811.66455c3.82874-2.59,7.87921-5.18878,12.28009-7.87787a143.28267,143.28267,0,0,0,32.51483,61.02875C144.84735,866.91486,140.37366,868.85693,136.05267,870.6142Z" />
  <path class="cls-1"
    d="M166.6955,789.769a3.99871,3.99871,0,0,0-1.70289-2.43493c-.10333-.06769-.21105-.13129-.32165-.18976-15.89764-8.411-26.11578-5.07916-34.78992-.22559a3.99978,3.99978,0,0,0-1.98712,4.17713,130.93739,130.93739,0,0,0,38.18671,71.647,3.99741,3.99741,0,0,0,4.56671.68152c8.877-4.479,17.35211-11.09052,19.24274-28.98584a3.99766,3.99766,0,0,0-1.05268-3.14838A91.51661,91.51661,0,0,1,166.6955,789.769Zm2.85186,65.1709a123.01071,123.01071,0,0,1-33.24182-62.37372c5.84131-2.87671,12.43433-4.3222,23.04407.84613a99.5416,99.5416,0,0,0,22.36871,41.94654C180.07623,847.00049,175.04181,851.76941,169.54736,854.93994Z" />
  <path class="cls-1"
    d="M293.60748,814.40906c9.18738-10.921,17.13318-20.34821,33.11652-27.39087l-.00281-.0138a4.04234,4.04234,0,0,0,.80615-.464,3.99016,3.99016,0,0,0,1.23474-4.78607l.00544-.0083-.0083-.00543a4.04,4.04,0,0,0-.46412-.80621,182.41689,182.41689,0,0,0-44.69573-42.19471c-20.76941-13.60742-42.617-20.87957-61.62189-19.53485-24.6073,1.73914-45.108,16.84442-51.0188,37.59943-4.97461,17.48291,1.62256,34.65686,18.11969,47.44983-1.48193,15.14453,6.87433,29.63348,22.31457,38.255,15.26484,8.54254,40.582,11.97889,61.69135-6.446C281.77136,828.46051,288.0603,820.9964,293.60748,814.40906Zm10.25574-31.65662c-12.88605,4.15808-21.58588,11.5611-30.69574,19.353a165.84294,165.84294,0,0,1-17.16412,13.37011c-10.87628,7.14856-24.2937,9.38062-35.88965,5.9676A35.63345,35.63345,0,0,1,203.488,810.945c18.98565,4.907,36.34247-4.14063,53.21844-12.9654C271.50836,790.25879,286.7605,782.30688,303.86322,782.75244Zm-50.858,8.13989c-18.37579,9.59937-34.47858,18.01026-52.335,10.72272a156.50459,156.50459,0,0,1,30.49487-18.44433c23.098-10.475,44.99585-13.188,65.26679-8.14429C280.35773,776.60565,266.02,784.09265,253.00525,790.89233Zm-71.04065-6.32666a32.2451,32.2451,0,0,1-3.311-25.5653c4.91248-17.26056,22.9527-30.34381,43.88154-31.81488,14.41448-1.01679,30.68682,3.45166,46.8106,12.23413-33.27417-13.44355-59.24682-6.26288-73.60034,7.21508A43.45495,43.45495,0,0,0,181.9646,784.56567Zm19.24969-32.10015c15.14655-14.21393,45.55707-19.99341,85.13385,4.66882a113.32136,113.32136,0,0,0-30.41369-5.71155c-17.23859-.78558-33.26294,2.87073-45.15216,10.28815-10.33539,6.45086-17.15344,15.39764-20.01178,25.94616A35.51237,35.51237,0,0,1,201.21429,752.46552Zm13.80488,16.02618c17.67926-11.03619,44.22332-11.97253,69.55053-3.46063-18.163-1.58258-37.438,2.072-56.9234,10.95642a162.96249,162.96249,0,0,0-30.01709,17.8609C199.4812,780.93085,207.73883,773.03485,215.01917,768.4917Zm.27856,67.03546c-.93048-.514-1.82513-1.06439-2.68665-1.62884a35.00726,35.00726,0,0,1-13.7478-16.16816,43.58206,43.58206,0,0,0,18.9986,11.38337c14.02026,4.1286,29.52661,1.59137,42.53845-6.95557a172.75289,172.75289,0,0,0,17.96912-13.97846c8.548-7.29919,16.12628-13.77514,26.99945-17.50671-7.02716,5.68945-12.36548,12.031-17.89069,18.5849-5.61578,6.67371-11.42938,13.57654-19.6593,20.77338C249.85242,845.72083,228.29755,842.8009,215.29773,835.52716Z" />
  <path class="cls-1"
    d="M703.03387,905.67926c-.897-4.98541-2.0216-10.183-3.4414-15.90021a311.45955,311.45955,0,0,0-9.41712-30.44287c-2.20636-6.11114-4.75134-12.52447-7.5642-19.06177a4.00078,4.00078,0,0,0-6.34937-1.39294,135.34016,135.34016,0,0,1-67.97046,32.81439,4,4,0,0,0-2.5863,1.62036,4.07842,4.07842,0,0,0-.33954.56995,4.00176,4.00176,0,0,0,.07593,3.65448c3.53991,6.554,6.89495,12.37689,10.25293,17.79217A308.45009,308.45009,0,0,0,633.69855,921.605c3.76355,4.899,7.04449,8.9007,10.34417,12.61389A147.81062,147.81062,0,0,0,655.801,946.25659a29.89258,29.89258,0,0,0,21.4311,7.48041,29.66643,29.66643,0,0,0,27.93121-31.31763A144.32589,144.32589,0,0,0,703.03387,905.67926ZM691.7276,938.52594a21.58593,21.58593,0,0,1-14.95489,7.225,21.83665,21.83665,0,0,1-15.65357-5.471l-.00421-.00421a141.042,141.042,0,0,1-11.11029-11.39051c-3.15155-3.54754-6.31745-7.40948-9.96155-12.15313A300.65711,300.65711,0,0,1,622.499,891.12653c-2.43567-3.92872-4.87127-8.07935-7.38318-12.58374a143.28371,143.28371,0,0,0,62.27375-30.06153c1.91626,4.64136,3.67889,9.18878,5.26287,13.57624a303.96851,303.96851,0,0,1,9.1789,29.6604c1.37433,5.5354,2.46338,10.566,3.32281,15.3435a137.03511,137.03511,0,0,1,2.02155,15.81024A21.456,21.456,0,0,1,691.7276,938.52594Z" />
  <path class="cls-1"
    d="M676.84442,827.20422c-4.12237-9.04815-10.39154-17.77948-28.19745-20.38049a3.99774,3.99774,0,0,0-3.1878.92664,91.51591,91.51591,0,0,1-42.369,20.47277,3.99874,3.99874,0,0,0-2.50073,1.60468c-.07178.10059-.13965.20575-.2024.3139-9.03674,15.55048-6.114,25.89307-1.60925,34.75342a3.99986,3.99986,0,0,0,4.09473,2.15174,130.93719,130.93719,0,0,0,73.10931-35.30671A3.99731,3.99731,0,0,0,676.84442,827.20422Zm-72.16815,31.49616c-2.642-5.95111-3.82416-12.59644,1.76215-22.99219a99.54069,99.54069,0,0,0,42.803-20.68256c11.56714,2.10383,16.132,7.324,19.08149,12.94025A123.01093,123.01093,0,0,1,604.67627,858.70038Z" />
  <path class="cls-1"
    d="M618.454,806.4342c15.07361,2.08313,29.88342-5.69018,39.1123-20.77526,9.143-14.913,13.58356-40.07337-3.987-61.89893-7.251-8.98261-14.459-15.56348-20.82055-21.36829-10.54688-9.6145-19.65058-17.929-26.05188-34.17981l-.014.00226a4.04188,4.04188,0,0,0-.43164-.824,3.99,3.99,0,0,0-4.73315-1.42414l-.00806-.00573-.00574.00805a4.04162,4.04162,0,0,0-.824.43164,182.41746,182.41746,0,0,0-43.93915,42.98206c-14.42279,20.21167-22.55817,41.75275-21.97046,60.79608.75891,24.657,15.03686,45.74225,35.54034,52.474C587.59216,828.31824,605.015,822.40942,618.454,806.4342Zm8.91363-98.12292c6.44507,5.87677,13.11121,11.96033,19.975,20.47,14.96271,18.57642,11.18768,39.99805,3.40271,52.69824-.55066.9093-1.13623,1.78137-1.7345,2.61975a35.00647,35.00647,0,0,1-16.70221,13.09381,43.58188,43.58188,0,0,0,12.13007-18.53076c4.683-13.845,2.76459-29.43994-5.25806-42.78149A172.74266,172.74266,0,0,0,625.928,717.36993c-6.95337-8.8316-13.12274-16.66149-16.41889-27.67443C614.91455,696.94342,621.03876,702.52972,627.36761,708.31128ZM601.5351,690.885c3.64221,13.0412,10.69335,22.02862,18.11669,31.44122a165.8394,165.8394,0,0,1,12.67682,17.68237c6.71027,11.152,8.40686,24.64759,4.53534,36.09864a35.63491,35.63491,0,0,1-11.15112,16.19494c5.65832-18.77551-2.69177-36.47845-10.83832-53.69207C607.7486,723.51276,600.40961,707.95642,601.5351,690.885Zm-8.01545,7.118c.9386,16.12433,7.84937,30.74847,14.12592,44.02344,8.8609,18.7431,16.62463,35.16766,8.63257,52.72a156.50245,156.50245,0,0,1-17.21674-31.20441C589.51343,740.04578,587.67358,718.05725,593.51965,698.003ZM572.82141,815.05072c-17.05151-5.59515-29.4068-24.14148-30.04419-45.11224-.44263-14.44361,4.6695-30.52527,14.08637-46.287-14.75641,32.71313-8.61451,58.9508,4.28186,73.8291a43.45494,43.45494,0,0,0,37.35278,15.27863A32.24521,32.24521,0,0,1,572.82141,815.05072Zm-5.63226-22.8028c-13.60016-15.7-18.16547-46.31628,8.05145-84.88079a113.32475,113.32475,0,0,0-6.91681,30.16241c-1.47064,17.19373,1.54541,33.35083,8.48407,45.5257,6.03461,10.5838,14.70313,17.75232,25.12964,21.02795A35.51228,35.51228,0,0,1,567.18915,792.24792Zm16.56262-13.15649c-10.32422-18.10425-10.204-44.66455-.69147-69.63318-2.30377,18.08576.58124,37.49079,8.6836,57.31421a162.95758,162.95758,0,0,0,16.65277,30.70374C595.56305,795.11188,588.00171,786.54669,583.75177,779.09143Z" />
  <path class="cls-1"
    d="M910.54938,707.976a29.6664,29.6664,0,0,0-4.06989-41.7658,144.31777,144.31777,0,0,0-13.74566-9.78888c-4.27192-2.72211-8.85419-5.4209-14.01831-8.25513a311.491,311.491,0,0,0-28.75794-13.72711c-5.98718-2.52338-12.42609-5.00293-19.13776-7.36969a4.00077,4.00077,0,0,0-5.33,3.721,135.34019,135.34019,0,0,1-21.98609,72.20379,4.00017,4.00017,0,0,0-.56335,2.99951,4.07883,4.07883,0,0,0,.18854.63605,4.00186,4.00186,0,0,0,2.737,2.42279c7.2171,1.84387,13.77148,3.32764,20.02838,4.53284a308.4505,308.4505,0,0,0,31.51715,4.58826c6.15259.55706,11.31848.8601,16.285.95379a147.83285,147.83285,0,0,0,16.82068-.47626A29.89253,29.89253,0,0,0,910.54938,707.976Zm-20.81714,2.71357-.00592.00024a141.05211,141.05211,0,0,1-15.9057.439c-4.74439-.09015-9.72956-.383-15.68689-.92243a300.64506,300.64506,0,0,1-30.71527-4.47424c-4.53894-.8747-9.241-1.9-14.25464-3.10913a143.283,143.283,0,0,0,20.14532-66.15052c4.71039,1.73981,9.2475,3.52869,13.546,5.34046a303.99222,303.99222,0,0,1,28.0213,13.37152c4.99976,2.74432,9.43518,5.356,13.52875,7.96466a137.03826,137.03826,0,0,1,12.9892,9.23743,21.66718,21.66718,0,0,1,2.975,30.51056A21.83658,21.83658,0,0,1,889.73224,710.68958Z" />
  <path class="cls-1"
    d="M817.304,622.44238c-9.445-3.10742-20.1131-4.42236-34.101,6.89826a3.99768,3.99768,0,0,0-1.48114,2.971,91.516,91.516,0,0,1-13.69159,45.02008,3.999,3.999,0,0,0-.5169,2.926c.02527.12091.05652.24213.09344.36157,5.29828,17.1875,14.8808,22.05439,24.447,24.75342a3.99984,3.99984,0,0,0,4.3584-1.54962,130.93728,130.93728,0,0,0,23.64-77.67041A3.99749,3.99749,0,0,0,817.304,622.44238Zm-25.80176,74.39435c-6.1651-2.09473-11.85016-5.73309-15.70069-16.88885a99.54053,99.54053,0,0,0,13.83179-45.48133c9.39118-7.07318,16.32331-6.8872,22.45075-5.24554A123.01033,123.01033,0,0,1,791.50226,696.83673Z" />
  <path class="cls-1"
    d="M762.439,651.26373c11.75422-9.664,16.08649-25.81915,11.2605-42.83209-4.75775-16.83313-20.235-37.16089-48.19043-39.05194-11.51873-.76386-21.2434.06964-29.82361.80731-14.21844,1.22955-26.50274,2.28021-42.78619-4.0376l-.00781.01178a4.04118,4.04118,0,0,0-.89819-.24163,3.99017,3.99017,0,0,0-4.25678,2.51226l-.00964.002.002.0097a4.04383,4.04383,0,0,0-.2417.89832,182.41694,182.41694,0,0,0,1.78443,61.44037c5.07055,24.30676,15.38232,44.89483,29.7749,57.37878,18.63391,16.16541,43.81207,19.974,62.665,9.47272C757.589,688.78485,765.0636,671.97424,762.439,651.26373Zm-66.06-73.10022c8.68982-.75036,17.68152-1.52288,28.59-.79522,23.799,1.60376,36.98035,18.90661,41.033,33.24115.29474,1.02136.53846,2.04309.74878,3.05133a35.00685,35.00685,0,0,1-1.706,21.15423,43.582,43.582,0,0,0-5.39038-21.48193c-6.99774-12.83136-19.75885-21.9986-35.004-25.1518a172.74679,172.74679,0,0,0-22.59106-2.816c-11.20594-.88019-21.14392-1.65711-31.47235-6.70429C679.57928,579.60461,687.838,578.89307,696.379,578.16351Zm5.06573,15.1753a165.83053,165.83053,0,0,1,21.59168,2.67718c12.74615,2.63257,23.814,10.539,29.603,21.15045a35.63356,35.63356,0,0,1,4.33777,19.17829c-9.95947-16.89215-28.63177-22.76276-46.80639-28.45111-15.92725-5.00293-32.33631-10.16077-44.11792-22.56623C678.10645,591.49591,689.4931,592.40991,701.4447,593.33881Zm6.33374,22.18408c19.783,6.20074,37.11823,11.63519,44.59613,29.41272a156.49973,156.49973,0,0,1-34.60748-8.51209c-23.74194-8.91961-41.148-22.48089-51.91986-40.37823C678.3327,606.2915,693.76636,611.13171,707.77844,615.52289ZM749.035,652.57874c-10.44159,7.8272-21.864,7.57446-30.22491,5.64111-20.30615-4.69214-39.74243-22.7945-51.63886-46.71924,11.72779,13.95923,27.94422,25.00031,48.00672,32.49115A162.96606,162.96606,0,0,0,749.035,652.57874Zm-71.23034-11.21021c11.63733,12.742,25.55591,21.48389,39.20862,24.64246,11.87036,2.74371,23.01739,1.23559,32.496-4.20465A35.5123,35.5123,0,0,1,717.24481,679.314c-20.76117-.65412-46.35583-18.06427-56.91382-63.48542A113.32228,113.32228,0,0,0,677.80469,641.36853Zm60.01672,49.27222c-15.67645,8.73541-37.68494,5.236-53.52759-8.51862-10.91406-9.47076-19.26446-24.13458-24.46014-41.74463,14.03094,33.03083,37.47736,46.31262,57.15735,46.9267A43.45495,43.45495,0,0,0,753.55231,670.218,32.24547,32.24547,0,0,1,737.82141,690.64075Z" />
  <path class="cls-1"
    d="M739.89844,348.241a4.00019,4.00019,0,0,0,2.32678-1.975,4.08592,4.08592,0,0,0,.25415-.61279,4.00187,4.00187,0,0,0-.6-3.60572c-4.44452-5.97766-8.60113-11.25824-12.702-16.13507a308.46187,308.46187,0,0,0-21.591-23.41394c-4.42816-4.30774-8.24987-7.79663-12.04858-10.99743a147.82229,147.82229,0,0,0-13.3653-10.224,29.8924,29.8924,0,0,0-22.28326-4.32477,29.66628,29.66628,0,0,0-23.14355,35.00458,144.319,144.319,0,0,0,4.51165,16.26074c1.6037,4.80493,3.46326,9.78711,5.6894,15.24109a311.47383,311.47383,0,0,0,13.692,28.77466c3.06122,5.73089,6.501,11.71215,10.22357,17.77771a4.00075,4.00075,0,0,0,6.48358.46655A135.34042,135.34042,0,0,1,739.89844,348.241Zm-65.04755,32.89831c-2.563-4.318-4.96051-8.56512-7.1582-12.67962a303.97416,303.97416,0,0,1-13.34375-28.03455c-2.15515-5.28058-3.95539-10.10266-5.49213-14.70715a137.03311,137.03311,0,0,1-4.27136-15.356,21.66717,21.66717,0,0,1,16.90527-25.57251,21.83663,21.83663,0,0,1,16.277,3.166l.00476.00354a141.0548,141.0548,0,0,1,12.63117,9.6767c3.62835,3.05811,7.3161,6.42529,11.60376,10.59638a300.65689,300.65689,0,0,1,21.03991,22.82031c2.97467,3.53815,5.9812,7.2959,9.114,11.39282A143.28349,143.28349,0,0,0,674.85089,381.13928Z" />
  <path class="cls-1"
    d="M709.27869,418.23663a3.9979,3.9979,0,0,0,3.02166-1.37487,91.51567,91.51567,0,0,1,38.98926-26.34589,3.99881,3.99881,0,0,0,2.24433-1.94721c.05658-.10986.10858-.22363.15521-.33972,6.70953-16.68719,2.3316-26.50274-3.399-34.6242a4,4,0,0,0-4.36139-1.54132,130.93739,130.93739,0,0,0-67.28021,45.44116,3.99734,3.99734,0,0,0-.20221,4.61285C683.82556,410.47968,691.28375,418.22,709.27869,418.23663Zm36.06384-57.65417c3.46942,5.50995,5.59375,11.91656,1.55847,23.0069a99.5412,99.5412,0,0,0-39.38867,26.61578c-11.74933-.42066-17.01666-4.931-20.74219-10.06543A123.01131,123.01131,0,0,1,745.34253,360.58246Z" />
  <path class="cls-1"
    d="M827.22772,438.14789c-4.29248-24.2923-21.4508-43.10828-42.70855-46.82538-17.906-3.12665-34.29938,5.22327-45.30457,22.96307-15.21655.10346-28.75641,9.92334-35.7229,26.17749-6.90625,16.07154-7.68713,41.60883,12.83606,60.68445,8.46594,7.848,16.54449,13.32544,23.6737,18.15637,11.81849,8,22.022,14.92078,30.691,30.08368l.01349-.00427a4.03761,4.03761,0,0,0,.54547.75342,3.99016,3.99016,0,0,0,4.88868.72961l.00878.00452.00452-.00885a4.03917,4.03917,0,0,0,.75354-.54553,182.418,182.418,0,0,0,37.31018-48.84723C825.58734,479.39557,830.54449,456.90936,827.22772,438.14789Zm-82.74121,74.52356c-7.22235-4.8902-14.69311-9.95325-22.70795-17.38886-17.47564-16.23474-16.81652-37.97644-10.93634-51.66314.41431-.97895.8686-1.926,1.34021-2.84168a35.00672,35.00672,0,0,1,14.64844-15.35693,43.58136,43.58136,0,0,0-9.34277,20.08087c-2.64594,14.374,1.49243,29.53174,11.34814,41.58264a172.74648,172.74648,0,0,0,15.77387,16.41553c8.14978,7.74139,15.37976,14.60394,20.22351,25.02936C758.44318,522.13281,751.58014,517.484,744.48651,512.67145Zm5.62287-14.97785a165.83069,165.83069,0,0,1-15.085-15.67828c-8.24249-10.07257-11.8598-23.18457-9.67309-35.07294a35.634,35.634,0,0,1,8.70947-17.62866c-2.903,19.39356,7.9032,35.71362,18.43756,51.57874,9.22046,13.91723,18.71765,28.25824,20.05579,45.31433C767.07654,513.82391,758.80768,505.94244,750.10938,497.6936Zm29.35473,20.31769c-3.24481-15.82233-12.18432-29.30231-20.30249-41.53815-11.461-17.27606-21.50329-32.41522-16.11511-50.93353a156.50384,156.50384,0,0,1,21.52008,28.40808C777.39026,475.829,782.3692,497.32532,779.46411,518.01129Zm8.70557-12.83874c-.31775-18.22907-5.9599-37.01856-16.82544-55.47272a162.965,162.965,0,0,0-20.89-27.99365c13.0401.49658,21.75324,7.887,27.02991,14.65448C790.30164,452.79437,793.99744,479.09656,788.16968,505.17255Zm8.039.94635a113.32344,113.32344,0,0,0,2.51288-30.84314c-1.0141-17.22669-6.31946-32.78308-14.93482-43.83515-7.49218-9.60736-17.1004-15.45648-27.88928-17.20062a35.51229,35.51229,0,0,1,36.08795,6.72174C807.69952,434.54553,816.61481,464.18878,796.20868,506.1189Zm15.84759-18.755c9.90491-34.49341.05817-59.5769-14.84137-72.44867a43.45485,43.45485,0,0,0-39.16-9.75531,32.24534,32.24534,0,0,1,25.08148-5.95569c17.67835,3.08814,32.56928,19.66761,36.2121,40.32935C821.861,453.76392,819.11169,470.41309,812.05627,487.364Z" />
  <path class="cls-1"
    d="M678.4198,171.23041a147.82418,147.82418,0,0,0-14.48926,8.55713,29.89233,29.89233,0,0,0-12.36389,19.03631,29.66647,29.66647,0,0,0,23.774,34.57953,144.31759,144.31759,0,0,0,16.76611,1.914c5.05573.31476,10.37164.45887,16.26245.43994a311.46935,311.46935,0,0,0,31.80914-1.90472c6.46058-.68927,13.29523-1.63556,20.314-2.8125a4.00076,4.00076,0,0,0,2.86346-5.83569A135.34033,135.34033,0,0,1,747.65289,151.379a4.00009,4.00009,0,0,0-.95862-2.89758,4.07961,4.07961,0,0,0-.47277-.46534,4.00179,4.00179,0,0,0-3.56763-.79559c-7.208,1.87915-13.66187,3.75269-19.72046,5.726A308.4459,308.4459,0,0,0,693.13232,164.184C687.47864,166.674,682.81134,168.90887,678.4198,171.23041Zm46.98041-10.674c4.39532-1.43109,9.00622-2.80939,13.97888-4.17768a143.28218,143.28218,0,0,0,14.38422,67.63739c-4.96405.75708-9.80018,1.38733-14.43854,1.88214a304.00286,304.00286,0,0,1-30.99249,1.85944c-5.70337.01807-10.8487-.12091-15.69349-.42267a137.03864,137.03864,0,0,1-15.83722-1.79754,21.66717,21.66717,0,0,1-17.36883-25.26,21.83635,21.83635,0,0,1,9.03772-13.90265l.00506-.00312A141.04355,141.04355,0,0,1,682.18207,178.29c4.19543-2.21716,8.69964-4.37341,14.174-6.78442A300.64531,300.64531,0,0,1,725.40021,160.5564Z" />
  <path class="cls-1"
    d="M774.5592,228.54822c9.769-1.85156,19.74109-5.86365,26.50324-22.53968a3.99757,3.99757,0,0,0-.14166-3.31671,91.51594,91.51594,0,0,1-9.80591-46.023,3.999,3.999,0,0,0-.96369-2.81073c-.08062-.09356-.16662-.1845-.25671-.27124-12.95435-12.47656-23.69531-12.09814-33.37292-9.8305a3.99984,3.99984,0,0,0-3.064,3.46533,130.9371,130.9371,0,0,0,16.90112,79.40961A3.99736,3.99736,0,0,0,774.5592,228.54822Zm-13.42395-77.589c6.40882-1.15045,13.1446-.71784,21.913,7.18115a99.5416,99.5416,0,0,0,9.90637,46.49445c-4.79511,10.73455-10.95142,13.92657-17.108,15.45532A123.01161,123.01161,0,0,1,761.13525,150.95923Z" />
  <path class="cls-1"
    d="M819.49786,219.70673c12.30982,12.42816,35.69153,22.72668,61.07038,10.8526,10.44964-4.906,18.55633-10.34162,25.70788-15.13953,11.84748-7.95691,22.089-14.82135,39.39606-17.173l.0011-.0141a4.04178,4.04178,0,0,0,.903-.22321,3.99012,3.99012,0,0,0,2.50922-4.25848l.00751-.00647-.00647-.00751a4.03643,4.03643,0,0,0-.22327-.90308,182.41737,182.41737,0,0,0-31.29535-52.90277c-16.20044-18.81689-35.1878-31.84314-53.82428-35.80249-24.12964-5.12848-48.00622,3.72357-59.42224,22.037-9.61206,15.42749-8.01758,33.75574,4.302,50.60931C803.01422,190.92035,807.04132,207.15424,819.49786,219.70673Zm82.3111-10.93146c-7.24127,4.862-14.736,9.88952-24.63416,14.53192-21.6026,10.114-41.51123,1.35138-51.99487-9.23138-.7522-.75116-1.46-1.52735-2.132-2.30793a35.00681,35.00681,0,0,1-8.74456-19.33758,43.58158,43.58158,0,0,0,15.11315,16.19012c12.33344,7.84217,27.93708,9.68866,42.80414,5.07019a172.74922,172.74922,0,0,0,21.13214-8.46863c10.23224-4.65283,19.30494-8.7824,30.78589-9.36407C915.813,199.384,908.93011,204.00342,901.809,208.77527Zm-11.777-10.82837a165.817,165.817,0,0,1-20.19043,8.10644c-12.4281,3.86475-25.93988,2.30213-36.14117-4.18237a35.6339,35.6339,0,0,1-13.07727-14.68359c16.89038,9.9624,36.07153,6.06335,54.729,2.24566,16.359-3.32989,33.21466-6.75744,49.52832-1.60314C911.34705,188.26514,900.94025,192.97589,890.03192,197.9469Zm29.84149-19.5957c-15.8847-2.92414-31.733.30926-46.12,3.24768-20.31287,4.1477-38.11286,7.78131-53.26013-4.15686a156.50545,156.50545,0,0,1,34.40429-9.29926C879.99066,164.45844,901.78558,167.90228,919.87341,178.3512ZM819.7168,169.13745c5.34942-11.90271,15.46753-17.20941,23.71972-19.56384,20.04059-5.721,45.80982.71417,67.79865,15.89343-17.0185-6.54-36.55274-8.35412-57.73456-5.20019A162.96011,162.96011,0,0,0,819.7168,169.13745Zm95.40973-10.76819a113.32438,113.32438,0,0,0-27.65113-13.89355c-16.35022-5.51862-32.761-6.4328-46.237-2.5896-11.71557,3.34357-20.74041,10.05792-26.4024,19.40582a35.51235,35.51235,0,0,1,19.76184-30.93524C853.0824,120.88177,883.90588,123.7309,915.12653,158.36926Zm-107.89924-2.48175a32.24506,32.24506,0,0,1,3.88251-25.4848c9.49091-15.231,30.444-22.81958,50.96442-18.45,14.13422,3.006,28.53808,11.79712,41.60718,24.69318-28.26361-22.11493-55.20923-22.391-72.72827-13.4043A43.455,43.455,0,0,0,807.22729,155.88751Z" />
  <path class="cls-1"
    d="M909.8606,291.7691a4.00016,4.00016,0,0,0-.29334-3.0379,4.08545,4.08545,0,0,0-.35809-.55847,4.00174,4.00174,0,0,0-3.303-1.56567c-7.44513.23687-14.15363.63513-20.49872,1.21826a308.45373,308.45373,0,0,0-31.54938,4.36133c-6.06469,1.17669-11.1109,2.32281-15.90747,3.61456a147.82811,147.82811,0,0,0-16.024,5.13721,29.8927,29.8927,0,0,0-16.27142,15.82684,29.66647,29.66647,0,0,0,15.529,38.98462,144.32446,144.32446,0,0,0,15.92639,5.57818c4.8606,1.42615,10.01276,2.74353,15.76154,4.02918a311.48714,311.48714,0,0,0,31.44159,5.18439c6.45282.75805,13.32739,1.34832,20.43256,1.75439a4.00078,4.00078,0,0,0,4.08429-5.057A135.34055,135.34055,0,0,1,909.8606,291.7691Zm-10.12146,72.1875c-5.00849-.36059-9.86414-.81659-14.49695-1.361a303.96,303.96,0,0,1-30.63513-5.04773c-5.56592-1.245-10.5528-2.51959-15.21051-3.88635a137.0405,137.0405,0,0,1-15.04639-5.259,21.66729,21.66729,0,0,1-11.34589-28.47833,21.83673,21.83673,0,0,1,11.89124-11.557l.00567-.00189a141.052,141.052,0,0,1,15.15558-4.84681c4.58216-1.23333,9.452-2.339,15.32422-3.47827a300.66141,300.66141,0,0,1,30.74738-4.2478c4.60309-.42255,9.40472-.74591,14.55688-.97937A143.283,143.283,0,0,0,899.73914,363.9566Z" />
  <path class="cls-1"
    d="M920.19672,286.299a3.99978,3.99978,0,0,0-3.75519,2.701,130.93685,130.93685,0,0,0-1.09778,81.18085,3.99738,3.99738,0,0,0,3.67194,2.79925c9.93658.35706,20.54937-1.3479,30.83545-16.11316a3.99757,3.99757,0,0,0,.59613-3.26581,91.51619,91.51619,0,0,1,.62591-47.05188,3.99858,3.99858,0,0,0-.31763-2.95428c-.05786-.10913-.12158-.2168-.19024-.32135C940.6944,288.23877,930.13617,286.23,920.19672,286.299ZM942.2486,353.7323c-7.05256,9.40668-13.7627,11.15662-20.105,11.28448a123.01111,123.01111,0,0,1,.95776-70.67236c6.50452.29682,12.97736,2.2099,19.77948,11.854A99.54135,99.54135,0,0,0,942.2486,353.7323Z" />
  <path class="cls-1"
    d="M963.69623,330.03247c-8.6015,12.55261-8.26819,29.27521,1.10046,44.27387C971.37,384.85211,983.63483,395.57825,1000,398.77423v-8.20355A46.6816,46.6816,0,0,1,971.58435,370.073c-.56726-.899-1.08557-1.81262-1.56811-2.72254a35.00677,35.00677,0,0,1-4.24671-20.7937,43.58216,43.58216,0,0,0,11.154,19.13416A49.21616,49.21616,0,0,0,1000,378.662v-8.346a41.27587,41.27587,0,0,1-17.40485-10.25873A35.63425,35.63425,0,0,1,973.093,342.843c7.723,7.28363,17.00122,10.75055,26.907,12.46661V347.231c-9.72833-1.85608-18.21405-5.6836-24.87616-13.92035A157.8848,157.8848,0,0,1,1000,331.43207v-8.00488a163.53162,163.53162,0,0,0-23.79486,1.61309C982.976,316.05188,992.11621,312.638,1000,311.566v-8.05225c-10.75964,1.23773-19.90845,5.63874-26.81775,12.79523a35.51251,35.51251,0,0,1,26.11994-25.79291c.22937-.05865.46606-.10528.69781-.16009v-8.17847c-.90509.17645-1.801.3689-2.677.59326a43.45478,43.45478,0,0,0-30.36426,26.58344,32.245,32.245,0,0,1,9.428-23.993c6.119-6.17939,14.468-10.005,23.61328-11.3133v-8.18377a49.24661,49.24661,0,0,0-29.29529,13.86242C957.91589,292.64331,955.41333,310.86981,963.69623,330.03247Z" />
  <path class="cls-1"
    d="M122.42365,465.57159a147.809,147.809,0,0,0,10.06-13.48919A29.89246,29.89246,0,0,0,136.536,429.748a29.66647,29.66647,0,0,0-35.28473-22.71424,144.32566,144.32566,0,0,0-16.20441,4.71c-4.785,1.6623-9.74408,3.58252-15.17047,5.87519a311.4849,311.4849,0,0,0-28.60528,14.04235c-5.693,3.131-11.63184,6.64356-17.65143,10.44a4.00083,4.00083,0,0,0-.38739,6.48883,135.34085,135.34085,0,0,1,42.99756,62.0321,4.00008,4.00008,0,0,0,2.00329,2.30249,4.09283,4.09283,0,0,0,.61585.24664,4.00206,4.00206,0,0,0,3.59814-.644c5.92292-4.51727,11.15235-8.738,15.9787-12.89819a308.44372,308.44372,0,0,0,23.14844-21.87543C115.82751,473.27319,119.26947,469.40918,122.42365,465.57159Zm-16.65076,6.67365a300.657,300.657,0,0,1-22.56165,21.31708c-3.50152,3.0177-7.22229,6.06988-11.28064,9.2525a143.28307,143.28307,0,0,0-39.39123-56.8335c4.28644-2.6156,8.50384-5.06482,12.59125-7.31262a303.97623,303.97623,0,0,1,27.86944-13.68518c5.25385-2.21948,10.05359-4.07849,14.639-5.67133a137.03406,137.03406,0,0,1,15.30261-4.45867,21.66726,21.66726,0,0,1,25.7771,16.59167,21.83653,21.83653,0,0,1-2.96686,16.31451l-.00354.00483a141.05907,141.05907,0,0,1-9.5216,12.74835C113.21313,464.17834,109.89124,467.907,105.77289,472.24524Z" />
  <path class="cls-1"
    d="M24.09717,522.52881a3.99874,3.99874,0,0,0,1.97449,2.2204c.11053.05523.22491.10583.34155.15106,16.76788,6.50519,26.52929,2.00769,34.58014-3.82172a3.99985,3.99985,0,0,0,1.48791-4.37982,130.93735,130.93735,0,0,0-46.25958-66.72021,3.99747,3.99747,0,0,0-4.615-.14582C7.19275,452.749,2.96234,456.252,0,461.60175V486.2821A91.542,91.542,0,0,1,24.09717,522.52881Zm-10.41126-64.397a123.01083,123.01083,0,0,1,40.26978,58.08478c-5.46716,3.53644-11.84735,5.73889-22.98615,1.83942A99.54037,99.54037,0,0,0,3.87463,478.99536C4.15173,467.24176,8.59747,461.91968,13.68591,458.13177Z" />
  <path class="cls-1"
    d="M23.69647,555.76575c2.90772-17.94275-5.64184-34.233-23.51471-45.02069C.1629,509.75232.10052,508.76776,0,507.79169v22.00647c.1637-.785.31219-1.57434.43115-2.372A35.12544,35.12544,0,0,1,0,554.10645v14.9392c.08539-.09961.17627-.1969.26056-.29693A43.45479,43.45479,0,0,0,9.5368,529.47253a32.24513,32.24513,0,0,1,6.2616,25.00684C14.19769,564.35284,8.39227,573.40875,0,580.16821V590.14C12.63135,582.0434,21.42725,569.748,23.69647,555.76575Z" />
  <path class="cls-1"
    d="M5.18878,803.13208a4.00181,4.00181,0,0,0-2.73688-2.42053C1.62958,800.50183.817,800.26447,0,800.03967v13.94739q2.41314-3.53238,4.81842-7.22119A4.00016,4.00016,0,0,0,5.18878,803.13208Z" />
  <path class="cls-1"
    d="M12.48767,794.71307c5.23688-8.45208,9.01843-18.51385,1.29608-34.76751a3.99776,3.99776,0,0,0-2.54052-2.13691A91.00563,91.00563,0,0,1,0,753.86841v8.61969c2.39545.9248,4.82507,1.76794,7.29205,2.50549,4.67212,10.7887,2.86475,17.48358-.16894,23.05475C4.72656,787.46478,2.35474,786.78888,0,786.059v8.34467c2.72241.787,5.465,1.50653,8.23608,2.11029A3.99746,3.99746,0,0,0,12.48767,794.71307Z" />
  <path class="cls-1"
    d="M36.339,755.61359c17.47955-.67505,40.87146-10.95038,49.26935-37.68152,3.44543-11.01789,4.91711-20.66663,6.21332-29.18036,2.14111-14.11,4.00225-26.29791,13.96459-40.64429l-.00964-.01031a4.04377,4.04377,0,0,0,.44568-.81641,3.99019,3.99019,0,0,0-1.4433-4.72742l.00031-.00988-.01-.00031a4.04,4.04,0,0,0-.81647-.44568A182.4159,182.4159,0,0,0,43.8092,629.4151C27.80426,628.91559,12.80475,630.9129,0,635.35046v8.46582a102.74554,102.74554,0,0,1,32.00342-6.38543C19.15442,639.56818,8.55426,643.52765,0,648.60522v9.48993c12.34631-8.674,30.59344-14.63354,55.75018-14.42053a113.32285,113.32285,0,0,0-28.927,10.99292A86.54366,86.54366,0,0,0,0,677.0246v15.28619c.26758-.59454.54034-1.17718.8205-1.73682,9.32592-18.63818,31.48358-33.28411,57.53186-39.23449-16.32142,8.12481-30.85938,21.29779-42.8487,39.04242A163.069,163.069,0,0,0,0,719.32855v19.83814C7.46069,750.05206,20.73114,756.23114,36.339,755.61359ZM83.90515,687.5542c-1.30963,8.62329-2.66858,17.54517-5.93561,27.97839C70.82617,738.29077,50.91339,747.044,36.02814,747.62c-1.062.04687-2.11237.044-3.14185.0119A35.00684,35.00684,0,0,1,12.723,741.0097a43.58156,43.58156,0,0,0,22.147-.19915c14.11517-3.79151,26.02081-14.04523,32.66326-28.12494a172.74887,172.74887,0,0,0,8.03827-21.2995c3.48511-10.68653,6.57221-20.1648,13.902-29.02057C86.44629,670.88538,85.20007,679.08044,83.90515,687.5542Zm-15.94031,1.3634A165.8314,165.8314,0,0,1,60.296,709.27826c-5.54993,11.77258-15.83264,20.67627-27.50617,23.81366a35.63387,35.63387,0,0,1-19.6607-.28351c18.75745-5.71771,28.84558-22.49115,38.63977-38.82361,8.60059-14.30859,17.46472-29.04925,32.28839-37.59106C75.2326,666.66339,71.67224,677.5177,67.96484,688.9176Zm-45.71179,5.757c14.24152-20.98614,31.50849-34.72412,51.43378-40.9956-12.88989,9.73266-21.21643,23.59967-28.77289,36.19012-10.66968,17.7757-20.02008,33.35175-39.05591,36.4494A156.49884,156.49884,0,0,1,22.25305,694.67456Z" />
  <path class="cls-1"
    d="M338.95959,986.98224a3.99758,3.99758,0,0,0-3.17974-.95392,91.51594,91.51594,0,0,1-46.69342-5.83044,3.99905,3.99905,0,0,0-2.97132-.01142c-.11487.04547-.22894.09687-.34039.15357-11.38147,5.78186-16.276,12.63446-18.529,19.66h8.53552c1.87451-4.06476,5.32214-7.99426,12.0498-11.699a99.54113,99.54113,0,0,0,47.17176,5.89014A36.2779,36.2779,0,0,1,340.09094,1000h9.25165A40.88189,40.88189,0,0,0,338.95959,986.98224Z" />
  <path class="cls-1"
    d="M382.35675,890.67456c-3.63129-13.80182-6.75714-25.72815-3.30255-42.84924l-.01294-.00562a4.0458,4.0458,0,0,0,.08527-.92627,3.99009,3.99009,0,0,0-3.2-3.76709l-.00366-.00921-.00921.00366a4.03616,4.03616,0,0,0-.92634-.08527,182.41788,182.41788,0,0,0-60.24053,12.21411c-23.0893,9.13312-41.6222,22.7981-51.47474,39.10523-12.75854,21.1131-12.22674,46.5722,1.32965,63.363,11.42182,14.14008,29.25922,18.64484,49.221,12.53406,11.52332,9.93811,28.18006,11.45795,44.1236,3.80713,15.778-7.553,33.17523-26.26385,30.28131-54.13324C387.02008,908.44507,384.54388,899.00409,382.35675,890.67456Zm-111.52606,62.02c-11.27582-13.96124-11.57282-36.2442-.71491-54.19653,7.47535-12.36652,20.50415-23.09058,36.97315-31.20734-30.16126,19.44739-39.25928,44.81207-36.51526,64.30951a43.455,43.455,0,0,0,23.059,33.1203A32.2453,32.2453,0,0,1,270.83069,952.69452Zm7.65979-22.204c-2.88849-20.56958,9.91205-48.75385,52.8739-66.88745a113.32235,113.32235,0,0,0-22.19373,21.56512c-10.57574,13.636-16.82147,28.83924-17.61053,42.83032-.68366,12.16413,2.69946,22.89191,9.6734,31.30652A35.51238,35.51238,0,0,1,278.49048,930.49048Zm34.45532-8.04773a162.96063,162.96063,0,0,0-2.7,34.82446c-9.48993-8.95721-11.18475-20.2561-10.70246-28.824,1.168-20.80848,15.69874-43.04181,37.25-58.83619C325.03351,883.53925,316.91321,901.39813,312.9458,922.44275Zm5.3999,36.81464a156.50446,156.50446,0,0,1,2.49854-35.55127c4.74914-24.91358,15.15045-44.37354,30.95361-58.03406-7.972,14.04712-10.11517,30.07934-12.05768,44.63428C336.99652,930.856,334.59137,948.86316,318.3457,959.25739Zm29.31958-47.89191c2.21949-16.54633,4.50959-33.59381,14.72913-47.3147-4.02728,12.92755-2.99017,24.30365-1.87164,36.23895a165.83311,165.83311,0,0,1,1.03631,21.73236c-.425,13.00818-6.33264,25.2602-15.80414,32.77051a35.63327,35.63327,0,0,1-18.16034,7.53827C342.54547,949.642,345.15283,930.243,347.66528,911.36548Zm6.825,55.479c-.95624.46424-1.92164.8783-2.8794,1.25714a35.00734,35.00734,0,0,1-21.136,1.91883A43.582,43.582,0,0,0,350.7262,961.053c11.4533-9.07929,18.31518-23.2143,18.828-38.77374a172.76382,172.76382,0,0,0-1.06958-22.74073c-1.03967-11.19226-1.96533-21.11755,1.25055-32.15423.60046,9.02173,2.70709,17.03888,4.87952,25.33111,2.2182,8.43537,4.50964,17.16443,5.64892,28.03766C382.73334,944.47784,367.926,960.41144,354.4903,966.84448Z" />
  <path class="cls-1"
    d="M983.647,29.89771A64.63348,64.63348,0,0,0,1000,39.69135V30.88678a55.70721,55.70721,0,0,1-11.27887-7.17419C981.50848,17.80353,975.30878,9.69318,970.28326,0h-8.82672C967.2666,12.31671,974.74939,22.61145,983.647,29.89771Z" />
  <path class="cls-1"
    d="M997.277,483.86426c.92645.78625,1.83026,1.59643,2.723,2.41784V461.60187c-2.60522,4.70489-4.22974,10.83795-4.13464,19.25775A3.99788,3.99788,0,0,0,997.277,483.86426Z" />
  <path class="cls-1"
    d="M973.56989,475.34454c-16.15473-6.70941-41.69965-7.17822-60.52314,13.57642-7.744,8.56122-13.12231,16.706-17.86584,23.89374-7.855,11.91528-14.65064,22.20257-29.70654,31.05615l.00445.01343a4.03636,4.03636,0,0,0-.7467.55462,3.99019,3.99019,0,0,0-.66986,4.89722l-.0044.00885.00891.0044a4.03825,4.03825,0,0,0,.55469.74682,182.41656,182.41656,0,0,0,49.29932,36.71069c22.21093,11.0998,44.756,15.78193,63.47558,12.23621A63.912,63.912,0,0,0,1000,590.14008v-9.97187a54.6966,54.6966,0,0,1-24.08557,11.01319c-14.19849,2.68615-30.88.14038-47.91577-6.70746,34.38177,9.4198,59.235-.5379,72.00134-15.42816V554.10663a37.57332,37.57332,0,0,1-5.84924,9.48688c-13.39087,15.87884-42.923,25.15557-85.09925,5.26312a113.32407,113.32407,0,0,0,30.87152,2.136c17.213-1.22448,32.70343-6.71948,43.64948-15.46917,8.81293-7.04749,14.37286-15.87287,16.42749-25.72528V507.79169C998.56024,493.80853,988.84192,481.67041,973.56989,475.34454Zm-71.70221,41.87378c4.80157-7.28149,9.773-14.8136,17.11016-22.91858,16.02-17.67266,37.76819-17.27917,51.5257-11.56659.98389.40229,1.93652.84491,2.85785,1.30536a35.00738,35.00738,0,0,1,15.53473,14.45972,43.58164,43.58164,0,0,0-20.19354-9.09674c-14.40522-2.47022-29.5113,1.85309-41.44092,11.85522A172.74691,172.74691,0,0,0,911.04,517.22992c-7.64124,8.24371-14.415,15.557-24.7804,20.52777C892.57751,531.28955,897.14209,524.37024,901.86768,517.21832Zm15.04541,5.43958a165.83248,165.83248,0,0,1,15.49279-15.27545c9.97113-8.36487,23.038-12.14209,34.95221-10.10077a35.63358,35.63358,0,0,1,17.73371,8.49347c-19.42755-2.6659-35.61438,8.33886-51.34967,19.06622-13.80353,9.38977-28.02747,19.06146-45.066,20.60779C900.99121,539.8208,908.77112,531.45624,916.91309,522.6579Zm-19.95765,29.60064c15.7815-3.4378,29.15131-12.54132,41.28705-20.80834,17.13477-11.67115,32.15015-21.89765,50.73291-16.736a156.50361,156.50361,0,0,1-28.14312,21.86542C939.10925,549.66962,917.67542,554.91077,896.95544,552.25854Zm81.62037-2.97717c-16.27594,13.01728-42.531,17.03406-68.67621,11.52527,18.22381-.54034,36.943-6.41162,55.26306-17.50177A162.95411,162.95411,0,0,0,992.899,522.07446C992.56177,535.11969,985.27838,543.92249,978.57581,549.28137Z" />
  <path class="cls-1"
    d="M937.4231,762.39685a4.00049,4.00049,0,0,0-2.78363-1.25153,4.08891,4.08891,0,0,0-.66248.03406,4.00169,4.00169,0,0,0-2.99738,2.0921c-3.4859,6.58295-6.46624,12.60621-9.106,18.40558a308.46271,308.46271,0,0,0-11.85559,29.56055c-1.98517,5.85016-3.49189,10.80066-4.74842,15.60657a147.83561,147.83561,0,0,0-3.48394,16.46283,29.89232,29.89232,0,0,0,5.67657,21.97778,29.66641,29.66641,0,0,0,41.55475,5.844,144.32654,144.32654,0,0,0,12.741-11.06494c3.64849-3.51391,7.3471-7.335,11.314-11.68988a311.47809,311.47809,0,0,0,20.09186-24.734c2.26428-3.06842,4.55023-6.3067,6.83612-9.65283V800.03967A135.339,135.339,0,0,1,937.4231,762.39685Zm49.30072,56.497a303.977,303.977,0,0,1-19.57337,24.10132c-3.84088,4.21625-7.42041,7.915-10.91681,11.28216a137.04774,137.04774,0,0,1-12.0274,10.45905,21.66719,21.66719,0,0,1-30.35675-4.2674,21.83658,21.83658,0,0,1-4.14032-16.05688l.00116-.0058a141.06588,141.06588,0,0,1,3.30548-15.56464c1.20093-4.59075,2.65533-9.368,4.57763-15.03247A300.64469,300.64469,0,0,1,929.15,785.00134c1.91535-4.207,4.01532-8.53711,6.36713-13.12713a143.28247,143.28247,0,0,0,59.57654,35.105C992.29718,811.14984,989.49359,815.1405,986.72382,818.89386Z" />
  <path class="cls-1"
    d="M967.96979,732.7464c-.12348-.00385-.2486-.00189-.37342.00592-17.9508,1.11737-24.93035,9.29034-29.7987,17.95618a3.99978,3.99978,0,0,0,.48364,4.60034A131.08,131.08,0,0,0,1000,794.40363V786.059a123.13033,123.13033,0,0,1-53.77527-33.88379c3.48291-5.50146,8.35364-10.17407,20.1015-11.29938A99.579,99.579,0,0,0,1000,762.4881v-8.61969a91.57756,91.57756,0,0,1-29.30719-19.933A3.99882,3.99882,0,0,0,967.96979,732.7464Z" />
  <path class="cls-1"
    d="M957.13336,703.58752c4.87616,17.51062,19.46356,28.72113,40.21167,31.02948a35.20438,35.20438,0,0,0,2.655,4.54963v-19.838c-.27686.67347-.54352,1.33057-.788,1.95008-4.78235-11.11249-2.6139-21.40991.788-28.96784V677.02466a61.32471,61.32471,0,0,0-6.33142,9.97449c-5.45252,10.8952-6.60211,22.08483-3.5379,32.57543a35.51246,35.51246,0,0,1-9.44806-35.47192c2.53619-9.223,8.77862-18.60345,19.31738-26.00751v-9.48993c-15.014,8.91193-23.70288,21.28071-27.0249,33.37586a43.45492,43.45492,0,0,0,8.03015,39.5498A32.2455,32.2455,0,0,1,964.84387,701.447c-4.81305-17.28857,3.75287-37.86145,20.84094-50.0343A65.68345,65.68345,0,0,1,1000,643.81628v-8.46582a74.6678,74.6678,0,0,0-18.95416,9.54438C960.95935,659.21533,951.34906,682.79694,957.13336,703.58752Z" />
  <path class="cls-1"
    d="M876.02966,950.13074a4.00079,4.00079,0,0,0-5.92724-2.66895,135.34,135.34,0,0,1-73.26581,18.13526,4.00036,4.00036,0,0,0-2.86426,1.05389,4.09,4.09,0,0,0-.44946.48791,4.00183,4.00183,0,0,0-.67719,3.592c2.11646,7.1419,4.20233,13.53027,6.37494,19.52032,1.20374,3.34784,2.42725,6.58514,3.67206,9.74878h8.613c-1.62415-4.00873-3.20752-8.14551-4.76093-12.46582-1.57568-4.34564-3.10571-8.90845-4.63763-13.83313A143.28275,143.28275,0,0,0,869.232,957.08832c.92078,4.93628,1.71064,9.7489,2.35846,14.36841,1.43158,10.11468,2.33814,19.47943,2.77387,28.54327h8.00812c-.44-9.43774-1.374-19.16327-2.86017-29.65942C878.60974,963.90637,877.438,957.10675,876.02966,950.13074Z" />
  <path class="cls-1"
    d="M849.67035,910.41046a3.99752,3.99752,0,0,0-3.31024.25122A91.517,91.517,0,0,1,800.68652,921.984a3.999,3.999,0,0,0-2.77728,1.05609c-.09088.08368-.17889.17261-.26257.26556-12.04151,13.35981-11.30811,24.08234-8.72174,33.67969a3.99981,3.99981,0,0,0,3.56476,2.94782A130.9369,130.9369,0,0,0,871.297,940.41559a3.99729,3.99729,0,0,0,1.777-4.26166C870.90045,926.45142,866.56079,916.61749,849.67035,910.41046Zm-53.699,41.72547c-1.36181-6.36725-1.1521-13.11365,6.45264-22.13837a99.54089,99.54089,0,0,0,46.14148-11.43829c10.88721,4.43756,14.28107,10.48492,16.01251,16.58764A123.01069,123.01069,0,0,1,795.97131,952.13593Z" />
  <path class="cls-1"
    d="M855.5976,804.94312c-8.34437-11.57795-15.54364-21.58686-18.46625-38.80671l-.0141-.00067a4.03928,4.03928,0,0,0-.25293-.89508,3.99006,3.99006,0,0,0-4.33911-2.36706l-.00672-.00733-.00732.00678a4.038,4.038,0,0,0-.8952.25293,182.41773,182.41773,0,0,0-51.839,33.02752c-18.27094,16.81372-30.66223,36.22144-34.00324,54.97858-4.32788,24.28607,5.30884,47.85687,23.98969,58.66113,15.73687,9.09668,34.00238,6.8971,50.43939-5.973,14.32306,5.13843,30.41492.57678,42.5487-12.288,12.01429-12.714,21.53412-36.42347,8.8274-61.39582C866.33,819.85461,860.62933,811.93207,855.5976,804.94312Zm-81.824,97.92535c-15.53644-8.98218-23.81372-29.67291-20.125-50.32654,2.537-14.22583,10.847-28.91254,23.304-42.40088-21.16828,28.97937-20.55329,55.91931-10.99219,73.13172a43.45466,43.45466,0,0,0,33.41247,22.63342A32.24526,32.24526,0,0,1,773.77362,902.86847Zm-.82263-23.47369c-10.08093-18.1612-8.2525-49.062,25.33465-81.41089a113.32188,113.32188,0,0,0-12.97174,28.09539c-4.975,16.52375-5.346,32.95575-1.05938,46.29731,3.72912,11.59863,10.73822,20.39654,20.26825,25.74633A35.51235,35.51235,0,0,1,772.951,879.39478Zm18.91418-9.4693c-6.38055-19.84046-.8009-45.80835,13.643-68.28705-5.97376,17.2254-7.141,36.809-3.28839,57.87494a162.9617,162.9617,0,0,0,9.98279,33.472C800.12946,888.03247,794.49115,878.0954,791.86517,869.92548ZM820.477,891.93481a156.49923,156.49923,0,0,1-10.43176-34.078c-4.512-24.95758-1.79071-46.85449,8.05444-65.27789-2.39734,15.97265,1.35834,31.70544,4.77087,45.98743C827.68756,858.731,831.90778,876.40106,820.477,891.93481Zm9.73566-.452c9.3985-17.21057,4.86737-36.25232.43487-54.77332-3.869-16.24-7.852-32.97308-3.23993-49.44824.88251,13.51154,5.93476,23.75684,11.26374,34.49481a165.84681,165.84681,0,0,1,8.76965,19.91138c4.2735,12.29358,3.15851,25.84961-2.98511,36.25977A35.63418,35.63418,0,0,1,830.21265,891.48285Zm26.72308-5.44348c-.72589.77661-1.47827,1.50964-2.23615,2.20709a35.0069,35.0069,0,0,1-19.0379,9.37921,43.58192,43.58192,0,0,0,15.68158-15.64026c7.43006-12.58593,8.75965-28.24212,3.6521-42.9483a172.741,172.741,0,0,0-9.16272-20.84058c-4.98858-10.07281-9.41595-19.004-10.37689-30.45947,3.79944,8.20465,8.64392,14.931,13.64862,21.89044,5.09882,7.0766,10.3714,14.401,15.3385,24.14026C875.26563,855.02411,867.16608,875.21155,856.93573,886.03937Z" />
  <path class="cls-1"
    d="M265.88251,91.43549a147.82468,147.82468,0,0,0,3.33185,16.49426,29.8925,29.8925,0,0,0,13.92846,17.92334,29.66652,29.66652,0,0,0,40.464-11.11817,144.32749,144.32749,0,0,0,7.30689-15.21106c1.95538-4.67279,3.835-9.64752,5.74908-15.21868a311.47636,311.47636,0,0,0,8.63294-30.67444c1.46771-6.32929,2.8153-13.09626,4.00537-20.1128a4.00077,4.00077,0,0,0-4.5738-4.619,135.34062,135.34062,0,0,1-74.89208-9.37787,4.00055,4.00055,0,0,0-3.0517-.04474,4.085,4.085,0,0,0-.59467.29407,4.00185,4.00185,0,0,0-1.92169,3.10937c-.58874,7.4256-.93548,14.1369-1.05829,20.50763a308.4531,308.4531,0,0,0,.84217,31.83826C264.54913,81.38336,265.12964,86.52545,265.88251,91.43549Zm5.32434-47.88263c.08954-4.62159.29968-9.42945.638-14.57581a143.2833,143.2833,0,0,0,68.61383,8.59412c-.91278,4.93774-1.9035,9.71313-2.95734,14.2572a303.97921,303.97921,0,0,1-8.40783,29.88812c-1.85346,5.39386-3.67225,10.209-5.54621,14.68683a137.04282,137.04282,0,0,1-6.89221,14.37177,21.66719,21.66719,0,0,1-29.5592,8.12371,21.83654,21.83654,0,0,1-10.16968-13.09741l-.00122-.00586a141.05111,141.05111,0,0,1-3.13947-15.59894c-.7185-4.69049-1.27832-9.65277-1.76056-15.615A300.65406,300.65406,0,0,1,271.20685,43.55286Z" />
  <path class="cls-1"
    d="M267.81152,12.67413A130.93742,130.93742,0,0,0,348.372,22.7514a3.99743,3.99743,0,0,0,3.18854-3.33953c.90307-6.106,1.04229-12.55927-2.2179-19.41187h-9.25165a21.876,21.876,0,0,1,3.90149,15.42169,123.01083,123.01083,0,0,1-70.132-8.7749A24.89578,24.89578,0,0,1,275.78125,0h-8.53546a42.55417,42.55417,0,0,0-1.703,8.643A3.99987,3.99987,0,0,0,267.81152,12.67413Z" />
  <path class="cls-1"
    d="M818.96637,34.136a147.83373,147.83373,0,0,0,9.03149,14.19836,29.89259,29.89259,0,0,0,19.43476,11.72772,29.6665,29.6665,0,0,0,33.77453-24.90436,144.33315,144.33315,0,0,0,1.35865-16.82025c.1474-5.06329.11566-10.38116-.09809-16.26806-.02685-.68708-.063-1.3794-.09521-2.0694h-8.00812c.038.7912.07849,1.58392.10931,2.37079.20667,5.69971.23786,10.8468.0965,15.69885a137.04373,137.04373,0,0,1-1.273,15.88806,21.66713,21.66713,0,0,1-24.67187,18.19452,21.8364,21.8364,0,0,1-14.19391-8.57312l-.00324-.00494a141.05532,141.05532,0,0,1-8.53051-13.43183c-2.35462-4.11987-4.65864-8.55029-7.24933-13.942C816.15082,10.999,813.78668,5.62976,811.50574,0h-8.613c2.71033,6.88824,5.532,13.39044,8.54456,19.66443C814.113,25.23273,816.50092,29.82355,818.96637,34.136Z" />
  <path class="cls-1"
    d="M502.17847,34.6803l.02014-.00946a4.07853,4.07853,0,0,0,.4884.97638,4.01723,4.01723,0,0,0,5.5965.90033C524.48743,24.84833,538.01056,12.56824,548.65186,0H517.55511c-.423,1.70142-.87976,3.39368-1.41052,5.06537-.05395-1.70624-.188-3.39209-.36993-5.06537h-8.10913a56.5614,56.5614,0,0,1,.25158,12.06506A62.102,62.102,0,0,0,503.48315,0h-9.02783A56.30041,56.30041,0,0,1,499.916,13.11078,101.7649,101.7649,0,0,0,488.63513,0H477.19635C487.40967,9.81213,496.227,18.35443,502.17847,34.6803Z" />
  <path class="cls-1"
    d="M511.07257,836.00433a130.81282,130.81282,0,0,0-73.97485,33.44025,3.99622,3.99622,0,0,0-.97541,4.51343c3.8891,9.1358,9.93329,18.01135,27.66474,21.06634a3.99877,3.99877,0,0,0,3.20807-.84326,91.75428,91.75428,0,0,1,42.88977-19.37964,3.99875,3.99875,0,0,0,2.75073-1.851c9.43176-15.34082,6.7619-25.74225,2.47186-34.69727A4.00074,4.00074,0,0,0,511.07257,836.00433Zm-4.34936,31.23157a99.77236,99.77236,0,0,0-43.32013,19.57391c-11.507-2.39727-15.93811-7.72125-18.74292-13.39984a122.87705,122.87705,0,0,1,64.39636-29.10772C511.46637,850.15887,512.53381,857.00464,506.72321,867.2359Z" />
  <path class="cls-1"
    d="M505.77112,831.20959a4.00021,4.00021,0,0,0,2.99792-5.77075c-3.27331-6.44812-6.46875-12.34948-9.77252-18.04883a311.37388,311.37388,0,0,0-17.34112-26.729c-3.454-4.73877-6.7215-8.93719-10.0091-12.85779a147.94759,147.94759,0,0,0-11.46387-12.35791,29.58422,29.58422,0,0,0-21.228-8.00219l.0011.00024a29.67963,29.67963,0,0,0-28.72858,30.60284,147.58352,147.58352,0,0,0,1.71124,16.78705c.76764,5.02985,1.76251,10.25727,3.04077,15.98169a311.0527,311.0527,0,0,0,8.61762,30.68036c2.09332,6.23248,4.41052,12.52081,7.08417,19.22382a4,4,0,0,0,6.31317,1.55938A135.31188,135.31188,0,0,1,505.77112,831.20959Zm-74.58856,7.74683a303.43809,303.43809,0,0,1-8.39661-29.88678c-1.23755-5.54352-2.19916-10.59473-2.935-15.41522a140.6,140.6,0,0,1-1.62835-15.86066,21.68182,21.68182,0,0,1,20.98529-22.3548l.00109.00025a21.62625,21.62625,0,0,1,15.51154,5.8512,140.86055,140.86055,0,0,1,10.81421,11.675c3.15094,3.75818,6.309,7.81653,9.65393,12.4054a303.37788,303.37788,0,0,1,16.89075,26.03876c2.37756,4.10125,4.70117,8.31744,7.04315,12.78033a143.27106,143.27106,0,0,0-63.00812,28.46088C434.3147,847.9566,432.68817,843.43835,431.18256,838.95642Z" />
  <path class="cls-1"
    d="M574.21375,953.444a3.99714,3.99714,0,0,0-7.29987-3.04785,21.556,21.556,0,0,1-12.22736,9.24817,13.60172,13.60172,0,0,1-4.39178.4928,15.56172,15.56172,0,0,1-8.97388-3.562,18.64615,18.64615,0,0,1-6.51159-15.57049,19.12219,19.12219,0,0,1,3.09082-9.36151,17.406,17.406,0,0,1,1.0332-1.42694,15.99962,15.99962,0,0,1,13.583-6.27838,8.66331,8.66331,0,0,1,.96234.13952l.47973.08777c6.26221,1.05939,12.71643,6.18195,15.00556,11.91376a4.00109,4.00109,0,0,0,7.719-1.46186c.10352-24.54315-13.559-45.85443-34.0119-53.04193-17.50317-6.15686-35.569-.685-48.76562,14.61609-14.9961-2.44964-29.98169,4.949-39.57526,19.76886-9.52368,14.68378-14.6015,39.72894,2.41955,61.97449,7.01313,9.15826,14.037,15.90973,20.24512,21.87158l.20154.19391h11.43878c-1.99963-2.00934-4.03882-3.97626-6.10516-5.962-6.2818-6.046-12.78583-12.29449-19.4306-20.96795-14.48853-18.93988-10.16132-40.26294-2.061-52.75647q1.19934-1.84443,2.50678-3.48779a34.67288,34.67288,0,0,1,16.31243-11.7486,43.58764,43.58764,0,0,0-12.59088,18.18561c-5.0346,13.73175-3.52508,29.37323,4.15876,42.92444a175.17469,175.17469,0,0,0,12.76727,18.82263A142.30878,142.30878,0,0,1,494.45532,1000h9.02777c-3.53235-7.257-8.13391-13.42816-12.88281-19.783a169.43464,169.43464,0,0,1-12.21521-17.97455c-6.42065-11.33209-7.77624-24.87036-3.60217-36.21972a35.65253,35.65253,0,0,1,11.54284-15.88855c-6.1289,18.62439,1.78052,36.53381,9.47767,53.95495,5.111,11.57721,10.31756,23.43128,11.86212,35.91083h8.10913c-1.50818-13.869-7.14289-26.65515-12.65991-39.14117-8.37909-18.97327-15.7212-35.58789-7.27607-52.93164a154.853,154.853,0,0,1,16.08344,30.82836c8.43591,21.95484,10.296,42.49079,5.633,61.24445h31.09675c1.09277-1.29071,2.16534-2.58337,3.19689-3.87982C563.01233,982.08954,570.5799,967.728,574.21375,953.444Zm-15.2887,13.24042a27.08265,27.08265,0,0,0,2.5459-1.07971,110.9098,110.9098,0,0,1-7.77246,14.24969A105.64521,105.64521,0,0,0,558.92505,966.68445Zm-18.90448-77.57c11.63165,4.0921,23.30762,15.38849,27.25745,32.52435a29.08121,29.08121,0,0,0-9.83014-4.89495c-5.70685-11.876-15.59906-20.75635-27.43464-24.51227a42.45057,42.45057,0,0,0-15.69586-1.90735A33.69276,33.69276,0,0,1,540.02057,889.11444Zm-12.43427,10.745A37.66769,37.66769,0,0,1,548.01648,916.166a23.8693,23.8693,0,0,0-12.34088,5.8736c-5.74475-11.45874-14.54138-19.40344-25.41614-23.09784A34.47453,34.47453,0,0,1,527.5863,899.85944Zm-23.78466,5.56036c11.83221,2.53925,20.98852,10.7063,26.30627,23.66559a27.42307,27.42307,0,0,0-3.28833,11.44067,26.88818,26.88818,0,0,0,7.85779,20.83313,105.06262,105.06262,0,0,1-7.69776,32.41724C532.87329,955.38715,513.53619,920.23212,503.80164,905.4198Zm30.71423,91.04309a114.61836,114.61836,0,0,0,7.74133-30.095,23.27666,23.27666,0,0,0,7.55884,1.75873l.15.00439A120.67581,120.67581,0,0,1,534.51587,996.46289Z" />
  <path class="cls-1"
    d="M21.94928,398.4093c11.27649-2.47088,20.38538-5.977,28.42157-9.07269,13.31506-5.13672,24.822-9.5636,42.22034-8.02545l.00415-.01349a4.04007,4.04007,0,0,0,.93-.01776,3.99015,3.99015,0,0,0,3.38977-3.59735l.00873-.00464-.00464-.00879a4.044,4.044,0,0,0-.01776-.93006A182.41748,182.41748,0,0,0,78.094,318.22083c-11.63281-21.93647-27.26532-38.84284-44.5628-46.82972A62.31125,62.31125,0,0,0,0,265.86414v8.18377a54.16005,54.16005,0,0,1,30.171,4.60352c13.1181,6.06048,25.21845,17.82214,35.10834,33.29144C43.65375,285.39752,18.80219,278.512,0,282.17749V290.356c20.10175-4.75458,49.11322,5.07812,71.63141,45.30493a113.32154,113.32154,0,0,0-23.88928-19.67023c-14.72284-9.00128-30.524-13.52575-44.51648-12.76123-1.09241.05988-2.16407.16211-3.22565.28424V311.566c1.25842-.17114,2.48785-.28851,3.66736-.35309,20.80987-1.14252,44.51507,10.83777,62.598,30.50824C51.11694,331.57587,32.469,325.48224,11.1145,323.86877c-3.85968-.29351-7.57782-.42407-11.1145-.44158v8.00488c3.42126.013,7.01685.13946,10.73315.42645,25.2862,1.96216,45.778,10.14545,61.10383,24.33936-14.84321-6.36811-31.01417-6.72339-45.69471-7.04285C16.80042,348.95129,7.98236,348.754,0,347.231v8.07855c8.39227,1.45392,17.23456,1.65228,25.967,1.83911,16.69031.37427,33.88647.76325,48.65436,9.40112-13.29389-2.57147-24.48535-.28149-36.22345,2.15137a165.8342,165.8342,0,0,1-21.48407,3.43555A46.15113,46.15113,0,0,1,0,370.316v8.346a54.59181,54.59181,0,0,0,17.54321,1.44922,172.75288,172.75288,0,0,0,22.48261-3.58033c11.00842-2.27215,20.7702-4.29083,32.095-2.3164-8.89978,1.59546-16.63446,4.57654-24.63532,7.65356-8.138,3.13831-16.55975,6.3819-27.24,8.71784A45.56868,45.56868,0,0,1,0,390.57068v8.20355A53.8625,53.8625,0,0,0,21.94928,398.4093Z" />
  <path class="cls-1"
    d="M182.10242,984.2608a311.46567,311.46567,0,0,0-29.13532-12.90667c-6.05627-2.35273-12.56286-4.64881-19.33893-6.82447a4.00086,4.00086,0,0,0-5.22241,3.87061A135.09965,135.09965,0,0,1,125.14484,1000h8.20337a143.098,143.098,0,0,0,3.03472-26.14142c4.75782,1.60559,9.34382,3.2652,13.69184,4.95441a303.97466,303.97466,0,0,1,28.389,12.57208c5.07556,2.60156,9.58319,5.08649,13.74908,7.57813.5647.34436,1.12207.69159,1.68317,1.0368h14.47284c-3.94159-2.90631-7.93073-5.39056-12.01978-7.88464C192.00177,989.51538,187.34485,986.94757,182.10242,984.2608Z" />
  <path class="cls-1"
    d="M122.83893,963.91852a3.99731,3.99731,0,0,0-2.8523-3.63092c-9.52917-2.83856-20.23028-3.85065-33.89172,7.86181a3.99742,3.99742,0,0,0-1.39636,3.01178A91.39333,91.39333,0,0,1,79.82086,1000h8.411a99.40275,99.40275,0,0,0,4.436-26.90894c9.18695-7.33648,16.12152-7.347,22.29309-5.87963A122.076,122.076,0,0,1,111.31226,1000h8.24224A129.70806,129.70806,0,0,0,122.83893,963.91852Z" />
  <path class="cls-1"
    d="M76.00262,947.51807c-5.23284-16.69153-21.28-36.57251-49.27771-37.6706A173.41672,173.41672,0,0,0,0,911.15179v8.05707a166.74007,166.74007,0,0,1,26.41144-1.36072c23.8349.92872,37.50122,17.85108,41.95856,32.065.32354,1.01257.59606,2.027.8349,3.02893a35.007,35.007,0,0,1-1.10584,21.194,43.58188,43.58188,0,0,0-5.99695-21.32056c-7.35858-12.62787-20.37427-21.42981-35.70276-24.14978a172.76118,172.76118,0,0,0-22.66174-2.17468c-1.26178-.06317-2.50543-.12622-3.73761-.19385v8.01013q1.66892.08936,3.34918.17151a165.83335,165.83335,0,0,1,21.65888,2.06421c12.81561,2.27033,24.10309,9.85993,30.19049,20.303a35.63472,35.63472,0,0,1,4.87951,19.04767c-10.4342-16.60309-29.26532-21.9422-47.59387-27.11328C8.3266,947.60291,4.13763,946.41284,0,945.09088v8.38269c3.47943,1.06879,6.93549,2.04785,10.309,3.001,19.95075,5.63763,37.433,10.57867,45.41168,28.13721a156.50554,156.50554,0,0,1-34.83477-7.528A126.25224,126.25224,0,0,1,0,967.82056v9.02758a134.18288,134.18288,0,0,0,18.51233,7.87415,162.95767,162.95767,0,0,0,34.08679,7.62408c-10.21558,8.11994-21.64062,8.191-30.053,6.49537A61.31392,61.31392,0,0,1,0,988.84424v9.46112c.98657.58881,1.97681,1.15777,2.97192,1.69464H66.723a62.344,62.344,0,0,0-.76263-9.348C77.436,980.65887,81.30872,964.38745,76.00262,947.51807Z" />
  <path class="cls-1"
    d="M954.05273,908.676l-.00744.012a4.04213,4.04213,0,0,0-.90473-.21607,3.9901,3.9901,0,0,0-4.18383,2.63184l-.00959.00226.00232.0097a4.03991,4.03991,0,0,0-.21618.90479,182.4176,182.4176,0,0,0,3.52478,61.36511A136.91415,136.91415,0,0,0,961.4566,1000h8.82666a115.3755,115.3755,0,0,1-7.19537-17.3222A101.8167,101.8167,0,0,0,973.10345,1000h10.11982c-8.26734-9.74518-15.49176-23.43073-20.33393-41.87531a113.32111,113.32111,0,0,0,18.19037,25.03449A92.33642,92.33642,0,0,0,1000,998.30536v-9.46112c-11.88239-8.217-22.56866-20.5575-30.39581-35.23969A105.18878,105.18878,0,0,0,1000,976.84808V967.8205c-13.69452-7.69983-24.4491-17.60517-32.15729-29.62751,9.722,7.52765,21.0622,11.8725,32.15729,15.28058v-8.38269c-11.8479-3.78534-23.2663-8.67395-32.25543-17.61731,11.07867,5.27893,21.48871,6.25733,32.25543,6.8338v-8.01013c-9.73114-.53418-18.62122-1.39752-27.91205-5.61584,9.01538.68835,17.25061-.2569,25.76752-1.22821.71106-.08173,1.42853-.163,2.14453-.24433v-8.05707q-1.555.17386-3.06384.34778C982.75824,913.13153,970.50867,914.52991,954.05273,908.676Z" />
  <path class="cls-1"
    d="M981.61829,91.07947l.001-.00031a29.67977,29.67977,0,0,0-11.9447,40.23914,147.58192,147.58192,0,0,0,9.06091,14.23492c2.94275,4.15076,6.17713,8.37622,9.88788,12.91864,3.57764,4.37567,7.35279,8.70764,11.37659,13.07062V159.55377q-2.66172-3.06655-5.1825-6.14435c-3.59313-4.399-6.71875-8.48187-9.53912-12.45984a140.60449,140.60449,0,0,1-8.57129-13.44415,21.68187,21.68187,0,0,1,8.7251-29.3938l.0011-.00024A21.57293,21.57293,0,0,1,1000,95.91785V87.79791A29.50385,29.50385,0,0,0,981.61829,91.07947Z" />
  <path class="cls-1"
    d="M775.16412,982.08826a29.66641,29.66641,0,0,0-35.0957-23.00519,144.32651,144.32651,0,0,0-16.2428,4.5758c-4.79852,1.62269-9.77337,3.50184-15.2185,5.74952a311.47339,311.47339,0,0,0-28.7204,13.80542c-5.71869,3.0838-11.6864,6.54712-17.73718,10.29364a4.0008,4.0008,0,0,0-.441,6.48541l.00836.00714h12.0758c-.90875-.85565-1.82342-1.70581-2.75579-2.53882,4.30786-2.58008,8.54547-4.99432,12.65124-7.20825a303.98317,303.98317,0,0,1,27.98163-13.45428c5.27209-2.176,10.087-3.99524,14.68542-5.55011a137.03354,137.03354,0,0,1,15.33893-4.332,21.66717,21.66717,0,0,1,25.639,16.8042A21.83555,21.83555,0,0,1,764.23749,1000h9.0451A29.88311,29.88311,0,0,0,775.16412,982.08826Z" />
  </svg>