<svg id="Layer_1" data-name="Layer 1" xmlns="http://www.w3.org/2000/svg" viewBox="0 0 1000 1000"><defs><style>.cls-1{fill:#f8a5af;}.cls-2{fill:#fbabae;}.cls-3{fill:#fcb1b8;}</style></defs><rect class="cls-1" y="500" width="500" height="500"/><rect class="cls-2" x="500" y="500" width="500" height="500"/><rect class="cls-2" width="500" height="500"/><rect class="cls-1" x="500" width="500" height="500"/><rect class="cls-3" x="114.83545" width="32.3291" height="26.94092"/><path class="cls-3" d="M147.16455,941.86816h-32.3291V889.88379h32.3291Zm0-83.1748h-32.3291V806.709h32.3291Zm0-83.17578h-32.3291V723.5332h32.3291Zm0-83.17481h-32.3291V640.3584h32.3291Zm0-83.17578h-32.3291V557.18262h32.3291Zm0-83.1748h-32.3291V474.00781h32.3291Zm0-83.1753h-32.3291V390.83252h32.3291Zm0-83.17529h-32.3291V307.65723h32.3291Zm0-83.17529h-32.3291V224.48193h32.3291Zm0-83.17529h-32.3291V141.30664h32.3291Zm0-83.1753h-32.3291V58.13135h32.3291Z"/><rect class="cls-3" x="114.83545" y="973.05957" width="32.3291" height="26.94043"/><rect class="cls-3" y="429.82764" width="26.9541" height="32.34473"/><path class="cls-3" d="M941.85645,462.17236h-51.9834V429.82764h51.9834Zm-83.17286,0H806.7002V429.82764h51.98339Zm-83.17285,0h-51.9834V429.82764h51.9834Zm-83.17285,0h-51.9834V429.82764h51.9834Zm-83.17383,0H557.18164V429.82764h51.98242Zm-83.17285,0H474.0083V429.82764h51.98291Zm-83.17236,0h-51.9834V429.82764h51.9834Zm-83.17285,0H307.6626V429.82764H359.646Zm-83.17334,0H224.48975V429.82764h51.98291Zm-83.17286,0H141.31689V429.82764H193.2998Zm-83.17285,0H58.144V429.82764H110.127Z"/><rect class="cls-3" x="973.0459" y="429.82764" width="26.9541" height="32.34473"/><rect class="cls-3" x="614.83594" width="32.32813" height="26.94092"/><path class="cls-3" d="M647.16406,941.86816H614.83594V889.88379h32.32812Zm0-83.1748H614.83594V806.709h32.32812Zm0-83.17578H614.83594V723.5332h32.32812Zm0-83.17481H614.83594V640.3584h32.32812Zm0-83.17578H614.83594V557.18262h32.32812Zm0-83.1748H614.83594V474.00781h32.32812Zm0-83.1753H614.83594V390.83252h32.32812Zm0-83.17529H614.83594V307.65723h32.32812Zm0-83.17529H614.83594V224.48193h32.32812Zm0-83.17529H614.83594V141.30664h32.32812Zm0-83.1753H614.83594V58.13135h32.32812Z"/><rect class="cls-3" x="614.83594" y="973.05957" width="32.32813" height="26.94043"/><rect class="cls-3" y="929.82715" width="26.9541" height="32.3457"/><path class="cls-3" d="M941.85645,962.17285h-51.9834v-32.3457h51.9834Zm-83.17286,0H806.7002v-32.3457h51.98339Zm-83.17285,0h-51.9834v-32.3457h51.9834Zm-83.17285,0h-51.9834v-32.3457h51.9834Zm-83.17383,0H557.18164v-32.3457h51.98242Zm-83.17285,0H474.0083v-32.3457h51.98291Zm-83.17236,0h-51.9834v-32.3457h51.9834Zm-83.17285,0H307.6626v-32.3457H359.646Zm-83.17334,0H224.48975v-32.3457h51.98291Zm-83.17286,0H141.31689v-32.3457H193.2998Zm-83.17285,0H58.144v-32.3457H110.127Z"/><rect class="cls-3" x="973.0459" y="929.82715" width="26.9541" height="32.3457"/></svg>