{
    "asset" : {
        "version" : "2.0",
        "generator" : "Khronos glTF Blender I/O v1.2.20"
    },
    "scene" : 0,
    "scenes" : [
        {
            "name" : "Scene",
            "nodes" : [
                3
            ]
        }
    ],
    "nodes" : [
        {
            "name" : "Root",
            "rotation" : [
                1.0033481601112726e-07,
                0,
                0,
                1
            ]
        },
        {
            "name" : "FtrMydesignEasel__mBody",
            "skin" : 0,
            "mesh" : 0
        },
        {
            "name" : "FtrMydesignEasel__mReFabric",
            "skin" : 0,
            "mesh" : 1
        },
        {
            "children" : [
                1,
                2,
                0
            ],
            "name" : "Armature"
        }
    ],
    "materials" : [
        {
            "pbrMetallicRoughness" : {
                "baseColorTexture" : {
                    "index" : 0,
                    "texCoord" : 0
                }
            },
            "name" : "mBody"
        },
        {
            "pbrMetallicRoughness" : {
                "baseColorTexture" : {
                    "index" : 1,
                    "texCoord" : 0
                }
            },
            "name" : "mReFabric"
        }
    ],
    "meshes" : [
        {
            "name" : "FtrMydesignEasel__mBody",
            "primitives" : [
                {
                    "attributes" : {
                        "WEIGHTS_0" : 0,
                        "NORMAL" : 1,
                        "JOINTS_0" : 2,
                        "TEXCOORD_0" : 3,
                        "POSITION" : 4
                    },
                    "material" : 0,
                    "indices" : 5
                }
            ]
        },
        {
            "name" : "FtrMydesignEasel__mReFabric",
            "primitives" : [
                {
                    "attributes" : {
                        "WEIGHTS_0" : 7,
                        "NORMAL" : 8,
                        "JOINTS_0" : 9,
                        "TEXCOORD_0" : 10,
                        "POSITION" : 11
                    },
                    "material" : 1,
                    "indices" : 12
                }
            ]
        }
    ],
    "textures" : [
        {
            "sampler" : 0,
            "source" : 0
        },
        {
            "sampler" : 1,
            "source" : 1
        }
    ],
    "images" : [
        {
            "bufferView" : 6,
            "name" : "mBody_Alb.png",
            "mimeType" : "image/png"
        },
        {
            "bufferView" : 14,
            "name" : "mReFabric_Alb.png",
            "mimeType" : "image/png"
        }
    ],
    "skins" : [
        {
            "inverseBindMatrices" : 6,
            "name" : "Armature",
            "joints" : [
                0
            ]
        }
    ],
    "accessors" : [
        {
            "bufferView" : 0,
            "type" : "VEC4",
            "componentType" : 5126,
            "count" : 454
        },
        {
            "bufferView" : 1,
            "type" : "VEC3",
            "componentType" : 5126,
            "count" : 454
        },
        {
            "bufferView" : 2,
            "type" : "VEC4",
            "componentType" : 5123,
            "count" : 454
        },
        {
            "bufferView" : 3,
            "type" : "VEC2",
            "componentType" : 5126,
            "count" : 454
        },
        {
            "componentType" : 5126,
            "bufferView" : 4,
            "type" : "VEC3",
            "count" : 454,
            "max" : [
                4.344727993011475,
                14.415399551391602,
                2.8671789169311523
            ],
            "min" : [
                -4.504734039306641,
                -0.07740733027458191,
                -3.4943299293518066
            ]
        },
        {
            "bufferView" : 5,
            "type" : "SCALAR",
            "componentType" : 5123,
            "count" : 1110
        },
        {
            "bufferView" : 7,
            "type" : "MAT4",
            "componentType" : 5126,
            "count" : 1
        },
        {
            "bufferView" : 8,
            "type" : "VEC4",
            "componentType" : 5126,
            "count" : 8
        },
        {
            "bufferView" : 9,
            "type" : "VEC3",
            "componentType" : 5126,
            "count" : 8
        },
        {
            "bufferView" : 10,
            "type" : "VEC4",
            "componentType" : 5123,
            "count" : 8
        },
        {
            "bufferView" : 11,
            "type" : "VEC2",
            "componentType" : 5126,
            "count" : 8
        },
        {
            "componentType" : 5126,
            "bufferView" : 12,
            "type" : "VEC3",
            "count" : 8,
            "max" : [
                4.261104106903076,
                13.088910102844238,
                2.5009050369262695
            ],
            "min" : [
                -4.370534896850586,
                5.094799518585205,
                -2.047851800918579
            ]
        },
        {
            "bufferView" : 13,
            "type" : "SCALAR",
            "componentType" : 5123,
            "count" : 30
        }
    ],
    "bufferViews" : [
        {
            "byteLength" : 7264,
            "buffer" : 0,
            "byteOffset" : 0
        },
        {
            "byteLength" : 5448,
            "buffer" : 0,
            "byteOffset" : 7264
        },
        {
            "byteLength" : 3632,
            "buffer" : 0,
            "byteOffset" : 12712
        },
        {
            "byteLength" : 3632,
            "buffer" : 0,
            "byteOffset" : 16344
        },
        {
            "byteLength" : 5448,
            "buffer" : 0,
            "byteOffset" : 19976
        },
        {
            "byteLength" : 2220,
            "buffer" : 0,
            "byteOffset" : 25424
        },
        {
            "byteLength" : 115853,
            "buffer" : 0,
            "byteOffset" : 27644
        },
        {
            "byteLength" : 64,
            "buffer" : 0,
            "byteOffset" : 143500
        },
        {
            "byteLength" : 128,
            "buffer" : 0,
            "byteOffset" : 143564
        },
        {
            "byteLength" : 96,
            "buffer" : 0,
            "byteOffset" : 143692
        },
        {
            "byteLength" : 64,
            "buffer" : 0,
            "byteOffset" : 143788
        },
        {
            "byteLength" : 64,
            "buffer" : 0,
            "byteOffset" : 143852
        },
        {
            "byteLength" : 96,
            "buffer" : 0,
            "byteOffset" : 143916
        },
        {
            "byteLength" : 60,
            "buffer" : 0,
            "byteOffset" : 144012
        },
        {
            "byteLength" : 119,
            "buffer" : 0,
            "byteOffset" : 144072
        }
    ],
    "samplers" : [
        {
            "magFilter" : 9729,
            "minFilter" : 9986,
            "wrapT" : 10497,
            "wrapS" : 10497
        },
        {
            "magFilter" : 9729,
            "minFilter" : 9986,
            "wrapT" : 10497,
            "wrapS" : 10497
        }
    ],
    "buffers" : [
        {
            "byteLength" : 144192,
            "uri" : "data:application/octet-stream;base64,"
        }
    ]
}
