{
    "asset" : {
        "version" : "2.0",
        "generator" : "Khronos glTF Blender I/O v1.2.20"
    },
    "scene" : 0,
    "scenes" : [
        {
            "name" : "Scene",
            "nodes" : [
                19
            ]
        }
    ],
    "nodes" : [
        {
            "name" : "Arm_1_L",
            "translation" : [
                0.6800004839897156,
                -1.0251995945509407e-06,
                -3.9469284729420906e-08
            ],
            "rotation" : [
                7.56010365421389e-09,
                2.23517560016262e-08,
                1.6898254358164088e-16,
                1
            ]
        },
        {
            "children" : [
                0
            ],
            "name" : "Clavicle_L",
            "translation" : [
                0.30000004172325134,
                0.7400006651878357,
                0.43000027537345886
            ],
            "rotation" : [
                -3.8182604568865906e-21,
                -0.7071068286895752,
                -8.422618660124257e-23,
                0.7071067094802856
            ],
            "scale" : [
                1,
                0.9999999403953552,
                1
            ]
        },
        {
            "name" : "Arm_1_R",
            "translation" : [
                -0.6800003051757812,
                -1.0251995945509407e-06,
                -2.9100118581482093e-07
            ],
            "rotation" : [
                5.697462057696612e-09,
                -1.3174158652873302e-08,
                -7.505897758799257e-17,
                1
            ]
        },
        {
            "children" : [
                2
            ],
            "name" : "Clavicle_R",
            "translation" : [
                0.3000001311302185,
                0.7400044798851013,
                -0.43000003695487976
            ],
            "rotation" : [
                5.287540019933906e-21,
                -0.7071065902709961,
                2.3115441048759316e-21,
                0.7071069478988647
            ]
        },
        {
            "children" : [
                1,
                3
            ],
            "name" : "Spine_3",
            "translation" : [
                7.450567807154584e-08,
                1.2499990463256836,
                2.6077017878378683e-07
            ],
            "rotation" : [
                4.235164736271502e-22,
                -7.888895818926384e-22,
                3.552713678800501e-14,
                1
            ]
        },
        {
            "children" : [
                4
            ],
            "name" : "Spine_2",
            "translation" : [
                7.748590036271708e-08,
                1.3000001907348633,
                2.712010598315828e-07
            ],
            "rotation" : [
                -2.08983051946509e-14,
                -3.5527119847346064e-15,
                -2.842170943040401e-14,
                1
            ]
        },
        {
            "children" : [
                5
            ],
            "name" : "Spine_1",
            "translation" : [
                4.126833152550552e-13,
                4.768373287333816e-07,
                -1.1368683772161603e-13
            ],
            "rotation" : [
                -5.02429705235034e-15,
                0.7071068286895752,
                -5.0242962053173926e-15,
                0.7071068286895752
            ]
        },
        {
            "name" : "Leg_1_L",
            "translation" : [
                -0.01700013503432274,
                0.1399998664855957,
                -0.9100001454353333
            ],
            "rotation" : [
                0,
                3.552713678800501e-15,
                0,
                1
            ]
        },
        {
            "name" : "Leg_1_R",
            "translation" : [
                -0.01699989102780819,
                0.14000225067138672,
                0.9100002646446228
            ],
            "rotation" : [
                -2.117582368135751e-22,
                -5.960464477539063e-08,
                0,
                1
            ]
        },
        {
            "name" : "Skirt_1_LB",
            "translation" : [
                -1.4245710372924805,
                0.856692910194397,
                -0.9063652753829956
            ],
            "rotation" : [
                0,
                0.9630236625671387,
                0,
                0.2694169282913208
            ],
            "scale" : [
                0.9999999403953552,
                1,
                0.9999999403953552
            ]
        },
        {
            "name" : "Skirt_1_LC",
            "translation" : [
                -0.10398676246404648,
                0.8497066497802734,
                -1.7428804636001587
            ],
            "rotation" : [
                0,
                0.7071067094802856,
                0,
                0.70710688829422
            ]
        },
        {
            "name" : "Skirt_1_LF",
            "translation" : [
                1.4307548999786377,
                0.7736872434616089,
                -0.8680781722068787
            ],
            "rotation" : [
                0,
                0.24485793709754944,
                0,
                0.9695590138435364
            ]
        },
        {
            "name" : "Skirt_1_RB",
            "translation" : [
                -1.4245694875717163,
                0.856690526008606,
                0.906364917755127
            ],
            "rotation" : [
                0,
                -0.9721738696098328,
                0,
                0.23426055908203125
            ]
        },
        {
            "name" : "Skirt_1_RC",
            "translation" : [
                -0.10398625582456589,
                0.8497104644775391,
                1.7428804636001587
            ],
            "rotation" : [
                0,
                -0.70710688829422,
                -1.197885663231341e-21,
                0.7071067094802856
            ],
            "scale" : [
                1,
                0.9999999403953552,
                1
            ]
        },
        {
            "name" : "Skirt_1_RF",
            "translation" : [
                1.4307550191879272,
                0.7736872434616089,
                0.8680784106254578
            ],
            "rotation" : [
                0,
                -0.2228154093027115,
                0,
                0.974860668182373
            ]
        },
        {
            "children" : [
                7,
                8,
                9,
                10,
                11,
                12,
                13,
                14
            ],
            "name" : "Waist",
            "translation" : [
                -4.126833152550552e-13,
                4.768373287333816e-07,
                -1.1368683772161603e-13
            ],
            "rotation" : [
                -5.02429705235034e-15,
                -0.7071068286895752,
                5.0242962053173926e-15,
                0.7071068286895752
            ]
        },
        {
            "children" : [
                6,
                15
            ],
            "name" : "Skl_Root",
            "translation" : [
                0,
                4.839999675750732,
                -5.684341886080802e-14
            ]
        },
        {
            "children" : [
                16
            ],
            "name" : "Root",
            "rotation" : [
                1.0033481601112726e-07,
                0,
                0,
                1
            ]
        },
        {
            "name" : "Body__mTops",
            "skin" : 0,
            "mesh" : 0
        },
        {
            "children" : [
                18,
                17
            ],
            "name" : "Armature"
        }
    ],
    "materials" : [
        {
            "name" : "mTops.001",
            "pbrMetallicRoughness" : {}
        }
    ],
    "meshes" : [
        {
            "name" : "Body__mTops.001",
            "primitives" : [
                {
                    "indices" : 5,
                    "attributes" : {
                        "POSITION" : 0,
                        "WEIGHTS_0" : 1,
                        "JOINTS_0" : 2,
                        "TEXCOORD_0" : 3,
                        "NORMAL" : 4
                    },
                    "material" : 0
                }
            ]
        }
    ],
    "skins" : [
        {
            "joints" : [
                17,
                16,
                6,
                5,
                4,
                1,
                0,
                3,
                2,
                15,
                7,
                8,
                9,
                10,
                11,
                12,
                13,
                14
            ],
            "name" : "Armature",
            "inverseBindMatrices" : 6
        }
    ],
    "accessors" : [
        {
            "componentType" : 5126,
            "min" : [
                -1.922821044921875,
                4.456887722015381,
                -1.8318321704864502
            ],
            "type" : "VEC3",
            "max" : [
                1.922821044921875,
                8.694147109985352,
                1.7758277654647827
            ],
            "bufferView" : 0,
            "count" : 247
        },
        {
            "componentType" : 5126,
            "bufferView" : 1,
            "count" : 247,
            "type" : "VEC4"
        },
        {
            "componentType" : 5123,
            "bufferView" : 2,
            "count" : 247,
            "type" : "VEC4"
        },
        {
            "componentType" : 5126,
            "bufferView" : 3,
            "count" : 247,
            "type" : "VEC2"
        },
        {
            "componentType" : 5126,
            "bufferView" : 4,
            "count" : 247,
            "type" : "VEC3"
        },
        {
            "componentType" : 5123,
            "bufferView" : 5,
            "count" : 1176,
            "type" : "SCALAR"
        },
        {
            "componentType" : 5126,
            "bufferView" : 6,
            "count" : 18,
            "type" : "MAT4"
        }
    ],
    "bufferViews" : [
        {
            "buffer" : 0,
            "byteOffset" : 0,
            "byteLength" : 2964
        },
        {
            "buffer" : 0,
            "byteOffset" : 2964,
            "byteLength" : 3952
        },
        {
            "buffer" : 0,
            "byteOffset" : 6916,
            "byteLength" : 1976
        },
        {
            "buffer" : 0,
            "byteOffset" : 8892,
            "byteLength" : 1976
        },
        {
            "buffer" : 0,
            "byteOffset" : 10868,
            "byteLength" : 2964
        },
        {
            "buffer" : 0,
            "byteOffset" : 13832,
            "byteLength" : 2352
        },
        {
            "buffer" : 0,
            "byteOffset" : 16184,
            "byteLength" : 1152
        }
    ],
    "buffers" : [
        {
            "byteLength" : 17336,
            "uri" : "data:application/octet-stream;base64,"
        }
    ]
}
