<svg id="Layer_1" data-name="Layer 1" xmlns="http://www.w3.org/2000/svg" viewBox="0 0 1000 926.96361">
   <defs>
      <style>
         .cls-1 {
            fill: #fe69ad;
         }
      </style>
   </defs>
   <path class="cls-1"
      d="M766.86781,534.84762c-25.30773,29.387-56.32078,53.63755-124.84323,44.11607A409.42779,409.42779,0,0,0,485.92785,438.35221c-16.60043-67.11306,4.28845-100.47376,30.86886-128.712A539.57017,539.57017,0,0,1,766.86781,534.84762Zm222.484-435.71844A109.8404,109.8404,0,0,0,842.94243,47.22749c-21.66263,10.3235-41.452,22.33332-61.02637,34.53756-19.44537,12.31829-38.15415,25.30025-56.41238,38.68978a1321.95006,1321.95006,0,0,0-104.00879,85.31753q-32.169,29.20242-62.45421,60.10142A597.63269,597.63269,0,0,1,805.92634,488.31707q27.51144-33.47894,53.31739-68.4937a1322.32827,1322.32827,0,0,0,73.9686-112.36393c11.40409-19.55894,22.35856-39.52358,32.576-60.15,10.08841-20.74422,19.96229-41.681,27.96292-64.3041A110.21656,110.21656,0,0,0,989.35176,99.12918ZM501.97107,576.06034c-26.19829-143.52979-264.67562-173.22939-354.53543-10.556C85.15568,678.4056,90.76508,758.27413,0,845.00754,178.32576,950.03585,321.59593,975.91476,427.30363,958.47841c-33.52393-4.37214-69.09112-28.08045-80.54081-59.38106-16.895-45.69676,9.31838-97.403,58.487-115.538,49.00774-18.02449,102.50383,4.38881,119.23677,50.20283,12.06176,32.67972,1.35031,78.28236-23.21562,103.2185C682.24233,858.6056,692.35186,626.40951,501.97107,576.06034Z"
      transform="translate(0 -36.5182)" />
</svg>