<svg id="Layer_1" data-name="Layer 1" xmlns="http://www.w3.org/2000/svg" viewBox="0 0 941.37287 1000"><defs><style>.cls-1{opacity:0.3;}.cls-2{fill:#fe69ad;}.cls-3{fill:#fff;}.cls-4{fill:none;}</style></defs><g id="flat_shadow" data-name="flat shadow" class="cls-1"><path class="cls-2" d="M405.89014,85.52,40.6499,450.76C82.64014,246.81006,235.71,127.74,405.89014,85.52Z" transform="translate(-29.31357 0)"/><path class="cls-2" d="M673.8501,81.25,45.12988,709.97c-8.40991-35.03-13.73974-73.78-15.32983-116.52l525.5-525.49A570.37348,570.37348,0,0,1,673.8501,81.25Z" transform="translate(-29.31357 0)"/><path class="cls-2" d="M854.3501,164.45,133.41992,885.37012a364.45756,364.45756,0,0,1-53.27-78.57007l692.53-692.53A393.43715,393.43715,0,0,1,854.3501,164.45Z" transform="translate(-29.31357 0)"/><path class="cls-2" d="M959.74,322.75,295.77,986.72a347.59131,347.59131,0,0,1-91.06006-40.79l713.3501-713.34985A292.84742,292.84742,0,0,1,959.74,322.75Z" transform="translate(-29.31357 0)"/><path class="cls-2" d="M969.28,445.05005c-11.98,152.26-98.92993,203.66992-195.86011,238.25C714.24,704.40991,678.1499,758.23,658.30005,827.42993c-28.46,99.15015-108.01,164.51-243.27,171.87012Z" transform="translate(-29.31357 0)"/></g><path class="cls-3" d="M405.87988,17.58008l-365.23,365.23C82.64014,178.87012,235.7,59.80005,405.87988,17.58008Z" transform="translate(-29.31357 0)"/><path class="cls-3" d="M673.8501,13.31006l-628.73,628.72C36.72,607,31.39014,568.25,29.80005,525.51L555.30005.02A570.35725,570.35725,0,0,1,673.8501,13.31006Z" transform="translate(-29.31357 0)"/><path class="cls-3" d="M854.3501,96.5,133.41992,817.42993a364.44522,364.44522,0,0,1-53.27-78.57007l692.52-692.52978A393.05463,393.05463,0,0,1,854.3501,96.5Z" transform="translate(-29.31357 0)"/><path class="cls-3" d="M959.74,254.80005v.01L295.77,918.78A347.3012,347.3012,0,0,1,204.71,877.98l713.3501-713.33984A292.8974,292.8974,0,0,1,959.74,254.80005Z" transform="translate(-29.31357 0)"/><path class="cls-3" d="M969.28,377.1001C957.29,529.35986,870.3501,580.78,773.41992,615.3501,714.24,636.47,678.1499,690.29,658.30005,759.49c-28.46,99.13989-108.01,164.51-243.27,171.86987Z" transform="translate(-29.31357 0)"/><rect class="cls-4" width="941.37287" height="1000"/></svg>