{
    "asset" : {
        "generator" : "Khronos glTF Blender I/O v1.2.20",
        "version" : "2.0"
    },
    "scene" : 0,
    "scenes" : [
        {
            "nodes" : [
                23
            ],
            "name" : "Scene"
        }
    ],
    "nodes" : [
        {
            "translation" : [
                0.8735308051109314,
                -7.500948129290919e-08,
                4.7082323817448923e-08
            ],
            "name" : "Arm_2_L",
            "rotation" : [
                1.9721717592346977e-09,
                7.450580596923828e-09,
                1.469422334421042e-17,
                1
            ]
        },
        {
            "translation" : [
                0.9099370837211609,
                -7.606135454807372e-08,
                3.878139409607684e-08
            ],
            "children" : [
                0
            ],
            "name" : "Arm_1_L_Sub",
            "rotation" : [
                -1.7531043283725012e-09,
                7.1054265105680546e-15,
                4.235164736271502e-22,
                1
            ]
        },
        {
            "translation" : [
                0.6800004839897156,
                -1.0251995945509407e-06,
                -3.9469284729420906e-08
            ],
            "children" : [
                1
            ],
            "name" : "Arm_1_L",
            "rotation" : [
                7.56010365421389e-09,
                2.23517560016262e-08,
                1.6898254358164088e-16,
                1
            ]
        },
        {
            "name" : "Clavicle_L",
            "children" : [
                2
            ],
            "scale" : [
                1,
                0.9999999403953552,
                1
            ],
            "translation" : [
                0.30000004172325134,
                0.7400006651878357,
                0.43000027537345886
            ],
            "rotation" : [
                -3.8182604568865906e-21,
                -0.7071068286895752,
                -8.422618660124257e-23,
                0.7071067094802856
            ]
        },
        {
            "translation" : [
                -0.8735305070877075,
                8.786648209024861e-07,
                -4.4036460167262703e-07
            ],
            "name" : "Arm_2_R",
            "rotation" : [
                1.0952661000374064e-10,
                -7.158299044205293e-22,
                1.6940658945086007e-21,
                1
            ]
        },
        {
            "translation" : [
                -0.9099403619766235,
                -7.494377740613345e-08,
                -5.068283712716948e-07
            ],
            "children" : [
                4
            ],
            "name" : "Arm_1_R_Sub",
            "rotation" : [
                1.0955147899949225e-10,
                -2.842170943040401e-14,
                8.470329472543003e-22,
                1
            ]
        },
        {
            "translation" : [
                -0.6800003051757812,
                -1.0251995945509407e-06,
                -2.9100118581482093e-07
            ],
            "children" : [
                5
            ],
            "name" : "Arm_1_R",
            "rotation" : [
                5.697462057696612e-09,
                -1.3174158652873302e-08,
                -7.505897758799257e-17,
                1
            ]
        },
        {
            "translation" : [
                0.3000001311302185,
                0.7400044798851013,
                -0.43000003695487976
            ],
            "children" : [
                6
            ],
            "name" : "Clavicle_R",
            "rotation" : [
                5.287540019933906e-21,
                -0.7071065902709961,
                2.3115441048759316e-21,
                0.7071069478988647
            ]
        },
        {
            "translation" : [
                7.450567807154584e-08,
                1.2499990463256836,
                2.6077017878378683e-07
            ],
            "children" : [
                3,
                7
            ],
            "name" : "Spine_3",
            "rotation" : [
                4.235164736271502e-22,
                -7.888895818926384e-22,
                3.552713678800501e-14,
                1
            ]
        },
        {
            "translation" : [
                7.748590036271708e-08,
                1.3000001907348633,
                2.712010598315828e-07
            ],
            "children" : [
                8
            ],
            "name" : "Spine_2",
            "rotation" : [
                -2.08983051946509e-14,
                -3.5527119847346064e-15,
                -2.842170943040401e-14,
                1
            ]
        },
        {
            "translation" : [
                4.126833152550552e-13,
                4.768373287333816e-07,
                -1.1368683772161603e-13
            ],
            "children" : [
                9
            ],
            "name" : "Spine_1",
            "rotation" : [
                -5.02429705235034e-15,
                0.7071068286895752,
                -5.0242962053173926e-15,
                0.7071068286895752
            ]
        },
        {
            "translation" : [
                -0.01700013503432274,
                0.1399998664855957,
                -0.9100001454353333
            ],
            "name" : "Leg_1_L",
            "rotation" : [
                0,
                3.552713678800501e-15,
                0,
                1
            ]
        },
        {
            "translation" : [
                -0.01699989102780819,
                0.14000225067138672,
                0.9100002646446228
            ],
            "name" : "Leg_1_R",
            "rotation" : [
                -2.117582368135751e-22,
                -5.960464477539063e-08,
                0,
                1
            ]
        },
        {
            "name" : "Skirt_1_LB",
            "scale" : [
                0.9999999403953552,
                1,
                0.9999999403953552
            ],
            "translation" : [
                -1.4245710372924805,
                0.856692910194397,
                -0.9063652753829956
            ],
            "rotation" : [
                0,
                0.9630236625671387,
                0,
                0.2694169282913208
            ]
        },
        {
            "translation" : [
                -0.10398676246404648,
                0.8497066497802734,
                -1.7428804636001587
            ],
            "name" : "Skirt_1_LC",
            "rotation" : [
                0,
                0.7071067094802856,
                0,
                0.70710688829422
            ]
        },
        {
            "translation" : [
                1.4307548999786377,
                0.7736872434616089,
                -0.8680781722068787
            ],
            "name" : "Skirt_1_LF",
            "rotation" : [
                0,
                0.24485793709754944,
                0,
                0.9695590138435364
            ]
        },
        {
            "translation" : [
                -1.4245694875717163,
                0.856690526008606,
                0.906364917755127
            ],
            "name" : "Skirt_1_RB",
            "rotation" : [
                0,
                -0.9721738696098328,
                0,
                0.23426055908203125
            ]
        },
        {
            "name" : "Skirt_1_RC",
            "scale" : [
                1,
                0.9999999403953552,
                1
            ],
            "translation" : [
                -0.10398625582456589,
                0.8497104644775391,
                1.7428804636001587
            ],
            "rotation" : [
                0,
                -0.70710688829422,
                -1.197885663231341e-21,
                0.7071067094802856
            ]
        },
        {
            "translation" : [
                1.4307550191879272,
                0.7736872434616089,
                0.8680784106254578
            ],
            "name" : "Skirt_1_RF",
            "rotation" : [
                0,
                -0.2228154093027115,
                0,
                0.974860668182373
            ]
        },
        {
            "translation" : [
                -4.126833152550552e-13,
                4.768373287333816e-07,
                -1.1368683772161603e-13
            ],
            "children" : [
                11,
                12,
                13,
                14,
                15,
                16,
                17,
                18
            ],
            "name" : "Waist",
            "rotation" : [
                -5.02429705235034e-15,
                -0.7071068286895752,
                5.0242962053173926e-15,
                0.7071068286895752
            ]
        },
        {
            "children" : [
                10,
                19
            ],
            "translation" : [
                0,
                4.839999675750732,
                -5.684341886080802e-14
            ],
            "name" : "Skl_Root"
        },
        {
            "children" : [
                20
            ],
            "name" : "Root",
            "rotation" : [
                1.0033481601112726e-07,
                0,
                0,
                1
            ]
        },
        {
            "skin" : 0,
            "mesh" : 0,
            "name" : "Body__mTops"
        },
        {
            "children" : [
                22,
                21
            ],
            "name" : "Armature"
        }
    ],
    "materials" : [
        {
            "pbrMetallicRoughness" : {
                "baseColorTexture" : {
                    "index" : 0,
                    "texCoord" : 0
                }
            },
            "name" : "mTops.005"
        }
    ],
    "meshes" : [
        {
            "primitives" : [
                {
                    "indices" : 5,
                    "material" : 0,
                    "attributes" : {
                        "JOINTS_0" : 0,
                        "NORMAL" : 1,
                        "POSITION" : 2,
                        "TEXCOORD_0" : 3,
                        "WEIGHTS_0" : 4
                    }
                }
            ],
            "name" : "Body__mTops.011"
        }
    ],
    "textures" : [
        {
            "sampler" : 0,
            "source" : 0
        }
    ],
    "images" : [
        {
            "bufferView" : 6,
            "mimeType" : "image/png",
            "name" : "Dress_LS_Test.png"
        }
    ],
    "skins" : [
        {
            "inverseBindMatrices" : 6,
            "joints" : [
                21,
                20,
                10,
                9,
                8,
                3,
                2,
                1,
                0,
                7,
                6,
                5,
                4,
                19,
                11,
                12,
                13,
                14,
                15,
                16,
                17,
                18
            ],
            "name" : "Armature"
        }
    ],
    "accessors" : [
        {
            "bufferView" : 0,
            "count" : 503,
            "componentType" : 5123,
            "type" : "VEC4"
        },
        {
            "bufferView" : 1,
            "count" : 503,
            "componentType" : 5126,
            "type" : "VEC3"
        },
        {
            "min" : [
                -4.542078971862793,
                4.327488422393799,
                -1.8057752847671509
            ],
            "max" : [
                4.542078971862793,
                8.89898681640625,
                1.6648006439208984
            ],
            "type" : "VEC3",
            "bufferView" : 2,
            "count" : 503,
            "componentType" : 5126
        },
        {
            "bufferView" : 3,
            "count" : 503,
            "componentType" : 5126,
            "type" : "VEC2"
        },
        {
            "bufferView" : 4,
            "count" : 503,
            "componentType" : 5126,
            "type" : "VEC4"
        },
        {
            "bufferView" : 5,
            "count" : 2472,
            "componentType" : 5123,
            "type" : "SCALAR"
        },
        {
            "bufferView" : 7,
            "count" : 22,
            "componentType" : 5126,
            "type" : "MAT4"
        }
    ],
    "bufferViews" : [
        {
            "byteOffset" : 0,
            "byteLength" : 4024,
            "buffer" : 0
        },
        {
            "byteOffset" : 4024,
            "byteLength" : 6036,
            "buffer" : 0
        },
        {
            "byteOffset" : 10060,
            "byteLength" : 6036,
            "buffer" : 0
        },
        {
            "byteOffset" : 16096,
            "byteLength" : 4024,
            "buffer" : 0
        },
        {
            "byteOffset" : 20120,
            "byteLength" : 8048,
            "buffer" : 0
        },
        {
            "byteOffset" : 28168,
            "byteLength" : 4944,
            "buffer" : 0
        },
        {
            "byteOffset" : 33112,
            "byteLength" : 119,
            "buffer" : 0
        },
        {
            "byteOffset" : 33232,
            "byteLength" : 1408,
            "buffer" : 0
        }
    ],
    "samplers" : [
        {
            "minFilter" : 9986,
            "magFilter" : 9729,
            "wrapT" : 10497,
            "wrapS" : 10497
        }
    ],
    "buffers" : [
        {
            "uri" : "data:application/octet-stream;base64,",
            "byteLength" : 34640
        }
    ]
}
