{
    "asset": {
        "generator": "COLLADA2GLTF",
        "version": "2.0"
    },
    "scenes": [
        {
            "nodes": [
                0
            ]
        }
    ],
    "scene": 0,
    "nodes": [
        {
            "children": [
                2,
                1
            ],
            "name": "Y_UP"
        },
        {
            "mesh": 0,
            "skin": 0,
            "name": "mesh_0_"
        },
        {
            "children": [
                3
            ],
            "name": "root"
        },
        {
            "children": [
                11,
                4
            ],
            "matrix": [
                -0.000003000000106112566,
                1.0,
                0.0,
                0.0,
                -1.0,
                -0.000003000000106112566,
                0.0,
                0.0,
                0.0,
                0.0,
                1.0,
                0.0,
                0.0,
                14.0,
                0.0,
                1.0
            ],
            "name": "base"
        },
        {
            "children": [
                8,
                5
            ],
            "matrix": [
                -1.0,
                -0.0000019999999949504856,
                0.0,
                0.0,
                0.0000019999999949504856,
                -1.0,
                0.0,
                0.0,
                0.0,
                0.0,
                1.0,
                0.0,
                0.0,
                0.0,
                0.0,
                1.0
            ],
            "name": "waist"
        },
        {
            "children": [
                6
            ],
            "matrix": [
                1.0,
                0.0,
                0.0,
                0.0,
                0.0,
                1.0,
                0.0,
                0.0,
                0.0,
                0.0,
                1.0,
                0.0,
                2.0,
                -2.799999952316284,
                0.0,
                1.0
            ],
            "name": "Rfoot1"
        },
        {
            "children": [
                7
            ],
            "matrix": [
                1.0,
                0.0,
                0.0,
                0.0,
                0.0,
                1.0,
                0.0,
                0.0,
                0.0,
                0.0,
                1.0,
                0.0,
                5.099999904632568,
                -0.0,
                0.0,
                1.0
            ],
            "name": "Rfoot2"
        },
        {
            "matrix": [
                1.0,
                0.0,
                0.0,
                0.0,
                0.0,
                1.0,
                0.0,
                0.0,
                0.0,
                0.0,
                1.0,
                0.0,
                5.699999809265137,
                0.0,
                0.0,
                1.0
            ],
            "name": "Rfoot3"
        },
        {
            "children": [
                9
            ],
            "matrix": [
                0.9997860193252564,
                -0.0009200000204145908,
                0.02065500058233738,
                0.0,
                0.0010809999657794834,
                0.9999690055847168,
                -0.00776199996471405,
                0.0,
                -0.020647000521421434,
                0.007782999891787767,
                0.9997569918632508,
                0.0,
                2.0,
                2.799999952316284,
                0.0,
                1.0
            ],
            "name": "Lfoot1"
        },
        {
            "children": [
                10
            ],
            "matrix": [
                1.0,
                0.0,
                0.0,
                0.0,
                0.0,
                1.0,
                0.0,
                0.0,
                0.0,
                0.0,
                1.0,
                0.0,
                5.099999904632568,
                0.0,
                0.0,
                1.0
            ],
            "name": "Lfoot2"
        },
        {
            "matrix": [
                1.0,
                0.0,
                0.0,
                0.0,
                0.0,
                1.0,
                0.0,
                0.0,
                0.0,
                0.0,
                1.0,
                0.0,
                5.699999809265137,
                0.0,
                0.0,
                1.0
            ],
            "name": "Lfoot3"
        },
        {
            "children": [
                17,
                14,
                12
            ],
            "matrix": [
                1.0,
                0.0,
                0.0,
                0.0,
                0.0,
                1.0,
                0.0,
                0.0,
                0.0,
                0.0,
                1.0,
                0.0,
                3.795880079269409,
                0.0,
                0.0,
                1.0
            ],
            "name": "chest"
        },
        {
            "children": [
                13
            ],
            "matrix": [
                0.9999470114707948,
                -0.003902999917045236,
                0.00953999999910593,
                0.0,
                0.00418000016361475,
                0.9995660185813904,
                -0.02917199954390526,
                0.0,
                -0.009421999566257,
                0.02920999936759472,
                0.9995290040969848,
                0.0,
                8.604129791259766,
                0.0,
                0.0,
                1.0
            ],
            "name": "head"
        },
        {
            "matrix": [
                -0.000003000000106112566,
                -1.0,
                0.0,
                0.0,
                1.0,
                -0.000003000000106112566,
                0.0,
                0.0,
                0.0,
                0.0,
                1.0,
                0.0,
                10.996000289916993,
                0.0,
                0.0,
                1.0
            ],
            "name": "feel"
        },
        {
            "children": [
                15
            ],
            "matrix": [
                -0.000003000000106112566,
                1.0,
                0.0,
                0.0,
                -1.0,
                -0.000003000000106112566,
                0.0,
                0.0,
                0.0,
                0.0,
                1.0,
                0.0,
                7.604129791259766,
                3.5999999046325685,
                0.0,
                1.0
            ],
            "name": "Rarm1"
        },
        {
            "children": [
                16
            ],
            "matrix": [
                1.0,
                0.0,
                0.0,
                0.0,
                0.0,
                1.0,
                0.0,
                0.0,
                0.0,
                0.0,
                1.0,
                0.0,
                6.75,
                9.999999974752428e-7,
                0.0,
                1.0
            ],
            "name": "Rarm2"
        },
        {
            "matrix": [
                1.0,
                0.0,
                0.0,
                0.0,
                0.0,
                1.0,
                0.0,
                0.0,
                0.0,
                0.0,
                1.0,
                0.0,
                6.75,
                0.0,
                0.0,
                1.0
            ],
            "name": "Rhand"
        },
        {
            "children": [
                18
            ],
            "matrix": [
                -0.000003000000106112566,
                -1.0,
                0.0,
                0.0,
                1.0,
                -0.000003000000106112566,
                0.0,
                0.0,
                0.0,
                0.0,
                1.0,
                0.0,
                7.604129791259766,
                -3.5999999046325685,
                0.0,
                1.0
            ],
            "name": "Larm1"
        },
        {
            "children": [
                19
            ],
            "matrix": [
                1.0,
                0.0,
                0.0,
                0.0,
                0.0,
                1.0,
                0.0,
                0.0,
                0.0,
                0.0,
                1.0,
                0.0,
                6.75,
                0.0,
                0.0,
                1.0
            ],
            "name": "Larm2"
        },
        {
            "matrix": [
                1.0,
                0.0,
                0.0,
                0.0,
                0.0,
                1.0,
                0.0,
                0.0,
                0.0,
                0.0,
                1.0,
                0.0,
                6.75,
                0.0,
                0.0,
                1.0
            ],
            "name": "Lhand"
        }
    ],
    "meshes": [
        {
            "primitives": [
                {
                    "attributes": {
                        "COLOR_0": 1,
                        "JOINTS_0": 2,
                        "NORMAL": 3,
                        "POSITION": 4,
                        "TEXCOORD_0": 5,
                        "WEIGHTS_0": 6
                    },
                    "indices": 0,
                    "mode": 4
                }
            ],
            "name": "mesh_0_"
        }
    ],
    "skins": [
        {
            "inverseBindMatrices": 7,
            "skeleton": 2,
            "joints": [
                19,
                18,
                17,
                16,
                15,
                14,
                13,
                12,
                11,
                10,
                9,
                8,
                7,
                6,
                5,
                4,
                3,
                2
            ],
            "name": "Controller"
        }
    ],
    "accessors": [
        {
            "bufferView": 0,
            "byteOffset": 0,
            "componentType": 5123,
            "count": 1026,
            "max": [
                230
            ],
            "min": [
                0
            ],
            "type": "SCALAR"
        },
        {
            "bufferView": 1,
            "byteOffset": 0,
            "componentType": 5126,
            "count": 231,
            "max": [
                1.0,
                1.0,
                1.0
            ],
            "min": [
                1.0,
                1.0,
                1.0
            ],
            "type": "VEC3"
        },
        {
            "bufferView": 2,
            "byteOffset": 0,
            "componentType": 5123,
            "count": 231,
            "max": [
                16,
                14,
                0,
                0
            ],
            "min": [
                1,
                0,
                0,
                0
            ],
            "type": "VEC4"
        },
        {
            "bufferView": 1,
            "byteOffset": 2772,
            "componentType": 5126,
            "count": 231,
            "max": [
                0.999504029750824,
                0.9994419813156128,
                0.996638000011444
            ],
            "min": [
                -0.999504029750824,
                -0.9998760223388672,
                -0.9895219802856444
            ],
            "type": "VEC3"
        },
        {
            "bufferView": 1,
            "byteOffset": 5544,
            "componentType": 5126,
            "count": 231,
            "max": [
                19.5,
                30.200000762939458,
                8.190030097961426
            ],
            "min": [
                -19.5,
                9.965129852294922,
                -7.9731597900390629
            ],
            "type": "VEC3"
        },
        {
            "bufferView": 2,
            "byteOffset": 1848,
            "componentType": 5126,
            "count": 231,
            "max": [
                1.0000300407409669,
                0.9921879768371582
            ],
            "min": [
                0.0,
                -0.03905999660491944
            ],
            "type": "VEC2"
        },
        {
            "bufferView": 3,
            "byteOffset": 0,
            "componentType": 5126,
            "count": 231,
            "max": [
                1.0,
                0.5,
                0.0,
                0.0
            ],
            "min": [
                0.5,
                0.0,
                0.0,
                0.0
            ],
            "type": "VEC4"
        },
        {
            "bufferView": 4,
            "byteOffset": 0,
            "componentType": 5126,
            "count": 18,
            "max": [
                1.0,
                1.0,
                0.007782999891787767,
                0.0,
                1.0,
                1.0,
                0.020647000521421434,
                0.0,
                0.02917199954390526,
                0.00953999999910593,
                1.0,
                0.0,
                14.0,
                25.399999618530278,
                0.248758003115654,
                1.0
            ],
            "min": [
                -1.0,
                -1.0,
                -0.02920999936759472,
                0.0,
                -1.0,
                -1.0,
                -0.009421999566257,
                0.0,
                0.0,
                -0.02917199954390526,
                0.9995290040969848,
                0.0,
                -26.39859962463379,
                -37.39459991455078,
                -0.2695640027523041,
                1.0
            ],
            "type": "MAT4"
        }
    ],
    "bufferViews": [
        {
            "buffer": 0,
            "byteOffset": 16860,
            "byteLength": 2052,
            "target": 34963
        },
        {
            "buffer": 0,
            "byteOffset": 4848,
            "byteLength": 8316,
            "byteStride": 12,
            "target": 34962
        },
        {
            "buffer": 0,
            "byteOffset": 13164,
            "byteLength": 3696,
            "byteStride": 8,
            "target": 34962
        },
        {
            "buffer": 0,
            "byteOffset": 1152,
            "byteLength": 3696,
            "byteStride": 16,
            "target": 34962
        },
        {
            "buffer": 0,
            "byteOffset": 0,
            "byteLength": 1152
        }
    ],
    "buffers": [
        {
            "byteLength": 18912,
            "uri": "data:application/octet-stream;base64,"
        }
    ]
}
