<?xml version="1.0" encoding="UTF-8" standalone="no"?>
<svg
   xmlns:dc="http://purl.org/dc/elements/1.1/"
   xmlns:cc="http://creativecommons.org/ns#"
   xmlns:rdf="http://www.w3.org/1999/02/22-rdf-syntax-ns#"
   xmlns:svg="http://www.w3.org/2000/svg"
   xmlns="http://www.w3.org/2000/svg"
   xmlns:sodipodi="http://sodipodi.sourceforge.net/DTD/sodipodi-0.dtd"
   xmlns:inkscape="http://www.inkscape.org/namespaces/inkscape"
   width="650"
   height="650"
   version="1.1"
   viewBox="0 0 650 649.99998"
   id="svg4"
   sodipodi:docname="ac_easel.svg"
   inkscape:version="0.92.4 5da689c313, 2019-01-14">
  <metadata
     id="metadata10">
    <rdf:RDF>
      <cc:Work
         rdf:about="">
        <dc:format>image/svg+xml</dc:format>
        <dc:type
           rdf:resource="http://purl.org/dc/dcmitype/StillImage" />
        <dc:title></dc:title>
      </cc:Work>
    </rdf:RDF>
  </metadata>
  <defs
     id="defs8" />
  <sodipodi:namedview
     pagecolor="#ffffff"
     bordercolor="#666666"
     borderopacity="1"
     objecttolerance="10"
     gridtolerance="10"
     guidetolerance="10"
     inkscape:pageopacity="0"
     inkscape:pageshadow="2"
     inkscape:window-width="1615"
     inkscape:window-height="1042"
     id="namedview6"
     showgrid="false"
     inkscape:zoom="0.61904534"
     inkscape:cx="273.99741"
     inkscape:cy="420.45338"
     inkscape:window-x="0"
     inkscape:window-y="18"
     inkscape:window-maximized="0"
     inkscape:current-layer="svg4" />
  <path
     style="opacity:1;fill:#000000;fill-opacity:0.498155;stroke:none;stroke-width:2.20731926;stroke-linecap:round;stroke-linejoin:round;stroke-miterlimit:4;stroke-dasharray:none;stroke-dashoffset:0;stroke-opacity:1"
     d="M 610.19724,25.459046 556.8324,103.65437 399.80112,95.461008 173.84297,426.55866 160.28588,446.4239 223.74173,449.73444 84.051,620.9864 l 22.43343,6.20117 74.43855,-91.25586 78.02246,4.2168 -0.37772,0.55273 27.66275,1.49414 0.37772,-0.55273 54.06501,2.92187 -12.62038,33.85156 -36.29865,62.8711 h 26.74414 l 32.03054,-55.47852 2.21697,-0.40625 3.61404,-9.69336 66.72455,-115.57031 58.61498,3.05859 19.58287,-28.69531 L 721.21771,112.23249 584.5292,105.09968 637.85886,26.95514 Z M 250.1108,451.1114 l 67.20328,3.50781 -40.11849,58.78711 -74.60893,-4.0332 z m 94.90008,4.95312 28.10823,1.4668 -22.31314,59.85156 -45.94763,-2.48242 z"
     id="rect4533-3"
     inkscape:connector-curvature="0" />
  <rect
     style="opacity:1;fill:#784e17;fill-opacity:1;stroke:#000000;stroke-width:2.20883346;stroke-linecap:round;stroke-linejoin:round;stroke-miterlimit:4;stroke-dasharray:none;stroke-dashoffset:0;stroke-opacity:1"
     id="rect4533"
     width="28.56461"
     height="518.07928"
     x="257.97986"
     y="12.022953"
     transform="matrix(0.99862953,0.05233596,-0.10452846,0.9945219,0,0)" />
  <rect
     style="opacity:1;fill:#784e17;fill-opacity:1;stroke:#000000;stroke-width:2.2073195;stroke-linecap:round;stroke-linejoin:round;stroke-miterlimit:4;stroke-dasharray:none;stroke-dashoffset:0;stroke-opacity:1"
     id="rect4537-3-5"
     width="26.742624"
     height="411.8364"
     x="171.61102"
     y="226.25786"
     transform="rotate(-11.559985)" />
  <rect
     style="opacity:1;fill:#784e17;fill-opacity:1;stroke:#000000;stroke-width:2.20883346;stroke-linecap:round;stroke-linejoin:round;stroke-miterlimit:4;stroke-dasharray:none;stroke-dashoffset:0;stroke-opacity:1"
     id="rect4537-3-7"
     width="26.889931"
     height="208.87872"
     x="502.65759"
     y="-370.21512"
     transform="matrix(-0.10452846,0.9945219,-0.99862953,-0.05233596,0,0)" />
  <rect
     style="opacity:1;fill:#784e17;fill-opacity:1;stroke:#000000;stroke-width:2.2073195;stroke-linecap:round;stroke-linejoin:round;stroke-miterlimit:4;stroke-dasharray:none;stroke-dashoffset:0;stroke-opacity:1"
     id="rect4537-3"
     width="26.742624"
     height="411.8364"
     x="293.47476"
     y="229.45013" />
  <rect
     style="opacity:1;fill:#784e17;fill-opacity:1;stroke:#000000;stroke-width:2.2073195;stroke-linecap:round;stroke-linejoin:round;stroke-miterlimit:4;stroke-dasharray:none;stroke-dashoffset:0;stroke-opacity:1"
     id="rect4537-3-6"
     width="26.742624"
     height="411.8364"
     x="216.01419"
     y="175.0584"
     transform="rotate(13.40652)" />
  <rect
     style="opacity:1;fill:#f0efd9;fill-opacity:1;stroke:#000000;stroke-width:2.21480918;stroke-linecap:round;stroke-linejoin:round;stroke-miterlimit:4;stroke-dasharray:none;stroke-dashoffset:0;stroke-opacity:1"
     id="rect4590"
     width="331.52249"
     height="332.92172"
     x="96.034538"
     y="91.099945"
     transform="matrix(0.99871936,0.05059294,-0.10452846,0.9945219,0,0)" />
  <rect
     style="opacity:1;fill:#784e17;fill-opacity:1;stroke:#000000;stroke-width:2.21480918;stroke-linecap:round;stroke-linejoin:round;stroke-miterlimit:4;stroke-dasharray:none;stroke-dashoffset:0;stroke-opacity:1"
     id="rect4592"
     width="331.52249"
     height="28.853214"
     x="96.034538"
     y="415.14404"
     transform="matrix(0.99871936,0.05059294,-0.10452846,0.9945219,0,0)" />
  <path
     d="M 204.89214,413.18951 C 173.0573,409.1107 134.47203,398.86827 98.68939,384.9983 c -9.56673,-3.70844 -23.29802,-9.54728 -25.1365,-10.68829 -1.10024,-0.68297 -1.0977,-0.71701 0.16312,-2.22742 4.6985,-5.63377 19.32265,-28.56761 26.27725,-41.20983 11.94392,-21.71023 18.02596,-36.16356 23.78,-56.50887 9.79576,-34.63628 16.74462,-52.44801 26.75646,-68.57895 17.82157,-28.71433 41.46285,-42.08751 73.73154,-41.70873 26.35617,0.30972 57.91742,10.40692 86.49503,27.66973 4.40713,2.6625 8.07029,4.76788 8.1407,4.67865 0.0706,-0.0892 6.20257,-15.00718 13.627,-33.15077 7.42454,-18.14359 13.70127,-33.26257 13.94794,-33.59802 0.26984,-0.36664 5.33376,3.13499 12.70489,8.78492 6.74116,5.16672 15.77759,12.08776 20.08153,15.37967 l 7.82516,5.9851 -54.14366,47.21604 1.43255,1.25763 c 10.41513,9.14264 14.66378,13.35475 21.41651,21.23065 10.91211,12.72743 17.01093,22.69839 21.69189,35.46523 6.74888,18.40653 6.91652,32.56142 0.62842,53.09698 -11.5211,37.62319 -27.93628,61.32444 -52.95569,76.45962 -2.20787,1.33559 -3.901,2.22548 -3.7626,1.97755 0.13785,-0.24796 1.71178,-2.29026 3.49585,-4.53838 8.49807,-10.70826 12.5326,-25.16224 10.65252,-38.16625 -0.86295,-5.96971 -4.59697,-15.38449 -8.01655,-20.21321 -5.36731,-7.57906 -13.55724,-13.76619 -22.42096,-16.93803 -5.1202,-1.83216 -16.77606,-3.03025 -22.11678,-2.27333 -16.12922,2.28605 -29.70777,11.22878 -38.04934,25.05837 -1.90745,3.16226 -4.13717,7.58198 -4.95531,9.82206 -2.05845,5.63598 -3.27092,17.2768 -2.39495,22.98721 2.3093,15.0393 10.70098,27.3262 23.44825,34.33166 4.00805,2.20282 9.86031,4.38835 12.04744,4.49915 0.5803,0.0293 1.02695,0.31867 0.99296,0.64284 -0.0342,0.32412 -0.30086,0.57726 -0.59289,0.56246 -0.29181,-0.0148 -3.59494,0.33498 -7.33978,0.77726 -15.98331,1.88748 -21.39731,2.05826 -40.039,1.2632 -10.05732,-0.42905 -19.60177,-0.9485 -21.20959,-1.15443 z"
     id="path2"
     inkscape:connector-curvature="0"
     style="fill:#34ab6d;stroke-width:0.59094018" />
</svg>
