<svg id="Layer_1" data-name="Layer 1" xmlns="http://www.w3.org/2000/svg" xmlns:xlink="http://www.w3.org/1999/xlink" viewBox="0 0 1000 1000"><defs><style>.cls-1{fill:#f9a7b3;}.cls-2{fill:#8a7b67;}.cls-3{fill:#ffe5e0;}.cls-4{clip-path:url(#clip-path);}.cls-5{fill:#fdbfc7;}</style><clipPath id="clip-path" transform="translate(0 0)"><path id="SVGID" class="cls-1" d="M672.58368,593.38322a78.74889,78.74889,0,0,1-78.7689,78.76837h-187.651a78.76272,78.76272,0,0,1-78.7689-78.76837V328.90612a78.76329,78.76329,0,0,1,78.7689-78.76943h187.651a78.74946,78.74946,0,0,1,78.7689,78.76943Z"/></clipPath></defs><circle class="cls-2" cx="500" cy="500" r="500"/><path class="cls-3" d="M615.01255,193.25674H384.98745a107.93,107.93,0,0,0-107.9322,107.9322V698.81106a107.93,107.93,0,0,0,107.9322,107.9322h230.0251a107.9437,107.9437,0,0,0,107.9322-107.9322V301.18894A107.9437,107.9437,0,0,0,615.01255,193.25674Z" transform="translate(0 0)"/><path class="cls-1" d="M500.00007,695.31433a43.01083,43.01083,0,1,0,43.00015,43A43.04578,43.04578,0,0,0,500.00007,695.31433Zm0,75.22843A32.21761,32.21761,0,1,1,532.207,738.31435,32.21169,32.21169,0,0,1,500.00007,770.54276Z" transform="translate(0 0)"/><path id="SVGID-2" data-name="SVGID" class="cls-1" d="M672.58368,593.38322a78.74889,78.74889,0,0,1-78.7689,78.76837h-187.651a78.76272,78.76272,0,0,1-78.7689-78.76837V328.90612a78.76329,78.76329,0,0,1,78.7689-78.76943h187.651a78.74946,78.74946,0,0,1,78.7689,78.76943Z" transform="translate(0 0)"/><g class="cls-4"><rect class="cls-5" x="372.76108" y="48.90631" width="44.16372" height="625.38239" transform="translate(247.70683 -153.18853) rotate(31.56553)"/><rect class="cls-5" x="443.62276" y="114.56583" width="101.40374" height="625.38239" transform="matrix(0.85204, 0.52347, -0.52347, 0.85204, 296.7969, -195.54969)"/></g></svg>