<svg id="Discord_App_Icon" data-name="Discord App Icon" xmlns="http://www.w3.org/2000/svg" viewBox="0 0 1000 1000"><defs><style>.cls-1{fill:#b2bdfd;}.cls-2{fill:#4d3d36;}.cls-3{fill:#8a9cf2;}.cls-4{fill:#f7f4e5;}</style></defs><rect id="App_Bubble" data-name="App Bubble" class="cls-1" width="1000" height="1000" rx="365.85"/><path id="Controller" class="cls-2" d="M765.09,311.81c-86.25-64.53-168.88-62.72-168.88-62.72l-24.53,30.35c-21.27-3.39-48.62-5.08-71.68-5.08s-50.41,1.69-71.68,5.08l-24.53-30.35s-82.63-1.81-168.88,62.72c0,0-86.86,156.22-86.86,348.63,39.68,56.52,108,88.52,184,90.48l54.21-65.44C417.77,694.4,457.67,700,500,700s82.23-5.59,113.77-14.51L668,750.92c75.94-2,144.29-34,184-90.48C852,468,765.09,311.81,765.09,311.81Z"/><g id="Shadows"><path id="TR" class="cls-3" d="M737.66,334.64a500.82,500.82,0,0,0-166-55.2l16.59-20.53C690.26,289.64,737.66,334.64,737.66,334.64Z"/><path id="TL" class="cls-3" d="M262.34,334.64a500.82,500.82,0,0,1,166-55.2l-16.59-20.53C309.74,289.64,262.34,334.64,262.34,334.64Z"/><path id="BR" class="cls-3" d="M613.77,685.48l14.06,17C706.49,680.1,737.06,631,737.06,631,697.12,658.25,647.11,675.85,613.77,685.48Z"/><path id="BL" class="cls-3" d="M262.94,631s30.57,49.07,109.23,71.42l14.06-17C352.89,675.85,302.88,658.25,262.94,631Z"/></g><g id="Joysticks_Group" data-name="Joysticks Group"><ellipse id="Right_Joystick" data-name="Right Joystick" class="cls-4" cx="607.67" cy="537.7" rx="61.52" ry="66.35"/><path id="Left_Joystick" data-name="Left Joystick" class="cls-4" d="M387.51,471.35c-34.38,0-61.52,29.56-61.52,66.35s27.74,66.35,61.52,66.35c34.38,0,61.52-29.56,61.52-66.35C449.64,500.91,421.89,471.35,387.51,471.35Z"/></g></svg>