{
    "asset" : {
        "version" : "2.0",
        "generator" : "Khronos glTF Blender I/O v1.2.20"
    },
    "scene" : 0,
    "scenes" : [
        {
            "name" : "Scene",
            "nodes" : [
                3
            ]
        }
    ],
    "nodes" : [
        {
            "name" : "Root",
            "rotation" : [
                1.0033481601112726e-07,
                0,
                0,
                1
            ]
        },
        {
            "name" : "Body__mCap",
            "mesh" : 0,
            "skin" : 0
        },
        {
            "name" : "pCone1__mCapAlb",
            "mesh" : 1,
            "skin" : 0
        },
        {
            "name" : "Armature",
            "children" : [
                1,
                2,
                0
            ]
        }
    ],
    "materials" : [
        {
            "name" : "mCap",
            "pbrMetallicRoughness" : {}
        },
        {
            "name" : "mCapAlb",
            "pbrMetallicRoughness" : {
                "baseColorTexture" : {
                    "texCoord" : 0,
                    "index" : 0
                }
            }
        }
    ],
    "meshes" : [
        {
            "name" : "Body__mCap",
            "primitives" : [
                {
                    "attributes" : {
                        "TEXCOORD_0" : 0,
                        "NORMAL" : 1,
                        "JOINTS_0" : 2,
                        "POSITION" : 3,
                        "WEIGHTS_0" : 4
                    },
                    "material" : 0,
                    "indices" : 5
                }
            ]
        },
        {
            "name" : "pCone1__mCapAlb",
            "primitives" : [
                {
                    "attributes" : {
                        "TEXCOORD_0" : 7,
                        "NORMAL" : 8,
                        "JOINTS_0" : 9,
                        "POSITION" : 10,
                        "WEIGHTS_0" : 11
                    },
                    "material" : 1,
                    "indices" : 12
                }
            ]
        }
    ],
    "textures" : [
        {
            "source" : 0,
            "sampler" : 0
        }
    ],
    "images" : [
        {
            "name" : "mCapAlb_Alb.png",
            "bufferView" : 13,
            "mimeType" : "image/png"
        }
    ],
    "skins" : [
        {
            "name" : "Armature",
            "joints" : [
                0
            ],
            "inverseBindMatrices" : 6
        }
    ],
    "accessors" : [
        {
            "count" : 218,
            "componentType" : 5126,
            "bufferView" : 0,
            "type" : "VEC2"
        },
        {
            "count" : 218,
            "componentType" : 5126,
            "bufferView" : 1,
            "type" : "VEC3"
        },
        {
            "count" : 218,
            "componentType" : 5123,
            "bufferView" : 2,
            "type" : "VEC4"
        },
        {
            "min" : [
                -3.7927420139312744,
                -0.0005651725805364549,
                -4.206789970397949
            ],
            "bufferView" : 3,
            "max" : [
                3.7927420139312744,
                3.815864086151123,
                3.8960750102996826
            ],
            "type" : "VEC3",
            "count" : 218,
            "componentType" : 5126
        },
        {
            "count" : 218,
            "componentType" : 5126,
            "bufferView" : 4,
            "type" : "VEC4"
        },
        {
            "count" : 1092,
            "componentType" : 5123,
            "bufferView" : 5,
            "type" : "SCALAR"
        },
        {
            "count" : 1,
            "componentType" : 5126,
            "bufferView" : 6,
            "type" : "MAT4"
        },
        {
            "count" : 194,
            "componentType" : 5126,
            "bufferView" : 7,
            "type" : "VEC2"
        },
        {
            "count" : 194,
            "componentType" : 5126,
            "bufferView" : 8,
            "type" : "VEC3"
        },
        {
            "count" : 194,
            "componentType" : 5123,
            "bufferView" : 9,
            "type" : "VEC4"
        },
        {
            "min" : [
                -5.214635848999023,
                0.03987673670053482,
                -1.4260567426681519
            ],
            "bufferView" : 10,
            "max" : [
                5.214635848999023,
                3.706907033920288,
                1.0955212116241455
            ],
            "type" : "VEC3",
            "count" : 194,
            "componentType" : 5126
        },
        {
            "count" : 194,
            "componentType" : 5126,
            "bufferView" : 11,
            "type" : "VEC4"
        },
        {
            "count" : 1080,
            "componentType" : 5123,
            "bufferView" : 12,
            "type" : "SCALAR"
        }
    ],
    "bufferViews" : [
        {
            "byteOffset" : 0,
            "buffer" : 0,
            "byteLength" : 1744
        },
        {
            "byteOffset" : 1744,
            "buffer" : 0,
            "byteLength" : 2616
        },
        {
            "byteOffset" : 4360,
            "buffer" : 0,
            "byteLength" : 1744
        },
        {
            "byteOffset" : 6104,
            "buffer" : 0,
            "byteLength" : 2616
        },
        {
            "byteOffset" : 8720,
            "buffer" : 0,
            "byteLength" : 3488
        },
        {
            "byteOffset" : 12208,
            "buffer" : 0,
            "byteLength" : 2184
        },
        {
            "byteOffset" : 14392,
            "buffer" : 0,
            "byteLength" : 64
        },
        {
            "byteOffset" : 14456,
            "buffer" : 0,
            "byteLength" : 1552
        },
        {
            "byteOffset" : 16008,
            "buffer" : 0,
            "byteLength" : 2328
        },
        {
            "byteOffset" : 18336,
            "buffer" : 0,
            "byteLength" : 1552
        },
        {
            "byteOffset" : 19888,
            "buffer" : 0,
            "byteLength" : 2328
        },
        {
            "byteOffset" : 22216,
            "buffer" : 0,
            "byteLength" : 3104
        },
        {
            "byteOffset" : 25320,
            "buffer" : 0,
            "byteLength" : 2160
        },
        {
            "byteOffset" : 27480,
            "buffer" : 0,
            "byteLength" : 872
        }
    ],
    "samplers" : [
        {
            "wrapT" : 10497,
            "wrapS" : 10497,
            "minFilter" : 9986,
            "magFilter" : 9729
        }
    ],
    "buffers" : [
        {
            "byteLength" : 28352,
            "uri" : "data:application/octet-stream;base64,"
        }
    ]
}
