<?xml version="1.0" encoding="UTF-8" standalone="no"?>
<svg
   xmlns:dc="http://purl.org/dc/elements/1.1/"
   xmlns:cc="http://creativecommons.org/ns#"
   xmlns:rdf="http://www.w3.org/1999/02/22-rdf-syntax-ns#"
   xmlns:svg="http://www.w3.org/2000/svg"
   xmlns="http://www.w3.org/2000/svg"
   xmlns:sodipodi="http://sodipodi.sourceforge.net/DTD/sodipodi-0.dtd"
   xmlns:inkscape="http://www.inkscape.org/namespaces/inkscape"
   width="407.24252"
   height="374.0755"
   version="1.1"
   viewBox="0 0 407.24252 374.07549"
   id="svg4"
   sodipodi:docname="ac_easel_fit.svg"
   inkscape:version="0.92.4 5da689c313, 2019-01-14"
   inkscape:export-filename="/home/thulinma/cpp/acnl/design/ac_easel_alt_32.png"
   inkscape:export-xdpi="4.7261539"
   inkscape:export-ydpi="4.7261539">
  <metadata
     id="metadata10">
    <rdf:RDF>
      <cc:Work
         rdf:about="">
        <dc:format>image/svg+xml</dc:format>
        <dc:type
           rdf:resource="http://purl.org/dc/dcmitype/StillImage" />
        <dc:title></dc:title>
      </cc:Work>
    </rdf:RDF>
  </metadata>
  <defs
     id="defs8" />
  <sodipodi:namedview
     pagecolor="#ffffff"
     bordercolor="#666666"
     borderopacity="1"
     objecttolerance="10"
     gridtolerance="10"
     guidetolerance="10"
     inkscape:pageopacity="0"
     inkscape:pageshadow="2"
     inkscape:window-width="1615"
     inkscape:window-height="1042"
     id="namedview6"
     showgrid="false"
     inkscape:zoom="1"
     inkscape:cx="371.73327"
     inkscape:cy="280.81013"
     inkscape:window-x="0"
     inkscape:window-y="18"
     inkscape:window-maximized="0"
     inkscape:current-layer="svg4"
     fit-margin-top="0"
     fit-margin-left="0"
     fit-margin-right="0"
     fit-margin-bottom="0" />
  <path
     style="opacity:1;fill:#000000;fill-opacity:0.498155;stroke:none;stroke-width:1.33602273;stroke-linecap:round;stroke-linejoin:round;stroke-miterlimit:4;stroke-dasharray:none;stroke-dashoffset:0;stroke-opacity:1"
     d="M 340.04524,0.66592762 307.74513,47.995148 212.69891,43.035968 75.933358,243.43924 l -8.205696,12.02383 38.407888,2.00377 -84.550527,103.65357 13.578264,3.75338 45.055383,-55.23438 47.2246,2.55229 -0.22862,0.33455 16.74342,0.90436 0.22862,-0.33455 32.7239,1.76852 -7.63873,20.48932 -21.97047,38.05394 h 16.18742 l 19.3871,-33.57944 1.34187,-0.24589 2.18746,-5.8671 40.38633,-69.95117 35.47785,1.85127 11.85292,-17.36839 L 407.24252,53.187228 324.50916,48.869968 356.78797,1.5714576 Z M 122.09594,258.30027 l 40.67609,2.12317 -24.2825,35.58203 -45.1585,-2.44117 z m 57.44012,2.99797 17.01305,0.88781 -13.50547,36.22632 -27.81069,-1.50254 z"
     id="rect4533-3"
     inkscape:connector-curvature="0" />
  <rect
     style="opacity:1;fill:#784e17;fill-opacity:1;stroke:#000000;stroke-width:1.33693922;stroke-linecap:round;stroke-linejoin:round;stroke-miterlimit:4;stroke-dasharray:none;stroke-dashoffset:0;stroke-opacity:1"
     id="rect4533"
     width="17.289284"
     height="313.57755"
     x="125.43597"
     y="-5.9315815"
     transform="matrix(0.99862953,0.05233596,-0.10452846,0.9945219,0,0)" />
  <rect
     style="opacity:1;fill:#784e17;fill-opacity:1;stroke:#000000;stroke-width:1.33602285;stroke-linecap:round;stroke-linejoin:round;stroke-miterlimit:4;stroke-dasharray:none;stroke-dashoffset:0;stroke-opacity:1"
     id="rect4537-3-5"
     width="16.186491"
     height="249.27197"
     x="78.131058"
     y="116.63308"
     transform="rotate(-11.559985)" />
  <rect
     style="opacity:1;fill:#784e17;fill-opacity:1;stroke:#000000;stroke-width:1.33693922;stroke-linecap:round;stroke-linejoin:round;stroke-miterlimit:4;stroke-dasharray:none;stroke-dashoffset:0;stroke-opacity:1"
     id="rect4537-3-7"
     width="16.275654"
     height="126.42789"
     x="291.0347"
     y="-193.36853"
     transform="matrix(-0.10452846,0.9945219,-0.99862953,-0.05233596,0,0)" />
  <rect
     style="opacity:1;fill:#784e17;fill-opacity:1;stroke:#000000;stroke-width:1.33602285;stroke-linecap:round;stroke-linejoin:round;stroke-miterlimit:4;stroke-dasharray:none;stroke-dashoffset:0;stroke-opacity:1"
     id="rect4537-3"
     width="16.186491"
     height="249.27197"
     x="148.34282"
     y="124.13551" />
  <rect
     style="opacity:1;fill:#784e17;fill-opacity:1;stroke:#000000;stroke-width:1.33602285;stroke-linecap:round;stroke-linejoin:round;stroke-miterlimit:4;stroke-dasharray:none;stroke-dashoffset:0;stroke-opacity:1"
     id="rect4537-3-6"
     width="16.186491"
     height="249.27197"
     x="98.837982"
     y="98.406418"
     transform="rotate(13.40652)" />
  <rect
     style="opacity:1;fill:#f0efd9;fill-opacity:1;stroke:#000000;stroke-width:1.34055626;stroke-linecap:round;stroke-linejoin:round;stroke-miterlimit:4;stroke-dasharray:none;stroke-dashoffset:0;stroke-opacity:1"
     id="rect4590"
     width="200.66043"
     height="201.50732"
     x="27.412647"
     y="41.877609"
     transform="matrix(0.99871936,0.05059294,-0.10452846,0.9945219,0,0)" />
  <rect
     style="opacity:1;fill:#784e17;fill-opacity:1;stroke:#000000;stroke-width:1.34055626;stroke-linecap:round;stroke-linejoin:round;stroke-miterlimit:4;stroke-dasharray:none;stroke-dashoffset:0;stroke-opacity:1"
     id="rect4592"
     width="200.66043"
     height="17.463968"
     x="27.412647"
     y="238.01164"
     transform="matrix(0.99871936,0.05059294,-0.10452846,0.9945219,0,0)" />
  <path
     d="m 94.72646,235.34731 c -19.268646,-2.46878 -42.623137,-8.66821 -64.281269,-17.06328 -5.790449,-2.2446 -14.101578,-5.77868 -15.214354,-6.4693 -0.665941,-0.41338 -0.664404,-0.43398 0.09873,-1.34818 2.843858,-3.40995 11.695408,-17.29111 15.904814,-24.94306 7.229292,-13.14053 10.910561,-21.88869 14.39331,-34.20308 C 51.556766,130.35613 55.762694,119.57523 61.82256,109.81167 72.60941,92.431758 86.91875,84.337388 106.45,84.566648 c 15.95258,0.18747 35.05565,6.29899 52.3528,16.747642 2.6675,1.61153 4.88469,2.88585 4.92731,2.83185 0.0427,-0.054 3.75422,-9.083392 8.24801,-20.065152 4.49385,-10.98176 8.29296,-20.13281 8.44226,-20.33585 0.16332,-0.22192 3.22836,1.89751 7.68989,5.31724 4.08021,3.12725 9.54968,7.31635 12.15473,9.30884 l 4.73632,3.6226 -32.77149,28.578432 0.86708,0.7612 c 6.30395,5.53376 8.87553,8.08322 12.96276,12.85026 6.60476,7.70352 10.29619,13.73864 13.12943,21.46602 4.08489,11.14091 4.18636,19.70843 0.38036,32.13798 -6.97337,22.77216 -16.90897,37.1178 -32.05245,46.27866 -1.33636,0.8084 -2.36116,1.34702 -2.2774,1.19696 0.0834,-0.15009 1.0361,-1.38623 2.11594,-2.74695 5.14362,-6.48138 7.5856,-15.22993 6.44765,-23.10086 -0.52233,-3.61329 -2.78241,-9.31176 -4.85218,-12.23444 -3.24867,-4.58737 -8.20578,-8.33225 -13.57072,-10.25207 -3.0991,-1.10895 -10.15403,-1.83411 -13.38661,-1.37598 -9.76252,1.38368 -17.9812,6.79644 -23.0301,15.16707 -1.15452,1.91402 -2.5041,4.58914 -2.9993,5.94499 -1.24591,3.41129 -1.97979,10.45712 -1.44959,13.91346 1.39775,9.10282 6.47698,16.53971 14.19251,20.7799 2.42595,1.33329 5.96814,2.65613 7.29195,2.7232 0.35124,0.0177 0.62158,0.19287 0.60101,0.38909 -0.0207,0.19618 -0.18211,0.3494 -0.35887,0.34044 -0.17662,-0.009 -2.1759,0.20275 -4.44254,0.47045 -9.6742,1.14243 -12.95113,1.2458 -24.23438,0.76458 -6.08738,-0.25969 -11.86435,-0.5741 -12.83752,-0.69875 z"
     id="path2"
     inkscape:connector-curvature="0"
     style="fill:#34ab6d;stroke-width:0.357678" />
</svg>
