<svg width="407.24" height="374.08" version="1.1" viewBox="0 0 407.24 374.08" xmlns="http://www.w3.org/2000/svg"><path d="m340.05.66593-32.3 47.329-95.046-4.9592-144.97 212.43 38.408 2.0038-84.551 103.65 13.578 3.7534 45.055-55.234 47.225 2.5523-.22862.33455 16.743.90436.22862-.33455 32.724 1.7685-7.6387 20.489-21.97 38.054h16.187l19.387-33.579 1.3419-.24589 2.1875-5.8671 40.386-69.951 35.478 1.8513 11.853-17.368 133.12-195.06-82.733-4.3173 32.279-47.299zm-217.95 257.63 40.676 2.1232-24.282 35.582-45.158-2.4412zm57.44 2.998 17.013.88781-13.505 36.226-27.811-1.5025z" fill-opacity=".49816"/><g fill="#784e17" stroke="#000" stroke-linecap="round" stroke-linejoin="round"><rect transform="matrix(.99863 .052336 -.10453 .99452 0 0)" x="125.44" y="-5.9316" width="17.289" height="313.58" stroke-width="1.3369"/><rect transform="rotate(-11.56)" x="78.131" y="116.63" width="16.186" height="249.27" stroke-width="1.336"/><rect transform="matrix(-.10453 .99452 -.99863 -.052336 0 0)" x="291.03" y="-193.37" width="16.276" height="126.43" stroke-width="1.3369"/><rect x="148.34" y="124.14" width="16.186" height="249.27" stroke-width="1.336"/><rect transform="rotate(13.407)" x="98.838" y="98.406" width="16.186" height="249.27" stroke-width="1.336"/></g><rect transform="matrix(.99872 .050593 -.10453 .99452 0 0)" x="27.413" y="41.878" width="200.66" height="201.51" fill="#f0efd9" stroke="#000" stroke-linecap="round" stroke-linejoin="round" stroke-width="1.3406"/><rect transform="matrix(.99872 .050593 -.10453 .99452 0 0)" x="27.413" y="238.01" width="200.66" height="17.464" fill="#784e17" stroke="#000" stroke-linecap="round" stroke-linejoin="round" stroke-width="1.3406"/><path d="m94.726 235.35c-19.269-2.4688-42.623-8.6682-64.281-17.063-5.7904-2.2446-14.102-5.7787-15.214-6.4693-.66594-.41338-.6644-.43398.09873-1.3482 2.8439-3.41 11.695-17.291 15.905-24.943 7.2293-13.141 10.911-21.889 14.393-34.203 5.9291-20.964 10.135-31.745 16.195-41.509 10.787-17.38 25.096-25.474 44.627-25.245 15.953.18747 35.056 6.299 52.353 16.748 2.6675 1.6115 4.8847 2.8858 4.9273 2.8318.0427-.054 3.7542-9.0834 8.248-20.065 4.4938-10.982 8.293-20.133 8.4423-20.336.16332-.22192 3.2284 1.8975 7.6899 5.3172 4.0802 3.1272 9.5497 7.3164 12.155 9.3088l4.7363 3.6226-32.771 28.578.86708.7612c6.304 5.5338 8.8755 8.0832 12.963 12.85 6.6048 7.7035 10.296 13.739 13.129 21.466 4.0849 11.141 4.1864 19.708.38036 32.138-6.9734 22.772-16.909 37.118-32.052 46.279-1.3364.8084-2.3612 1.347-2.2774 1.197.0834-.15009 1.0361-1.3862 2.1159-2.747 5.1436-6.4814 7.5856-15.23 6.4476-23.101-.52233-3.6133-2.7824-9.3118-4.8522-12.234-3.2487-4.5874-8.2058-8.3322-13.571-10.252-3.0991-1.109-10.154-1.8341-13.387-1.376-9.7625 1.3837-17.981 6.7964-23.03 15.167-1.1545 1.914-2.5041 4.5891-2.9993 5.945-1.2459 3.4113-1.9798 10.457-1.4496 13.913 1.3978 9.1028 6.477 16.54 14.193 20.78 2.426 1.3333 5.9681 2.6561 7.292 2.7232.35124.0177.62158.19287.60101.38909-.0207.19618-.18211.3494-.35887.34044-.17662-.009-2.1759.20275-4.4425.47045-9.6742 1.1424-12.951 1.2458-24.234.76458-6.0874-.25969-11.864-.5741-12.838-.69875z" fill="#34ab6d" stroke-width=".35768"/></svg>
