<svg width="678.88" height="654.46" version="1.1" viewBox="0 0 678.88 654.46" xmlns="http://www.w3.org/2000/svg"><path d="m306.74 654.18c-72.601-5.5494-161.85-24.199-245.65-51.331-22.405-7.2544-54.685-18.828-59.092-21.186-2.6372-1.4114-2.6396-1.4883-.16211-5.0308 9.2405-13.213 36.724-66.487 49.384-95.728 21.742-50.215 32.01-83.432 40.146-129.87 13.851-79.057 25.275-119.93 43.989-157.37 33.312-66.646 83.348-99.434 156.05-102.26 59.381-2.3075 132.79 16.816 201.18 52.404 10.547 5.4889 19.288 9.809 19.425 9.6002.13694-.20878 10.408-34.477 22.824-76.151 12.416-41.674 22.964-76.411 23.44-77.194.52039-.85578 12.744 6.4465 30.667 18.32 16.391 10.858 38.362 25.402 48.826 32.319l19.024 12.576-110.67 112.42 3.5212 2.6667c25.599 19.386 36.156 28.38 53.214 45.333 27.565 27.396 43.647 49.138 57.2 77.333 19.54 40.65 23.265 72.483 13.972 119.41-17.027 85.975-48.36 141.18-101.08 178.09-4.6523 3.2571-8.2518 5.4526-7.9988 4.8789.253-.57368 3.3099-5.3488 6.7931-10.611 16.59-25.065 22.25-58.05 14.944-87.098-3.3538-13.335-13.983-34.095-22.82-44.571-13.87-16.443-33.763-29.432-54.459-35.559-11.955-3.5392-38.467-4.9065-50.306-2.5944-35.754 6.9828-64.194 28.654-79.694 60.725-3.5441 7.3333-7.5165 17.533-8.8277 22.667-3.2993 12.917-3.2744 39.25.0491 52 8.7535 33.579 30.543 60.271 60.884 74.582 9.5404 4.5 23.226 8.7509 28.174 8.7509 1.3126 0 2.3865.6 2.3865 1.3333s-.54038 1.3333-1.2008 1.3333-8.0105 1.1636-16.333 2.5857c-35.52 6.0693-47.662 7.0708-89.799 7.4067-22.733.18125-44.333.10026-48-.18003z" fill="#34ab6d" stroke-width="1.3333"/></svg>
