{
    "asset" : {
        "version" : "2.0",
        "generator" : "Khronos glTF Blender I/O v1.2.20"
    },
    "scene" : 0,
    "scenes" : [
        {
            "nodes" : [
                29
            ],
            "name" : "Scene"
        }
    ],
    "nodes" : [
        {
            "rotation" : [
                1.1590163495611705e-08,
                2.23517560016262e-08,
                2.5906031529695866e-16,
                1
            ],
            "translation" : [
                0.6800004839897156,
                -1.0251997082377784e-06,
                -6.927217555130483e-08
            ],
            "name" : "Arm_1_L"
        },
        {
            "rotation" : [
                -4.585655863653138e-21,
                -0.7071068286895752,
                5.708675118125698e-22,
                0.7071067094802856
            ],
            "scale" : [
                1,
                0.9999999403953552,
                1
            ],
            "translation" : [
                0.30000004172325134,
                0.7400006651878357,
                0.43000027537345886
            ],
            "children" : [
                0
            ],
            "name" : "Clavicle_L"
        },
        {
            "rotation" : [
                9.72753966266282e-09,
                -1.3174158652873302e-08,
                -1.2815608491957564e-16,
                1
            ],
            "translation" : [
                -0.6800003051757812,
                -1.0251995945509407e-06,
                -2.9100175424900954e-07
            ],
            "name" : "Arm_1_R"
        },
        {
            "rotation" : [
                4.922559499341954e-21,
                -0.7071065902709961,
                -1.225960629624756e-21,
                0.7071069478988647
            ],
            "translation" : [
                0.3000001311302185,
                0.7400044798851013,
                -0.43000003695487976
            ],
            "children" : [
                2
            ],
            "name" : "Clavicle_R"
        },
        {
            "rotation" : [
                0,
                -8.251616335066412e-22,
                1.3855583347321954e-13,
                1
            ],
            "translation" : [
                7.450556438470812e-08,
                1.2499990463256836,
                2.6077020720549626e-07
            ],
            "children" : [
                1,
                3
            ],
            "name" : "Spine_3"
        },
        {
            "rotation" : [
                -2.1859145488698287e-14,
                -3.5527119847346064e-15,
                -1.2789769243681803e-13,
                1
            ],
            "translation" : [
                7.748584351929821e-08,
                1.3000001907348633,
                2.712010598315828e-07
            ],
            "children" : [
                4
            ],
            "name" : "Spine_2"
        },
        {
            "rotation" : [
                2.5121484414718752e-14,
                0.7071068286895752,
                3.0145777231904355e-14,
                0.7071068286895752
            ],
            "translation" : [
                4.126833152550552e-13,
                4.768373287333816e-07,
                -5.684341886080802e-14
            ],
            "children" : [
                5
            ],
            "name" : "Spine_1"
        },
        {
            "rotation" : [
                2.117582368135751e-22,
                -4.107242547009883e-22,
                6.758682502550073e-11,
                1
            ],
            "translation" : [
                1.1588628723302463e-07,
                -1.9400007724761963,
                -4.185160378256114e-07
            ],
            "name" : "Leg_2_L"
        },
        {
            "rotation" : [
                1.092957359138209e-14,
                8.602633941905306e-22,
                -1.6786395606871451e-09,
                1
            ],
            "scale" : [
                1,
                0.9999999403953552,
                1
            ],
            "translation" : [
                3.691917527248734e-08,
                -0.6501121520996094,
                -1.2049277131609415e-07
            ],
            "children" : [
                7
            ],
            "name" : "Leg_1_L_Sub"
        },
        {
            "rotation" : [
                -8.602678370551488e-23,
                3.552713678800501e-15,
                1.432560736702726e-09,
                1
            ],
            "translation" : [
                -0.01700013317167759,
                0.1399998664855957,
                -0.9100001454353333
            ],
            "children" : [
                8
            ],
            "name" : "Leg_1_L"
        },
        {
            "rotation" : [
                0,
                1.986467374800777e-22,
                6.758682502550073e-11,
                1
            ],
            "translation" : [
                -1.7622966197450296e-07,
                -1.9400005340576172,
                -4.1648939941296703e-07
            ],
            "name" : "Leg_2_R"
        },
        {
            "rotation" : [
                -5.464786372174572e-15,
                -4.353324235405595e-22,
                -1.795065429632814e-09,
                1
            ],
            "translation" : [
                -6.092512450095455e-08,
                -0.6501102447509766,
                -1.1846620395772334e-07
            ],
            "children" : [
                10
            ],
            "name" : "Leg_1_R_Sub"
        },
        {
            "rotation" : [
                8.538718780355418e-17,
                -5.960464477539063e-08,
                1.432560736702726e-09,
                1
            ],
            "translation" : [
                -0.01699988916516304,
                0.14000225067138672,
                0.9100002646446228
            ],
            "children" : [
                11
            ],
            "name" : "Leg_1_R"
        },
        {
            "rotation" : [
                -5.699286376170676e-09,
                -0.002699399832636118,
                1.1475914440950419e-08,
                0.9999963641166687
            ],
            "scale" : [
                0.9999999403953552,
                1,
                0.9999999403953552
            ],
            "translation" : [
                0.2091844081878662,
                -1.2213672399520874,
                0.036829981952905655
            ],
            "name" : "Skirt_2_LB"
        },
        {
            "rotation" : [
                0,
                0.9828525185585022,
                0,
                0.18439340591430664
            ],
            "translation" : [
                -1.4126558303833008,
                0.8752514123916626,
                -0.9055648446083069
            ],
            "children" : [
                13
            ],
            "name" : "Skirt_1_LB"
        },
        {
            "rotation" : [
                1.5612720005719893e-09,
                2.458880771882832e-06,
                3.8392208791433735e-15,
                1
            ],
            "translation" : [
                0.11862301826477051,
                -1.202864646911621,
                -9.693577158031985e-05
            ],
            "name" : "Skirt_2_LC"
        },
        {
            "rotation" : [
                -1.013014117035027e-09,
                0.7071351408958435,
                1.012933181776532e-09,
                0.7070785164833069
            ],
            "scale" : [
                1,
                0.9999999403953552,
                1
            ],
            "translation" : [
                -0.025223184376955032,
                0.9863462448120117,
                -1.7282496690750122
            ],
            "children" : [
                15
            ],
            "name" : "Skirt_1_LC"
        },
        {
            "rotation" : [
                4.309651302492057e-09,
                0.0010449296096339822,
                -1.1455983717212348e-08,
                0.999999463558197
            ],
            "translation" : [
                0.1278521567583084,
                -1.2928730249404907,
                -0.028037969022989273
            ],
            "name" : "Skirt_2_LF"
        },
        {
            "rotation" : [
                0,
                0.21922817826271057,
                0,
                0.9756736159324646
            ],
            "translation" : [
                1.40364408493042,
                0.9862207174301147,
                -0.9055647253990173
            ],
            "children" : [
                17
            ],
            "name" : "Skirt_1_LF"
        },
        {
            "rotation" : [
                -3.6733331654215107e-11,
                0.0032053308095782995,
                1.1460433491095046e-08,
                0.9999948740005493
            ],
            "scale" : [
                0.9999999403953552,
                1,
                0.9999999403953552
            ],
            "translation" : [
                0.20602206885814667,
                -1.2213696241378784,
                -0.05166899412870407
            ],
            "name" : "Skirt_2_RB"
        },
        {
            "rotation" : [
                0,
                -0.9888113141059875,
                0,
                0.14917175471782684
            ],
            "translation" : [
                -1.4126598834991455,
                0.875252366065979,
                0.9055652618408203
            ],
            "children" : [
                19
            ],
            "name" : "Skirt_1_RB"
        },
        {
            "rotation" : [
                -1.5612684478583105e-09,
                -2.980228600790724e-06,
                4.653266975299802e-15,
                1
            ],
            "translation" : [
                0.1186240017414093,
                -1.2028679847717285,
                0.00011798107152571902
            ],
            "name" : "Skirt_2_RC"
        },
        {
            "rotation" : [
                1.0129239669254275e-09,
                -0.7070722579956055,
                1.0130227767746192e-09,
                0.7071412801742554
            ],
            "translation" : [
                -0.02522273175418377,
                0.9863486289978027,
                1.7282510995864868
            ],
            "children" : [
                21
            ],
            "name" : "Skirt_1_RC"
        },
        {
            "rotation" : [
                -1.3284715341677078e-11,
                -0.001159445266239345,
                -1.1460475235480772e-08,
                0.9999993443489075
            ],
            "translation" : [
                0.1263636350631714,
                -1.292873501777649,
                0.034120991826057434
            ],
            "name" : "Skirt_2_RF"
        },
        {
            "rotation" : [
                0,
                -0.1958233118057251,
                0,
                0.9806392192840576
            ],
            "translation" : [
                1.4036446809768677,
                0.986221194267273,
                0.9055657982826233
            ],
            "children" : [
                23
            ],
            "name" : "Skirt_1_RF"
        },
        {
            "rotation" : [
                2.5121484414718752e-14,
                -0.7071068286895752,
                -3.0145777231904355e-14,
                0.7071068286895752
            ],
            "translation" : [
                -4.126833152550552e-13,
                4.768373287333816e-07,
                -5.684341886080802e-14
            ],
            "children" : [
                9,
                12,
                14,
                16,
                18,
                20,
                22,
                24
            ],
            "name" : "Waist"
        },
        {
            "translation" : [
                0,
                4.839999675750732,
                0
            ],
            "children" : [
                6,
                25
            ],
            "name" : "Skl_Root"
        },
        {
            "rotation" : [
                1.0033481601112726e-07,
                0,
                0,
                1
            ],
            "children" : [
                26
            ],
            "name" : "Root"
        },
        {
            "skin" : 0,
            "mesh" : 0,
            "name" : "Body__mTops"
        },
        {
            "children" : [
                28,
                27
            ],
            "name" : "Armature"
        }
    ],
    "materials" : [
        {
            "pbrMetallicRoughness" : {
                "baseColorTexture" : {
                    "texCoord" : 0,
                    "index" : 0
                }
            },
            "name" : "mTops"
        }
    ],
    "meshes" : [
        {
            "primitives" : [
                {
                    "indices" : 5,
                    "material" : 0,
                    "attributes" : {
                        "TEXCOORD_0" : 0,
                        "POSITION" : 1,
                        "NORMAL" : 2,
                        "WEIGHTS_0" : 3,
                        "JOINTS_0" : 4
                    }
                }
            ],
            "name" : "Body__mTops"
        }
    ],
    "textures" : [
        {
            "sampler" : 0,
            "source" : 0
        }
    ],
    "images" : [
        {
            "mimeType" : "image/png",
            "bufferView" : 6,
            "name" : "Dress_LS_Test.png"
        }
    ],
    "skins" : [
        {
            "inverseBindMatrices" : 6,
            "joints" : [
                27,
                26,
                6,
                5,
                4,
                1,
                0,
                3,
                2,
                25,
                9,
                8,
                7,
                12,
                11,
                10,
                14,
                13,
                16,
                15,
                18,
                17,
                20,
                19,
                22,
                21,
                24,
                23
            ],
            "name" : "Armature"
        }
    ],
    "accessors" : [
        {
            "bufferView" : 0,
            "type" : "VEC2",
            "count" : 325,
            "componentType" : 5126
        },
        {
            "bufferView" : 1,
            "max" : [
                1.9412540197372437,
                8.874954223632812,
                1.7473804950714111
            ],
            "type" : "VEC3",
            "min" : [
                -1.9412540197372437,
                2.628908157348633,
                -1.7700214385986328
            ],
            "count" : 325,
            "componentType" : 5126
        },
        {
            "bufferView" : 2,
            "type" : "VEC3",
            "count" : 325,
            "componentType" : 5126
        },
        {
            "bufferView" : 3,
            "type" : "VEC4",
            "count" : 325,
            "componentType" : 5126
        },
        {
            "bufferView" : 4,
            "type" : "VEC4",
            "count" : 325,
            "componentType" : 5123
        },
        {
            "bufferView" : 5,
            "type" : "SCALAR",
            "count" : 1608,
            "componentType" : 5123
        },
        {
            "bufferView" : 7,
            "type" : "MAT4",
            "count" : 28,
            "componentType" : 5126
        }
    ],
    "bufferViews" : [
        {
            "buffer" : 0,
            "byteLength" : 2600,
            "byteOffset" : 0
        },
        {
            "buffer" : 0,
            "byteLength" : 3900,
            "byteOffset" : 2600
        },
        {
            "buffer" : 0,
            "byteLength" : 3900,
            "byteOffset" : 6500
        },
        {
            "buffer" : 0,
            "byteLength" : 5200,
            "byteOffset" : 10400
        },
        {
            "buffer" : 0,
            "byteLength" : 2600,
            "byteOffset" : 15600
        },
        {
            "buffer" : 0,
            "byteLength" : 3216,
            "byteOffset" : 18200
        },
        {
            "buffer" : 0,
            "byteLength" : 119,
            "byteOffset" : 21416
        },
        {
            "buffer" : 0,
            "byteLength" : 1792,
            "byteOffset" : 21536
        }
    ],
    "samplers" : [
        {
            "wrapT" : 10497,
            "magFilter" : 9729,
            "wrapS" : 10497,
            "minFilter" : 9986
        }
    ],
    "buffers" : [
        {
            "byteLength" : 23328,
            "uri" : "data:application/octet-stream;base64,"
        }
    ]
}
