<svg id="Layer_1" data-name="Layer 1" xmlns="http://www.w3.org/2000/svg" viewBox="0 0 1000 1000"><defs><style>.cls-1{fill:#4d3d36;}.cls-2{fill:#ff6b62;}</style></defs><path class="cls-1" d="M499.99667,118.3484C710.782,118.3484,881.65081,289.21608,881.65081,500S710.782,881.6516,499.99667,881.6516C289.218,881.6516,118.34919,710.78392,118.34919,500S289.218,118.3484,499.99667,118.3484m0-118.3484C224.29533,0,0,224.29383,0,500s224.29533,500,499.99667,500S1000,775.70617,1000,500,775.698,0,499.99667,0Z"/><path class="cls-2" d="M675.30735,499.90664H324.60084a32.73675,32.73675,0,0,1,3.55421-15.01693L469.63662,201.91513a33.81,33.81,0,0,1,60.635,0L671.75981,484.88971A32.8129,32.8129,0,0,1,675.30735,499.90664Z"/><path class="cls-1" d="M675.30735,499.90664a33.16569,33.16569,0,0,1-3.54754,15.297L530.27158,798.16489c-12.5631,24.8593-48.07186,24.8593-60.635,0L328.15505,515.20365a33.08913,33.08913,0,0,1-3.55421-15.297Z"/></svg>