<svg id="Arches_Icons" data-name="Arches Icons" xmlns="http://www.w3.org/2000/svg" viewBox="0 0 1000 1000"><defs><style>.cls-1{fill:#e0dbc8;}</style></defs><path id="GPS" class="cls-1" d="M500,1000C224.3,1000,0,775.7,0,500S224.3,0,500,0s500,224.3,500,500S775.7,1000,500,1000Zm0-902.36C278.14,97.64,97.64,278.14,97.64,500S278.14,902.36,500,902.36,902.36,721.86,902.36,500,721.86,97.64,500,97.64Zm0,95.63c-124,0-224.61,100.56-224.61,224.61,0,133.47,146,321.24,202.59,389a28.68,28.68,0,0,0,44,0c56.57-67.75,202.58-255.52,202.58-389C724.61,293.83,624.05,193.27,500,193.27ZM500,500a82.12,82.12,0,1,1,82.12-82.12A82.12,82.12,0,0,1,500,500Z" transform="translate(0 0)"/></svg>