<svg id="Arches_Icons" data-name="Arches Icons" xmlns="http://www.w3.org/2000/svg" viewBox="0 0 1000 577.62"><defs><style>.cls-1{fill:#e0dbc8;}</style></defs><g id="Arches"><path id="Arch_TR" data-name="Arch TR" class="cls-1" d="M947.83,380.53A52.23,52.23,0,0,1,902,353.36a72.43,72.43,0,0,0-127.18,0,52.21,52.21,0,0,1-91.61-50.1,176.85,176.85,0,0,1,310.41,0,52.24,52.24,0,0,1-45.76,77.27Z" transform="translate(0 -211.19)"/><path id="Arch_MR" data-name="Arch MR" class="cls-1" d="M947.83,584.67A52.21,52.21,0,0,1,902,557.5a72.43,72.43,0,0,0-127.18,0,52.21,52.21,0,1,1-91.61-50.1,176.85,176.85,0,0,1,310.41,0,52.23,52.23,0,0,1-45.76,77.27Z" transform="translate(0 -211.19)"/><path id="Arch_BR" data-name="Arch BR" class="cls-1" d="M947.83,788.81A52.21,52.21,0,0,1,902,761.64a72.43,72.43,0,0,0-127.18,0,52.21,52.21,0,1,1-91.61-50.1,176.85,176.85,0,0,1,310.41,0,52.23,52.23,0,0,1-45.76,77.27Z" transform="translate(0 -211.19)"/><path id="Arch_MM" data-name="Arch MM" class="cls-1" d="M609.44,584.67a52.19,52.19,0,0,1-45.85-27.17,72.43,72.43,0,0,0-127.18,0,52.21,52.21,0,0,1-91.62-50.1,176.85,176.85,0,0,1,310.41,0,52.22,52.22,0,0,1-45.76,77.27Z" transform="translate(0 -211.19)"/><path id="Arch_BM" data-name="Arch BM" class="cls-1" d="M609.44,788.81a52.19,52.19,0,0,1-45.85-27.17,72.43,72.43,0,0,0-127.18,0,52.21,52.21,0,0,1-91.62-50.1,176.85,176.85,0,0,1,310.41,0,52.22,52.22,0,0,1-45.76,77.27Z" transform="translate(0 -211.19)"/><path id="Arch_BL" data-name="Arch BL" class="cls-1" d="M271.06,788.81a52.21,52.21,0,0,1-45.86-27.17,72.43,72.43,0,0,0-127.17,0,52.21,52.21,0,0,1-91.62-50.1,176.85,176.85,0,0,1,310.41,0,52.23,52.23,0,0,1-45.76,77.27Z" transform="translate(0 -211.19)"/></g></svg>