{
    "asset" : {
        "generator" : "Khronos glTF Blender I/O v1.2.20",
        "version" : "2.0"
    },
    "scene" : 0,
    "scenes" : [
        {
            "nodes" : [
                41
            ],
            "name" : "Scene"
        }
    ],
    "nodes" : [
        {
            "translation" : [
                2.365671396255493,
                -1.8441038131713867,
                0.05371707305312157
            ],
            "name" : "z_Bag",
            "rotation" : [
                -2.8656051753728207e-08,
                -1.4901159417490817e-08,
                3.729448797311005e-15,
                1
            ]
        },
        {
            "name" : "Bag",
            "children" : [
                0
            ],
            "scale" : [
                0.9999999403953552,
                1,
                0.9999999403953552
            ],
            "translation" : [
                1.2695777229509986e-07,
                2.8000011444091797,
                0.3000006675720215
            ],
            "rotation" : [
                -4.5126042795074275e-14,
                -0.177568256855011,
                -2.5631591033664636e-13,
                0.9841085076332092
            ]
        },
        {
            "translation" : [
                0.90993732213974,
                8.619753657512774e-07,
                -2.7373232569516404e-08
            ],
            "name" : "Arm_1_L_Sub",
            "rotation" : [
                -8.597496048423636e-10,
                -1.8658839900948656e-22,
                -3.1763735522036263e-21,
                1
            ]
        },
        {
            "translation" : [
                0.6800005435943604,
                -9.445003001928853e-08,
                -6.46857358788111e-08
            ],
            "children" : [
                2
            ],
            "name" : "Arm_1_L",
            "rotation" : [
                -4.585047008731635e-09,
                2.2351748896198842e-08,
                -1.024871749695077e-16,
                1
            ]
        },
        {
            "name" : "Clavicle_L",
            "children" : [
                3
            ],
            "scale" : [
                0.9999999403953552,
                0.9999998211860657,
                0.9999999403953552
            ],
            "translation" : [
                0.30000004172325134,
                0.7400011420249939,
                0.43000027537345886
            ],
            "rotation" : [
                2.7017192039124893e-08,
                -0.7071068286895752,
                2.701717072284282e-08,
                0.7071067094802856
            ]
        },
        {
            "translation" : [
                -0.9099406003952026,
                8.630927368358243e-07,
                -5.133786658007011e-07
            ],
            "name" : "Arm_1_R_Sub",
            "rotation" : [
                -8.59778026551794e-10,
                -1.4210854715202004e-14,
                -4.235164736271502e-22,
                1
            ]
        },
        {
            "translation" : [
                -0.6800004243850708,
                -9.445012238984418e-08,
                -2.8641579774557613e-07
            ],
            "children" : [
                5
            ],
            "name" : "Arm_1_R",
            "rotation" : [
                -6.447695710676271e-09,
                -1.3174172863728018e-08,
                8.49446197060587e-17,
                1
            ]
        },
        {
            "name" : "Clavicle_R",
            "children" : [
                6
            ],
            "scale" : [
                0.9999999403953552,
                0.9999998807907104,
                0.9999999403953552
            ],
            "translation" : [
                0.3000001311302185,
                0.7400049567222595,
                -0.43000003695487976
            ],
            "rotation" : [
                2.7017183157340696e-08,
                -0.7071065902709961,
                2.7017192039124893e-08,
                0.7071069478988647
            ]
        },
        {
            "translation" : [
                7.450572780953735e-08,
                1.2499995231628418,
                2.607702356272057e-07
            ],
            "children" : [
                4,
                7
            ],
            "name" : "Spine_3",
            "rotation" : [
                3.643805634827302e-14,
                -4.343754002095394e-21,
                6.750155989720952e-14,
                1
            ]
        },
        {
            "translation" : [
                7.748607089297366e-08,
                1.3000006675720215,
                2.712010598315828e-07
            ],
            "children" : [
                8
            ],
            "name" : "Spine_2",
            "rotation" : [
                -3.643805634827302e-14,
                -3.5527107141851855e-15,
                -1.3500311979441904e-13,
                1
            ]
        },
        {
            "translation" : [
                4.126833152550552e-13,
                1.8829382497642655e-13,
                -1.136867835115074e-13
            ],
            "children" : [
                1,
                9
            ],
            "name" : "Spine_1",
            "rotation" : [
                -5.0242974758668135e-15,
                0.7071068286895752,
                -1.0048592410634785e-14,
                0.7071068286895752
            ]
        },
        {
            "translation" : [
                1.0658833389243227e-06,
                -0.39000022411346436,
                -6.088810522442145e-08
            ],
            "name" : "Leg_2_L_Sub",
            "rotation" : [
                4.554759584632969e-15,
                -3.2176437255389136e-22,
                -1.6718004758331517e-10,
                1
            ]
        },
        {
            "translation" : [
                1.129011550915493e-07,
                -1.9400007724761963,
                -4.1851606624732085e-07
            ],
            "children" : [
                11
            ],
            "name" : "Leg_2_L",
            "rotation" : [
                1.2705494208814505e-21,
                -6.926738959788379e-22,
                -1.6714452044652717e-10,
                1
            ]
        },
        {
            "translation" : [
                3.9414430830220226e-08,
                -0.6501121520996094,
                -1.2049277131609415e-07
            ],
            "children" : [
                12
            ],
            "name" : "Leg_1_L_Sub",
            "rotation" : [
                1.8219048502927243e-14,
                1.485966558656509e-21,
                2.984918978654605e-10,
                1
            ]
        },
        {
            "translation" : [
                -0.01700013317167759,
                0.1399998664855957,
                -0.9100001454353333
            ],
            "children" : [
                13
            ],
            "name" : "Leg_1_L",
            "rotation" : [
                0,
                3.552713678800501e-15,
                0,
                1
            ]
        },
        {
            "translation" : [
                9.65710910350026e-07,
                -0.39000022411346436,
                -5.886159115675582e-08
            ],
            "name" : "Leg_2_R_Sub",
            "rotation" : [
                -9.10951832223299e-15,
                -7.429664166375445e-22,
                2.984954505791393e-10,
                1
            ]
        },
        {
            "translation" : [
                -1.7996416090682033e-07,
                -1.9400007724761963,
                -4.1648942783467646e-07
            ],
            "children" : [
                15
            ],
            "name" : "Leg_2_R",
            "rotation" : [
                -1.1166938269465874e-22,
                2.1089470549050947e-24,
                -3.999822695277544e-10,
                1
            ]
        },
        {
            "translation" : [
                -5.8429868943221663e-08,
                -0.6501102447509766,
                -1.1846620395772334e-07
            ],
            "children" : [
                16
            ],
            "name" : "Leg_1_R_Sub",
            "rotation" : [
                -6.203854594147708e-23,
                -1.7763568394002505e-15,
                4.149782739659713e-10,
                1
            ]
        },
        {
            "translation" : [
                -0.01699988916516304,
                0.14000225067138672,
                0.9100002646446228
            ],
            "children" : [
                17
            ],
            "name" : "Leg_1_R",
            "rotation" : [
                0,
                -5.960464477539063e-08,
                0,
                1
            ]
        },
        {
            "name" : "Z_Skirt_LB",
            "scale" : [
                0.9999999403953552,
                1,
                0.9999998807907104
            ],
            "translation" : [
                0.46396663784980774,
                -1.9421690702438354,
                0.1127857118844986
            ],
            "rotation" : [
                3.3306701326666537e-16,
                -1.2111113190276033e-15,
                -3.820808558430144e-08,
                1
            ]
        },
        {
            "translation" : [
                0.9541196823120117,
                -1.34478759765625,
                0.0608803890645504
            ],
            "children" : [
                19
            ],
            "name" : "Skirt_2_LB",
            "rotation" : [
                -3.8206277253038934e-08,
                -0.009783542715013027,
                3.738076792547673e-10,
                0.9999521374702454
            ]
        },
        {
            "name" : "Skirt_1_LB",
            "children" : [
                20
            ],
            "scale" : [
                1,
                0.9999997615814209,
                1
            ],
            "translation" : [
                -1.380508303642273,
                1.143860936164856,
                -0.8708427548408508
            ],
            "rotation" : [
                8.265178939750959e-15,
                0.9766315817832947,
                0,
                0.21492061018943787
            ]
        },
        {
            "translation" : [
                0.5914187431335449,
                -1.9105567932128906,
                -1.4507804735330865e-08
            ],
            "name" : "Z_Skirt_LC",
            "rotation" : [
                4.263256414560601e-14,
                1.0097419586828951e-28,
                -2.39611766795451e-23,
                1
            ]
        },
        {
            "translation" : [
                0.9928784370422363,
                -1.2173900604248047,
                -8.775091941970459e-08
            ],
            "children" : [
                22
            ],
            "name" : "Skirt_2_LC",
            "rotation" : [
                3.552713678800501e-15,
                -2.263929133050624e-08,
                -2.1175864071035856e-22,
                1
            ]
        },
        {
            "translation" : [
                -2.7263300239610544e-07,
                1.1664462089538574,
                -1.525766134262085
            ],
            "children" : [
                23
            ],
            "name" : "Skirt_1_LC",
            "rotation" : [
                -5.0242965441305715e-14,
                0.7071068286895752,
                5.0242968829437504e-14,
                0.7071068286895752
            ]
        },
        {
            "name" : "Z_Skirt_LF",
            "scale" : [
                1,
                1.0000001192092896,
                1
            ],
            "translation" : [
                0.4168131947517395,
                -1.9552803039550781,
                -0.05607962980866432
            ],
            "rotation" : [
                2.671474153004283e-16,
                -2.9802322387695312e-08,
                -2.0816681711721685e-17,
                1
            ]
        },
        {
            "translation" : [
                0.8530146479606628,
                -1.3717602491378784,
                -0.031105581670999527
            ],
            "children" : [
                25
            ],
            "name" : "Skirt_2_LF",
            "rotation" : [
                -2.8991831158009518e-08,
                0.004397330339998007,
                7.628946718796215e-08,
                0.9999903440475464
            ]
        },
        {
            "translation" : [
                1.5108813047409058,
                1.143861174583435,
                -0.870842695236206
            ],
            "children" : [
                26
            ],
            "name" : "Skirt_1_LF",
            "rotation" : [
                -2.1543667628195894e-22,
                0.18400268256664276,
                3.614427652304502e-15,
                0.9829258322715759
            ]
        },
        {
            "translation" : [
                0.4425143599510193,
                -1.942162036895752,
                -0.179344043135643
            ],
            "name" : "Z_Skirt_RB",
            "rotation" : [
                -1.3877787807814457e-16,
                -4.0777684784426666e-17,
                1.942890293094024e-16,
                1
            ]
        },
        {
            "translation" : [
                0.9290529489517212,
                -1.3447895050048828,
                -0.22563140094280243
            ],
            "children" : [
                28
            ],
            "name" : "Skirt_2_RB",
            "rotation" : [
                2.0913596188165684e-08,
                0.023750489577651024,
                -7.594096729235389e-08,
                0.9997180104255676
            ]
        },
        {
            "translation" : [
                -1.3805086612701416,
                1.1438614130020142,
                0.8708435297012329
            ],
            "children" : [
                29
            ],
            "name" : "Skirt_1_RB",
            "rotation" : [
                0,
                -0.991646409034729,
                0,
                0.12898625433444977
            ]
        },
        {
            "translation" : [
                0.5914170742034912,
                -1.9105515480041504,
                -9.489261287853878e-08
            ],
            "name" : "Z_Skirt_RC",
            "rotation" : [
                -3.907985046680551e-14,
                -1.4210854715202004e-14,
                1.3052651572145354e-22,
                1
            ]
        },
        {
            "translation" : [
                0.9928758144378662,
                -1.2173857688903809,
                -2.5076496967813e-07
            ],
            "children" : [
                31
            ],
            "name" : "Skirt_2_RC",
            "rotation" : [
                1.4210854715202004e-13,
                2.7818153114367306e-08,
                4.575595198673605e-21,
                1
            ]
        },
        {
            "name" : "Skirt_1_RC",
            "children" : [
                32
            ],
            "scale" : [
                0.9999999403953552,
                0.9999998211860657,
                0.9999999403953552
            ],
            "translation" : [
                1.3358251749195915e-07,
                1.1664400100708008,
                1.525770664215088
            ],
            "rotation" : [
                -3.0145784008167933e-14,
                -0.70710688829422,
                -2.0097179739071887e-14,
                0.7071067094802856
            ]
        },
        {
            "name" : "Z_Skirt_RF",
            "scale" : [
                0.9999999403953552,
                0.9999999403953552,
                0.9999999403953552
            ],
            "translation" : [
                0.41179928183555603,
                -1.9552783966064453,
                0.08542957901954651
            ],
            "rotation" : [
                8.881785255792436e-16,
                1.4901161193847656e-08,
                -3.820808558430144e-08,
                1
            ]
        },
        {
            "translation" : [
                0.8476473689079285,
                -1.3717602491378784,
                0.100469209253788
            ],
            "children" : [
                34
            ],
            "name" : "Skirt_2_RF",
            "rotation" : [
                2.9400103684906753e-08,
                -0.009754331782460213,
                7.613306252096663e-08,
                0.9999524354934692
            ]
        },
        {
            "translation" : [
                1.510882019996643,
                1.1438602209091187,
                0.8708432912826538
            ],
            "children" : [
                35
            ],
            "name" : "Skirt_1_RF",
            "rotation" : [
                -2.1398196628563346e-22,
                -0.14379294216632843,
                3.59002166847879e-15,
                0.9896078109741211
            ]
        },
        {
            "translation" : [
                -4.126833152550552e-13,
                1.8829382497642655e-13,
                -1.136867835115074e-13
            ],
            "children" : [
                14,
                18,
                21,
                24,
                27,
                30,
                33,
                36
            ],
            "name" : "Waist",
            "rotation" : [
                -5.0242974758668135e-15,
                -0.7071068286895752,
                1.0048592410634785e-14,
                0.7071068286895752
            ]
        },
        {
            "name" : "Skl_Root",
            "children" : [
                10,
                37
            ],
            "scale" : [
                1,
                0.9999999403953552,
                1
            ],
            "translation" : [
                0,
                4.840000152587891,
                0
            ],
            "rotation" : [
                7.105427357601002e-14,
                0,
                0,
                1
            ]
        },
        {
            "children" : [
                38
            ],
            "name" : "Root",
            "rotation" : [
                1.0033481601112726e-07,
                0,
                0,
                1
            ]
        },
        {
            "skin" : 0,
            "mesh" : 0,
            "name" : "Body__mTops"
        },
        {
            "children" : [
                40,
                39
            ],
            "name" : "Armature"
        }
    ],
    "materials" : [
        {
            "pbrMetallicRoughness" : {
                "baseColorTexture" : {
                    "index" : 0,
                    "texCoord" : 0
                }
            },
            "name" : "mTops.002"
        }
    ],
    "meshes" : [
        {
            "primitives" : [
                {
                    "indices" : 5,
                    "material" : 0,
                    "attributes" : {
                        "JOINTS_0" : 0,
                        "NORMAL" : 1,
                        "POSITION" : 2,
                        "TEXCOORD_0" : 3,
                        "WEIGHTS_0" : 4
                    }
                }
            ],
            "name" : "Body__mTops.005"
        }
    ],
    "textures" : [
        {
            "sampler" : 0,
            "source" : 0
        }
    ],
    "images" : [
        {
            "bufferView" : 6,
            "mimeType" : "image/png",
            "name" : "Dress_LS_Test.png"
        }
    ],
    "skins" : [
        {
            "inverseBindMatrices" : 6,
            "joints" : [
                39,
                38,
                10,
                1,
                0,
                9,
                8,
                4,
                3,
                2,
                7,
                6,
                5,
                37,
                14,
                13,
                12,
                11,
                18,
                17,
                16,
                15,
                21,
                20,
                19,
                24,
                23,
                22,
                27,
                26,
                25,
                30,
                29,
                28,
                33,
                32,
                31,
                36,
                35,
                34
            ],
            "name" : "Armature"
        }
    ],
    "accessors" : [
        {
            "bufferView" : 0,
            "count" : 563,
            "componentType" : 5123,
            "type" : "VEC4"
        },
        {
            "bufferView" : 1,
            "count" : 563,
            "componentType" : 5126,
            "type" : "VEC3"
        },
        {
            "min" : [
                -3.0555360317230225,
                2.920048475265503,
                -2.8740265369415283
            ],
            "max" : [
                3.055536985397339,
                9.08555793762207,
                2.902308464050293
            ],
            "type" : "VEC3",
            "bufferView" : 2,
            "count" : 563,
            "componentType" : 5126
        },
        {
            "bufferView" : 3,
            "count" : 563,
            "componentType" : 5126,
            "type" : "VEC2"
        },
        {
            "bufferView" : 4,
            "count" : 563,
            "componentType" : 5126,
            "type" : "VEC4"
        },
        {
            "bufferView" : 5,
            "count" : 2820,
            "componentType" : 5123,
            "type" : "SCALAR"
        },
        {
            "bufferView" : 7,
            "count" : 40,
            "componentType" : 5126,
            "type" : "MAT4"
        }
    ],
    "bufferViews" : [
        {
            "byteOffset" : 0,
            "byteLength" : 4504,
            "buffer" : 0
        },
        {
            "byteOffset" : 4504,
            "byteLength" : 6756,
            "buffer" : 0
        },
        {
            "byteOffset" : 11260,
            "byteLength" : 6756,
            "buffer" : 0
        },
        {
            "byteOffset" : 18016,
            "byteLength" : 4504,
            "buffer" : 0
        },
        {
            "byteOffset" : 22520,
            "byteLength" : 9008,
            "buffer" : 0
        },
        {
            "byteOffset" : 31528,
            "byteLength" : 5640,
            "buffer" : 0
        },
        {
            "byteOffset" : 37168,
            "byteLength" : 119,
            "buffer" : 0
        },
        {
            "byteOffset" : 37288,
            "byteLength" : 2560,
            "buffer" : 0
        }
    ],
    "samplers" : [
        {
            "minFilter" : 9986,
            "magFilter" : 9729,
            "wrapT" : 10497,
            "wrapS" : 10497
        }
    ],
    "buffers" : [
        {
            "uri" : "data:application/octet-stream;base64,",
            "byteLength" : 39848
        }
    ]
}
