{
    "asset" : {
        "generator" : "Khronos glTF Blender I/O v1.2.20",
        "version" : "2.0"
    },
    "scene" : 0,
    "scenes" : [
        {
            "nodes" : [
                2
            ],
            "name" : "Scene"
        }
    ],
    "nodes" : [
        {
            "rotation" : [
                1.0033481601112726e-07,
                0,
                0,
                1
            ],
            "name" : "Root"
        },
        {
            "skin" : 0,
            "mesh" : 0,
            "name" : "Body__mCap"
        },
        {
            "children" : [
                1,
                0
            ],
            "name" : "Armature"
        }
    ],
    "materials" : [
        {
            "pbrMetallicRoughness" : {
                "baseColorTexture" : {
                    "index" : 0,
                    "texCoord" : 0
                }
            },
            "name" : "mCap"
        }
    ],
    "meshes" : [
        {
            "primitives" : [
                {
                    "material" : 0,
                    "indices" : 5,
                    "attributes" : {
                        "TEXCOORD_0" : 0,
                        "POSITION" : 1,
                        "JOINTS_0" : 2,
                        "NORMAL" : 3,
                        "WEIGHTS_0" : 4
                    }
                }
            ],
            "name" : "Body__mCap"
        }
    ],
    "textures" : [
        {
            "source" : 0,
            "sampler" : 0
        }
    ],
    "images" : [
        {
            "mimeType" : "image/png",
            "bufferView" : 6,
            "name" : "mCap_Alb.png"
        }
    ],
    "skins" : [
        {
            "inverseBindMatrices" : 6,
            "joints" : [
                0
            ],
            "name" : "Armature"
        }
    ],
    "accessors" : [
        {
            "bufferView" : 0,
            "componentType" : 5126,
            "count" : 538,
            "type" : "VEC2"
        },
        {
            "componentType" : 5126,
            "count" : 538,
            "bufferView" : 1,
            "max" : [
                3.759114980697632,
                4.34417200088501,
                6.040824890136719
            ],
            "min" : [
                -3.759114980697632,
                -1.1446106433868408,
                -4.199114799499512
            ],
            "type" : "VEC3"
        },
        {
            "bufferView" : 2,
            "componentType" : 5123,
            "count" : 538,
            "type" : "VEC4"
        },
        {
            "bufferView" : 3,
            "componentType" : 5126,
            "count" : 538,
            "type" : "VEC3"
        },
        {
            "bufferView" : 4,
            "componentType" : 5126,
            "count" : 538,
            "type" : "VEC4"
        },
        {
            "bufferView" : 5,
            "componentType" : 5123,
            "count" : 2436,
            "type" : "SCALAR"
        },
        {
            "bufferView" : 7,
            "componentType" : 5126,
            "count" : 1,
            "type" : "MAT4"
        }
    ],
    "bufferViews" : [
        {
            "byteLength" : 4304,
            "buffer" : 0,
            "byteOffset" : 0
        },
        {
            "byteLength" : 6456,
            "buffer" : 0,
            "byteOffset" : 4304
        },
        {
            "byteLength" : 4304,
            "buffer" : 0,
            "byteOffset" : 10760
        },
        {
            "byteLength" : 6456,
            "buffer" : 0,
            "byteOffset" : 15064
        },
        {
            "byteLength" : 8608,
            "buffer" : 0,
            "byteOffset" : 21520
        },
        {
            "byteLength" : 4872,
            "buffer" : 0,
            "byteOffset" : 30128
        },
        {
            "byteLength" : 4373,
            "buffer" : 0,
            "byteOffset" : 35000
        },
        {
            "byteLength" : 64,
            "buffer" : 0,
            "byteOffset" : 39376
        }
    ],
    "samplers" : [
        {
            "magFilter" : 9729,
            "wrapT" : 10497,
            "minFilter" : 9986,
            "wrapS" : 10497
        }
    ],
    "buffers" : [
        {
            "uri" : "data:application/octet-stream;base64,",
            "byteLength" : 39440
        }
    ]
}
