{
    "asset" : {
        "generator" : "Khronos glTF Blender I/O v1.2.20",
        "version" : "2.0"
    },
    "scene" : 0,
    "scenes" : [
        {
            "nodes" : [
                2
            ],
            "name" : "Scene"
        }
    ],
    "nodes" : [
        {
            "name" : "Root",
            "rotation" : [
                1.0033481601112726e-07,
                0,
                0,
                1
            ]
        },
        {
            "skin" : 0,
            "mesh" : 0,
            "name" : "Body__mCap"
        },
        {
            "children" : [
                1,
                0
            ],
            "name" : "Armature"
        }
    ],
    "materials" : [
        {
            "pbrMetallicRoughness" : {
                "baseColorTexture" : {
                    "index" : 0,
                    "texCoord" : 0
                }
            },
            "name" : "mCap.002"
        }
    ],
    "meshes" : [
        {
            "primitives" : [
                {
                    "indices" : 5,
                    "material" : 0,
                    "attributes" : {
                        "JOINTS_0" : 0,
                        "NORMAL" : 1,
                        "POSITION" : 2,
                        "TEXCOORD_0" : 3,
                        "WEIGHTS_0" : 4
                    }
                }
            ],
            "name" : "Body__mCap.004"
        }
    ],
    "textures" : [
        {
            "sampler" : 0,
            "source" : 0
        }
    ],
    "images" : [
        {
            "bufferView" : 6,
            "mimeType" : "image/png",
            "name" : "Dress_LS_Test.png"
        }
    ],
    "skins" : [
        {
            "inverseBindMatrices" : 6,
            "joints" : [
                0
            ],
            "name" : "Armature"
        }
    ],
    "accessors" : [
        {
            "bufferView" : 0,
            "count" : 495,
            "componentType" : 5123,
            "type" : "VEC4"
        },
        {
            "bufferView" : 1,
            "count" : 495,
            "componentType" : 5126,
            "type" : "VEC3"
        },
        {
            "min" : [
                -5.001266956329346,
                -0.3590964078903198,
                -5.120461940765381
            ],
            "max" : [
                5.001267910003662,
                3.475209951400757,
                4.9816508293151855
            ],
            "type" : "VEC3",
            "bufferView" : 2,
            "count" : 495,
            "componentType" : 5126
        },
        {
            "bufferView" : 3,
            "count" : 495,
            "componentType" : 5126,
            "type" : "VEC2"
        },
        {
            "bufferView" : 4,
            "count" : 495,
            "componentType" : 5126,
            "type" : "VEC4"
        },
        {
            "bufferView" : 5,
            "count" : 2040,
            "componentType" : 5123,
            "type" : "SCALAR"
        },
        {
            "bufferView" : 7,
            "count" : 1,
            "componentType" : 5126,
            "type" : "MAT4"
        }
    ],
    "bufferViews" : [
        {
            "byteOffset" : 0,
            "byteLength" : 3960,
            "buffer" : 0
        },
        {
            "byteOffset" : 3960,
            "byteLength" : 5940,
            "buffer" : 0
        },
        {
            "byteOffset" : 9900,
            "byteLength" : 5940,
            "buffer" : 0
        },
        {
            "byteOffset" : 15840,
            "byteLength" : 3960,
            "buffer" : 0
        },
        {
            "byteOffset" : 19800,
            "byteLength" : 7920,
            "buffer" : 0
        },
        {
            "byteOffset" : 27720,
            "byteLength" : 4080,
            "buffer" : 0
        },
        {
            "byteOffset" : 31800,
            "byteLength" : 119,
            "buffer" : 0
        },
        {
            "byteOffset" : 31920,
            "byteLength" : 64,
            "buffer" : 0
        }
    ],
    "samplers" : [
        {
            "minFilter" : 9986,
            "magFilter" : 9729,
            "wrapT" : 10497,
            "wrapS" : 10497
        }
    ],
    "buffers" : [
        {
            "uri" : "data:application/octet-stream;base64,",
            "byteLength" : 31984
        }
    ]
}
