{
    "asset" : {
        "generator" : "Khronos glTF Blender I/O v1.2.20",
        "version" : "2.0"
    },
    "scene" : 0,
    "scenes" : [
        {
            "name" : "Scene",
            "nodes" : [
                3
            ]
        }
    ],
    "nodes" : [
        {
            "rotation" : [
                1.0033481601112726e-07,
                0,
                0,
                1
            ],
            "name" : "Root"
        },
        {
            "skin" : 0,
            "name" : "Base__mBody",
            "mesh" : 0
        },
        {
            "skin" : 0,
            "name" : "Body__mBody",
            "mesh" : 1
        },
        {
            "children" : [
                1,
                2,
                0
            ],
            "name" : "Armature"
        }
    ],
    "materials" : [
        {
            "pbrMetallicRoughness" : {
                "baseColorTexture" : {
                    "index" : 0,
                    "texCoord" : 0
                }
            },
            "name" : "mBody"
        }
    ],
    "meshes" : [
        {
            "name" : "Base__mBody",
            "primitives" : [
                {
                    "attributes" : {
                        "POSITION" : 0,
                        "TEXCOORD_0" : 1,
                        "WEIGHTS_0" : 2,
                        "JOINTS_0" : 3,
                        "NORMAL" : 4
                    },
                    "indices" : 5,
                    "material" : 0
                }
            ]
        },
        {
            "name" : "Body__mBody",
            "primitives" : [
                {
                    "attributes" : {
                        "POSITION" : 7,
                        "TEXCOORD_0" : 8,
                        "WEIGHTS_0" : 9,
                        "JOINTS_0" : 10,
                        "NORMAL" : 11
                    },
                    "indices" : 12,
                    "material" : 0
                }
            ]
        }
    ],
    "textures" : [
        {
            "source" : 0,
            "sampler" : 0
        }
    ],
    "images" : [
        {
            "mimeType" : "image/png",
            "name" : "mBody_Alb.png",
            "bufferView" : 6
        }
    ],
    "skins" : [
        {
            "inverseBindMatrices" : 6,
            "joints" : [
                0
            ],
            "name" : "Armature"
        }
    ],
    "accessors" : [
        {
            "count" : 145,
            "max" : [
                1.8000000715255737,
                4.883695125579834,
                1.8000000715255737
            ],
            "componentType" : 5126,
            "min" : [
                -1.8000000715255737,
                -2.9325724426598754e-07,
                -1.8000000715255737
            ],
            "type" : "VEC3",
            "bufferView" : 0
        },
        {
            "count" : 145,
            "componentType" : 5126,
            "type" : "VEC2",
            "bufferView" : 1
        },
        {
            "count" : 145,
            "componentType" : 5126,
            "type" : "VEC4",
            "bufferView" : 2
        },
        {
            "count" : 145,
            "componentType" : 5123,
            "type" : "VEC4",
            "bufferView" : 3
        },
        {
            "count" : 145,
            "componentType" : 5126,
            "type" : "VEC3",
            "bufferView" : 4
        },
        {
            "count" : 240,
            "componentType" : 5123,
            "type" : "SCALAR",
            "bufferView" : 5
        },
        {
            "count" : 1,
            "componentType" : 5126,
            "type" : "MAT4",
            "bufferView" : 7
        },
        {
            "count" : 290,
            "max" : [
                1.7363380193710327,
                8.90479850769043,
                1.542123794555664
            ],
            "componentType" : 5126,
            "min" : [
                -1.7363380193710327,
                4.883694648742676,
                -1.451094150543213
            ],
            "type" : "VEC3",
            "bufferView" : 8
        },
        {
            "count" : 290,
            "componentType" : 5126,
            "type" : "VEC2",
            "bufferView" : 9
        },
        {
            "count" : 290,
            "componentType" : 5126,
            "type" : "VEC4",
            "bufferView" : 10
        },
        {
            "count" : 290,
            "componentType" : 5123,
            "type" : "VEC4",
            "bufferView" : 11
        },
        {
            "count" : 290,
            "componentType" : 5126,
            "type" : "VEC3",
            "bufferView" : 12
        },
        {
            "count" : 912,
            "componentType" : 5123,
            "type" : "SCALAR",
            "bufferView" : 13
        }
    ],
    "bufferViews" : [
        {
            "buffer" : 0,
            "byteLength" : 1740,
            "byteOffset" : 0
        },
        {
            "buffer" : 0,
            "byteLength" : 1160,
            "byteOffset" : 1740
        },
        {
            "buffer" : 0,
            "byteLength" : 2320,
            "byteOffset" : 2900
        },
        {
            "buffer" : 0,
            "byteLength" : 1160,
            "byteOffset" : 5220
        },
        {
            "buffer" : 0,
            "byteLength" : 1740,
            "byteOffset" : 6380
        },
        {
            "buffer" : 0,
            "byteLength" : 480,
            "byteOffset" : 8120
        },
        {
            "buffer" : 0,
            "byteLength" : 973,
            "byteOffset" : 8600
        },
        {
            "buffer" : 0,
            "byteLength" : 64,
            "byteOffset" : 9576
        },
        {
            "buffer" : 0,
            "byteLength" : 3480,
            "byteOffset" : 9640
        },
        {
            "buffer" : 0,
            "byteLength" : 2320,
            "byteOffset" : 13120
        },
        {
            "buffer" : 0,
            "byteLength" : 4640,
            "byteOffset" : 15440
        },
        {
            "buffer" : 0,
            "byteLength" : 2320,
            "byteOffset" : 20080
        },
        {
            "buffer" : 0,
            "byteLength" : 3480,
            "byteOffset" : 22400
        },
        {
            "buffer" : 0,
            "byteLength" : 1824,
            "byteOffset" : 25880
        }
    ],
    "samplers" : [
        {
            "minFilter" : 9986,
            "wrapT" : 10497,
            "wrapS" : 10497,
            "magFilter" : 9729
        }
    ],
    "buffers" : [
        {
            "uri" : "data:application/octet-stream;base64,",
            "byteLength" : 27704
        }
    ]
}
