{
    "asset" : {
        "generator" : "Khronos glTF Blender I/O v1.2.20",
        "version" : "2.0"
    },
    "scene" : 0,
    "scenes" : [
        {
            "nodes" : [
                33
            ],
            "name" : "Scene"
        }
    ],
    "nodes" : [
        {
            "translation" : [
                0.8735308051109314,
                -7.761041587173167e-08,
                3.6202152386977104e-08
            ],
            "name" : "Arm_2_L",
            "rotation" : [
                2.276934196743241e-09,
                7.450580596923828e-09,
                1.6964958202760365e-17,
                1
            ]
        },
        {
            "translation" : [
                0.9099370837211609,
                -7.847942384842099e-08,
                3.285660454821482e-08
            ],
            "children" : [
                0
            ],
            "name" : "Arm_1_L_Sub",
            "rotation" : [
                -1.448338338150279e-09,
                7.1054265105680546e-15,
                -3.970466940254533e-22,
                1
            ]
        },
        {
            "translation" : [
                0.6800004839897156,
                -1.0251997082377784e-06,
                -6.927217555130483e-08
            ],
            "children" : [
                1
            ],
            "name" : "Arm_1_L",
            "rotation" : [
                1.1590163495611705e-08,
                2.23517560016262e-08,
                2.5906031529695866e-16,
                1
            ]
        },
        {
            "name" : "Clavicle_L",
            "children" : [
                2
            ],
            "scale" : [
                1,
                0.9999999403953552,
                1
            ],
            "translation" : [
                0.30000004172325134,
                0.7400006651878357,
                0.43000027537345886
            ],
            "rotation" : [
                -4.585655863653138e-21,
                -0.7071068286895752,
                5.708675118125698e-22,
                0.7071067094802856
            ]
        },
        {
            "translation" : [
                -0.8735305070877075,
                8.76063893429091e-07,
                -4.5124431835574796e-07
            ],
            "name" : "Arm_2_R",
            "rotation" : [
                4.142997056533204e-10,
                -7.087883678974582e-22,
                0,
                1
            ]
        },
        {
            "translation" : [
                -0.9099403619766235,
                -7.736186091733543e-08,
                -5.127532745063945e-07
            ],
            "children" : [
                4
            ],
            "name" : "Arm_1_R_Sub",
            "rotation" : [
                4.142748366575688e-10,
                -2.842170943040401e-14,
                -8.470329472543003e-22,
                1
            ]
        },
        {
            "translation" : [
                -0.6800003051757812,
                -1.0251995945509407e-06,
                -2.9100175424900954e-07
            ],
            "children" : [
                5
            ],
            "name" : "Arm_1_R",
            "rotation" : [
                9.72753966266282e-09,
                -1.3174158652873302e-08,
                -1.2815608491957564e-16,
                1
            ]
        },
        {
            "translation" : [
                0.3000001311302185,
                0.7400044798851013,
                -0.43000003695487976
            ],
            "children" : [
                6
            ],
            "name" : "Clavicle_R",
            "rotation" : [
                4.922559499341954e-21,
                -0.7071065902709961,
                -1.225960629624756e-21,
                0.7071069478988647
            ]
        },
        {
            "translation" : [
                7.450556438470812e-08,
                1.2499990463256836,
                2.6077020720549626e-07
            ],
            "children" : [
                3,
                7
            ],
            "name" : "Spine_3",
            "rotation" : [
                0,
                -8.251616335066412e-22,
                1.3855583347321954e-13,
                1
            ]
        },
        {
            "translation" : [
                7.748584351929821e-08,
                1.3000001907348633,
                2.712010598315828e-07
            ],
            "children" : [
                8
            ],
            "name" : "Spine_2",
            "rotation" : [
                -2.1859145488698287e-14,
                -3.5527119847346064e-15,
                -1.2789769243681803e-13,
                1
            ]
        },
        {
            "translation" : [
                4.126833152550552e-13,
                4.768373287333816e-07,
                -5.684341886080802e-14
            ],
            "children" : [
                9
            ],
            "name" : "Spine_1",
            "rotation" : [
                2.5121484414718752e-14,
                0.7071068286895752,
                3.0145777231904355e-14,
                0.7071068286895752
            ]
        },
        {
            "translation" : [
                1.1588628723302463e-07,
                -1.9400007724761963,
                -4.185160378256114e-07
            ],
            "name" : "Leg_2_L",
            "rotation" : [
                2.117582368135751e-22,
                -4.107242547009883e-22,
                6.758682502550073e-11,
                1
            ]
        },
        {
            "name" : "Leg_1_L_Sub",
            "children" : [
                11
            ],
            "scale" : [
                1,
                0.9999999403953552,
                1
            ],
            "translation" : [
                3.691917527248734e-08,
                -0.6501121520996094,
                -1.2049277131609415e-07
            ],
            "rotation" : [
                1.092957359138209e-14,
                8.602633941905306e-22,
                -1.6786395606871451e-09,
                1
            ]
        },
        {
            "translation" : [
                -0.01700013317167759,
                0.1399998664855957,
                -0.9100001454353333
            ],
            "children" : [
                12
            ],
            "name" : "Leg_1_L",
            "rotation" : [
                -8.602678370551488e-23,
                3.552713678800501e-15,
                1.432560736702726e-09,
                1
            ]
        },
        {
            "translation" : [
                -1.7622966197450296e-07,
                -1.9400005340576172,
                -4.1648939941296703e-07
            ],
            "name" : "Leg_2_R",
            "rotation" : [
                0,
                1.986467374800777e-22,
                6.758682502550073e-11,
                1
            ]
        },
        {
            "translation" : [
                -6.092512450095455e-08,
                -0.6501102447509766,
                -1.1846620395772334e-07
            ],
            "children" : [
                14
            ],
            "name" : "Leg_1_R_Sub",
            "rotation" : [
                -5.464786372174572e-15,
                -4.353324235405595e-22,
                -1.795065429632814e-09,
                1
            ]
        },
        {
            "translation" : [
                -0.01699988916516304,
                0.14000225067138672,
                0.9100002646446228
            ],
            "children" : [
                15
            ],
            "name" : "Leg_1_R",
            "rotation" : [
                8.538718780355418e-17,
                -5.960464477539063e-08,
                1.432560736702726e-09,
                1
            ]
        },
        {
            "name" : "Skirt_2_LB",
            "scale" : [
                0.9999999403953552,
                1,
                0.9999999403953552
            ],
            "translation" : [
                0.2470240443944931,
                -1.1575978994369507,
                0.029423490166664124
            ],
            "rotation" : [
                4.3371235491918014e-09,
                -0.0017209079815074801,
                2.29135590501528e-08,
                0.9999985694885254
            ]
        },
        {
            "translation" : [
                -1.4622288942337036,
                0.8125253915786743,
                -0.9980948567390442
            ],
            "children" : [
                17
            ],
            "name" : "Skirt_1_LB",
            "rotation" : [
                0,
                0.9674848318099976,
                0,
                0.25292932987213135
            ]
        },
        {
            "translation" : [
                0.2172243893146515,
                -1.0671167373657227,
                0.0031214430928230286
            ],
            "name" : "Skirt_2_LC",
            "rotation" : [
                -7.162420656570134e-10,
                0.009916877374053001,
                -7.1032047431474066e-12,
                0.9999508261680603
            ]
        },
        {
            "translation" : [
                -0.13759930431842804,
                0.8552727103233337,
                -1.8118301630020142
            ],
            "children" : [
                19
            ],
            "name" : "Skirt_1_LC",
            "rotation" : [
                0,
                0.7058343291282654,
                0,
                0.708376944065094
            ]
        },
        {
            "name" : "Skirt_2_LF",
            "scale" : [
                1.0000001192092896,
                1,
                1.0000001192092896
            ],
            "translation" : [
                0.17013920843601227,
                -1.1898280382156372,
                -0.028392411768436432
            ],
            "rotation" : [
                2.882110550217476e-09,
                0.0014827265404164791,
                -1.1456226189920926e-08,
                0.999998927116394
            ]
        },
        {
            "translation" : [
                1.4485702514648438,
                0.8389643430709839,
                -0.8714069724082947
            ],
            "children" : [
                21
            ],
            "name" : "Skirt_1_LF",
            "rotation" : [
                0,
                0.2408866137266159,
                0,
                0.9705532789230347
            ]
        },
        {
            "name" : "Skirt_2_RB",
            "scale" : [
                0.9999999403953552,
                1,
                0.9999999403953552
            ],
            "translation" : [
                0.2446904480457306,
                -1.1576007604599,
                -0.04486386105418205
            ],
            "rotation" : [
                -5.783067802411779e-09,
                0.002305111614987254,
                2.2907709507080654e-08,
                0.9999973773956299
            ]
        },
        {
            "translation" : [
                -1.4622304439544678,
                0.8125268220901489,
                0.9980955719947815
            ],
            "children" : [
                23
            ],
            "name" : "Skirt_1_RB",
            "rotation" : [
                0,
                -0.9749466776847839,
                0,
                0.22243890166282654
            ]
        },
        {
            "translation" : [
                0.21719390153884888,
                -1.067110538482666,
                -0.0046769860200583935
            ],
            "name" : "Skirt_2_RC",
            "rotation" : [
                1.0743612666175295e-09,
                0.00991703849285841,
                1.0655141699511539e-11,
                0.9999508261680603
            ]
        },
        {
            "name" : "Skirt_1_RC",
            "children" : [
                25
            ],
            "scale" : [
                0.9999999403953552,
                0.9999999403953552,
                0.9999999403953552
            ],
            "translation" : [
                -0.13759887218475342,
                0.8552703261375427,
                1.8118304014205933
            ],
            "rotation" : [
                -3.00006705263682e-22,
                -0.7083662152290344,
                0,
                0.7058451771736145
            ]
        },
        {
            "translation" : [
                0.16832174360752106,
                -1.1898280382156372,
                0.03770226985216141
            ],
            "name" : "Skirt_2_RF",
            "rotation" : [
                -2.8851632194459853e-09,
                -0.0017493992345407605,
                -1.1455449033803689e-08,
                0.9999985694885254
            ]
        },
        {
            "translation" : [
                1.4485708475112915,
                0.8389614820480347,
                0.8714075088500977
            ],
            "children" : [
                27
            ],
            "name" : "Skirt_1_RF",
            "rotation" : [
                0,
                -0.2141074389219284,
                0,
                0.9768101572990417
            ]
        },
        {
            "translation" : [
                -4.126833152550552e-13,
                4.768373287333816e-07,
                -5.684341886080802e-14
            ],
            "children" : [
                13,
                16,
                18,
                20,
                22,
                24,
                26,
                28
            ],
            "name" : "Waist",
            "rotation" : [
                2.5121484414718752e-14,
                -0.7071068286895752,
                -3.0145777231904355e-14,
                0.7071068286895752
            ]
        },
        {
            "children" : [
                10,
                29
            ],
            "translation" : [
                0,
                4.839999675750732,
                0
            ],
            "name" : "Skl_Root"
        },
        {
            "children" : [
                30
            ],
            "name" : "Root",
            "rotation" : [
                1.0033481601112726e-07,
                0,
                0,
                1
            ]
        },
        {
            "skin" : 0,
            "mesh" : 0,
            "name" : "Body__mTops"
        },
        {
            "children" : [
                32,
                31
            ],
            "name" : "Armature"
        }
    ],
    "materials" : [
        {
            "pbrMetallicRoughness" : {
                "baseColorTexture" : {
                    "index" : 0,
                    "texCoord" : 0
                }
            },
            "name" : "mTops.008"
        }
    ],
    "meshes" : [
        {
            "primitives" : [
                {
                    "indices" : 5,
                    "material" : 0,
                    "attributes" : {
                        "JOINTS_0" : 0,
                        "NORMAL" : 1,
                        "POSITION" : 2,
                        "TEXCOORD_0" : 3,
                        "WEIGHTS_0" : 4
                    }
                }
            ],
            "name" : "Body__mTops.017"
        }
    ],
    "textures" : [
        {
            "sampler" : 0,
            "source" : 0
        }
    ],
    "images" : [
        {
            "bufferView" : 6,
            "mimeType" : "image/png",
            "name" : "Dress_LS_Test.png"
        }
    ],
    "skins" : [
        {
            "inverseBindMatrices" : 6,
            "joints" : [
                31,
                30,
                10,
                9,
                8,
                3,
                2,
                1,
                0,
                7,
                6,
                5,
                4,
                29,
                13,
                12,
                11,
                16,
                15,
                14,
                18,
                17,
                20,
                19,
                22,
                21,
                24,
                23,
                26,
                25,
                28,
                27
            ],
            "name" : "Armature"
        }
    ],
    "accessors" : [
        {
            "bufferView" : 0,
            "count" : 547,
            "componentType" : 5123,
            "type" : "VEC4"
        },
        {
            "bufferView" : 1,
            "count" : 547,
            "componentType" : 5126,
            "type" : "VEC3"
        },
        {
            "min" : [
                -4.542078971862793,
                3.0018301010131836,
                -2.0142064094543457
            ],
            "max" : [
                4.542078971862793,
                8.898675918579102,
                1.7507245540618896
            ],
            "type" : "VEC3",
            "bufferView" : 2,
            "count" : 547,
            "componentType" : 5126
        },
        {
            "bufferView" : 3,
            "count" : 547,
            "componentType" : 5126,
            "type" : "VEC2"
        },
        {
            "bufferView" : 4,
            "count" : 547,
            "componentType" : 5126,
            "type" : "VEC4"
        },
        {
            "bufferView" : 5,
            "count" : 2712,
            "componentType" : 5123,
            "type" : "SCALAR"
        },
        {
            "bufferView" : 7,
            "count" : 32,
            "componentType" : 5126,
            "type" : "MAT4"
        }
    ],
    "bufferViews" : [
        {
            "byteOffset" : 0,
            "byteLength" : 4376,
            "buffer" : 0
        },
        {
            "byteOffset" : 4376,
            "byteLength" : 6564,
            "buffer" : 0
        },
        {
            "byteOffset" : 10940,
            "byteLength" : 6564,
            "buffer" : 0
        },
        {
            "byteOffset" : 17504,
            "byteLength" : 4376,
            "buffer" : 0
        },
        {
            "byteOffset" : 21880,
            "byteLength" : 8752,
            "buffer" : 0
        },
        {
            "byteOffset" : 30632,
            "byteLength" : 5424,
            "buffer" : 0
        },
        {
            "byteOffset" : 36056,
            "byteLength" : 119,
            "buffer" : 0
        },
        {
            "byteOffset" : 36176,
            "byteLength" : 2048,
            "buffer" : 0
        }
    ],
    "samplers" : [
        {
            "minFilter" : 9986,
            "magFilter" : 9729,
            "wrapT" : 10497,
            "wrapS" : 10497
        }
    ],
    "buffers" : [
        {
            "uri" : "data:application/octet-stream;base64,",
            "byteLength" : 38224
        }
    ]
}
