{
    "asset" : {
        "generator" : "Khronos glTF Blender I/O v1.2.20",
        "version" : "2.0"
    },
    "scene" : 0,
    "scenes" : [
        {
            "name" : "Scene",
            "nodes" : [
                37
            ]
        }
    ],
    "nodes" : [
        {
            "name" : "Arm_1_L",
            "translation" : [
                0.6800005435943604,
                -9.445003001928853e-08,
                -6.46857358788111e-08
            ],
            "rotation" : [
                -4.585047008731635e-09,
                2.2351748896198842e-08,
                -1.024871749695077e-16,
                1
            ]
        },
        {
            "name" : "Clavicle_L",
            "children" : [
                0
            ],
            "scale" : [
                0.9999999403953552,
                0.9999998211860657,
                0.9999999403953552
            ],
            "translation" : [
                0.30000004172325134,
                0.7400011420249939,
                0.43000027537345886
            ],
            "rotation" : [
                2.7017192039124893e-08,
                -0.7071068286895752,
                2.701717072284282e-08,
                0.7071067094802856
            ]
        },
        {
            "name" : "Arm_1_R",
            "translation" : [
                -0.6800004243850708,
                -9.445012238984418e-08,
                -2.8641579774557613e-07
            ],
            "rotation" : [
                -6.447695710676271e-09,
                -1.3174172863728018e-08,
                8.49446197060587e-17,
                1
            ]
        },
        {
            "name" : "Clavicle_R",
            "children" : [
                2
            ],
            "scale" : [
                0.9999999403953552,
                0.9999998807907104,
                0.9999999403953552
            ],
            "translation" : [
                0.3000001311302185,
                0.7400049567222595,
                -0.43000003695487976
            ],
            "rotation" : [
                2.7017183157340696e-08,
                -0.7071065902709961,
                2.7017192039124893e-08,
                0.7071069478988647
            ]
        },
        {
            "name" : "Spine_3",
            "children" : [
                1,
                3
            ],
            "translation" : [
                7.450572780953735e-08,
                1.2499995231628418,
                2.607702356272057e-07
            ],
            "rotation" : [
                3.643805634827302e-14,
                -4.343754002095394e-21,
                6.750155989720952e-14,
                1
            ]
        },
        {
            "name" : "Spine_2",
            "children" : [
                4
            ],
            "translation" : [
                7.748607089297366e-08,
                1.3000006675720215,
                2.712010598315828e-07
            ],
            "rotation" : [
                -3.643805634827302e-14,
                -3.5527107141851855e-15,
                -1.3500311979441904e-13,
                1
            ]
        },
        {
            "name" : "Spine_1",
            "children" : [
                5
            ],
            "translation" : [
                4.126833152550552e-13,
                1.8829382497642655e-13,
                -1.136867835115074e-13
            ],
            "rotation" : [
                -5.0242974758668135e-15,
                0.7071068286895752,
                -1.0048592410634785e-14,
                0.7071068286895752
            ]
        },
        {
            "name" : "Leg_2_L_Sub",
            "translation" : [
                1.0658833389243227e-06,
                -0.39000022411346436,
                -6.088810522442145e-08
            ],
            "rotation" : [
                4.554759584632969e-15,
                -3.2176437255389136e-22,
                -1.6718004758331517e-10,
                1
            ]
        },
        {
            "name" : "Leg_2_L",
            "children" : [
                7
            ],
            "translation" : [
                1.129011550915493e-07,
                -1.9400007724761963,
                -4.1851606624732085e-07
            ],
            "rotation" : [
                1.2705494208814505e-21,
                -6.926738959788379e-22,
                -1.6714452044652717e-10,
                1
            ]
        },
        {
            "name" : "Leg_1_L_Sub",
            "children" : [
                8
            ],
            "translation" : [
                3.9414430830220226e-08,
                -0.6501121520996094,
                -1.2049277131609415e-07
            ],
            "rotation" : [
                1.8219048502927243e-14,
                1.485966558656509e-21,
                2.984918978654605e-10,
                1
            ]
        },
        {
            "name" : "Leg_1_L",
            "children" : [
                9
            ],
            "translation" : [
                -0.01700013317167759,
                0.1399998664855957,
                -0.9100001454353333
            ],
            "rotation" : [
                0,
                3.552713678800501e-15,
                0,
                1
            ]
        },
        {
            "name" : "Leg_2_R_Sub",
            "translation" : [
                9.65710910350026e-07,
                -0.39000022411346436,
                -5.886159115675582e-08
            ],
            "rotation" : [
                -9.10951832223299e-15,
                -7.429664166375445e-22,
                2.984954505791393e-10,
                1
            ]
        },
        {
            "name" : "Leg_2_R",
            "children" : [
                11
            ],
            "translation" : [
                -1.7996416090682033e-07,
                -1.9400007724761963,
                -4.1648942783467646e-07
            ],
            "rotation" : [
                -1.1166938269465874e-22,
                2.1089470549050947e-24,
                -3.999822695277544e-10,
                1
            ]
        },
        {
            "name" : "Leg_1_R_Sub",
            "children" : [
                12
            ],
            "translation" : [
                -5.8429868943221663e-08,
                -0.6501102447509766,
                -1.1846620395772334e-07
            ],
            "rotation" : [
                -6.203854594147708e-23,
                -1.7763568394002505e-15,
                4.149782739659713e-10,
                1
            ]
        },
        {
            "name" : "Leg_1_R",
            "children" : [
                13
            ],
            "translation" : [
                -0.01699988916516304,
                0.14000225067138672,
                0.9100002646446228
            ],
            "rotation" : [
                0,
                -5.960464477539063e-08,
                0,
                1
            ]
        },
        {
            "name" : "Z_Skirt_LB",
            "translation" : [
                0.7912101149559021,
                -1.8358473777770996,
                0.06048733741044998
            ],
            "rotation" : [
                -7.641616406317553e-08,
                -2.927908295587839e-15,
                -1.5283232812635106e-07,
                1
            ]
        },
        {
            "name" : "Skirt_2_LB",
            "children" : [
                15
            ],
            "scale" : [
                0.9999999403953552,
                0.9999999403953552,
                0.9999999403953552
            ],
            "translation" : [
                0.3119716942310333,
                -1.4332579374313354,
                0.05437159910798073
            ],
            "rotation" : [
                3.8077757835708326e-08,
                0.0034048312809318304,
                3.833794437468896e-08,
                0.9999942183494568
            ]
        },
        {
            "name" : "Skirt_1_LB",
            "children" : [
                16
            ],
            "translation" : [
                -1.3961187601089478,
                0.9864670038223267,
                -0.9055653810501099
            ],
            "rotation" : [
                0,
                0.967086136341095,
                0,
                0.2544492483139038
            ]
        },
        {
            "name" : "Z_Skirt_LC",
            "translation" : [
                0.8441194891929626,
                -1.8131372928619385,
                -7.914917659945786e-05
            ],
            "rotation" : [
                -6.529887741635321e-11,
                -2.514887556102627e-22,
                1.401839527705867e-19,
                1
            ]
        },
        {
            "name" : "Skirt_2_LC",
            "children" : [
                18
            ],
            "translation" : [
                0.32746174931526184,
                -1.3074088096618652,
                -6.519146700156853e-05
            ],
            "rotation" : [
                -2.984990032928181e-10,
                -4.459292540559545e-06,
                1.3312359434204321e-15,
                1
            ]
        },
        {
            "name" : "Skirt_1_LC",
            "children" : [
                19
            ],
            "translation" : [
                -0.02522319369018078,
                0.9863476753234863,
                -1.7282490730285645
            ],
            "rotation" : [
                -2.994765150047266e-22,
                0.7071189284324646,
                5.024075129718159e-15,
                0.707094669342041
            ]
        },
        {
            "name" : "Z_Skirt_LF",
            "translation" : [
                0.6137422919273376,
                -1.9025992155075073,
                -0.05863901600241661
            ],
            "rotation" : [
                -7.164015158878101e-08,
                -5.43077545824347e-15,
                7.641616406317553e-08,
                1
            ]
        },
        {
            "name" : "Skirt_2_LF",
            "children" : [
                21
            ],
            "translation" : [
                0.2318955808877945,
                -1.382876992225647,
                -0.04781095311045647
            ],
            "rotation" : [
                3.324990771602643e-08,
                -0.002382314996793866,
                -7.6495553003042e-08,
                0.9999971985816956
            ]
        },
        {
            "name" : "Skirt_1_LF",
            "children" : [
                22
            ],
            "translation" : [
                1.4000476598739624,
                0.9335297346115112,
                -0.8871075510978699
            ],
            "rotation" : [
                0,
                0.22292615473270416,
                0,
                0.9748353362083435
            ]
        },
        {
            "name" : "Z_Skirt_RB",
            "translation" : [
                0.7812214493751526,
                -1.8358521461486816,
                -0.139170303940773
            ],
            "rotation" : [
                5.7312153245447917e-08,
                -1.4901160305669237e-08,
                -1.5283242760233406e-07,
                1
            ]
        },
        {
            "name" : "Skirt_2_RB",
            "children" : [
                24
            ],
            "translation" : [
                0.30549120903015137,
                -1.4332607984542847,
                -0.08341658860445023
            ],
            "rotation" : [
                -2.816666011540292e-08,
                -0.006396916229277849,
                7.659797063297447e-08,
                0.999979555606842
            ]
        },
        {
            "name" : "Skirt_1_RB",
            "children" : [
                25
            ],
            "scale" : [
                0.9999999403953552,
                1,
                0.9999999403953552
            ],
            "translation" : [
                -1.3961201906204224,
                0.9864708185195923,
                0.9055653214454651
            ],
            "rotation" : [
                -8.510446646990862e-15,
                -0.9779741168022156,
                0,
                0.20872671902179718
            ]
        },
        {
            "name" : "Z_Skirt_RC",
            "translation" : [
                0.8441205620765686,
                -1.813140630722046,
                0.00019420894386712462
            ],
            "rotation" : [
                7.462475082320452e-11,
                -3.7884872054928668e-22,
                -4.2944570425793027e-19,
                1
            ]
        },
        {
            "name" : "Skirt_2_RC",
            "children" : [
                27
            ],
            "translation" : [
                0.3274628221988678,
                -1.3074092864990234,
                0.000107123218185734
            ],
            "rotation" : [
                2.984990032928181e-10,
                8.82149106473662e-06,
                2.6332983780715316e-15,
                1
            ]
        },
        {
            "name" : "Skirt_1_RC",
            "children" : [
                28
            ],
            "translation" : [
                -0.025222737342119217,
                0.9863500595092773,
                1.7282499074935913
            ],
            "rotation" : [
                0,
                -0.7070737481117249,
                0,
                0.7071398496627808
            ]
        },
        {
            "name" : "Z_Skirt_RF",
            "scale" : [
                0.9999999403953552,
                0.9999998807907104,
                0.9999999403953552
            ],
            "translation" : [
                0.6065978407859802,
                -1.9025987386703491,
                0.11025868356227875
            ],
            "rotation" : [
                4.7760106980376804e-08,
                1.4901164746561335e-08,
                7.641617116860289e-08,
                1
            ]
        },
        {
            "name" : "Skirt_2_RF",
            "children" : [
                30
            ],
            "translation" : [
                0.2272283285856247,
                -1.382876992225647,
                0.06655477732419968
            ],
            "rotation" : [
                -2.8361316850578078e-08,
                0.0038540647365152836,
                -7.652599975926933e-08,
                0.9999926090240479
            ]
        },
        {
            "name" : "Skirt_1_RF",
            "children" : [
                31
            ],
            "translation" : [
                1.4000473022460938,
                0.9335297346115112,
                0.8871074318885803
            ],
            "rotation" : [
                0,
                -0.18297599256038666,
                0,
                0.983117401599884
            ]
        },
        {
            "name" : "Waist",
            "children" : [
                10,
                14,
                17,
                20,
                23,
                26,
                29,
                32
            ],
            "translation" : [
                -4.126833152550552e-13,
                1.8829382497642655e-13,
                -1.136867835115074e-13
            ],
            "rotation" : [
                -5.0242974758668135e-15,
                -0.7071068286895752,
                1.0048592410634785e-14,
                0.7071068286895752
            ]
        },
        {
            "name" : "Skl_Root",
            "children" : [
                6,
                33
            ],
            "scale" : [
                1,
                0.9999999403953552,
                1
            ],
            "translation" : [
                0,
                4.840000152587891,
                0
            ],
            "rotation" : [
                7.105427357601002e-14,
                0,
                0,
                1
            ]
        },
        {
            "name" : "Root",
            "children" : [
                34
            ],
            "rotation" : [
                1.0033481601112726e-07,
                0,
                0,
                1
            ]
        },
        {
            "name" : "Body__mTops",
            "skin" : 0,
            "mesh" : 0
        },
        {
            "name" : "Armature",
            "children" : [
                36,
                35
            ]
        }
    ],
    "materials" : [
        {
            "name" : "mTops.003",
            "pbrMetallicRoughness" : {
                "baseColorTexture" : {
                    "index" : 0,
                    "texCoord" : 0
                }
            }
        }
    ],
    "meshes" : [
        {
            "name" : "Body__mTops.006",
            "primitives" : [
                {
                    "attributes" : {
                        "WEIGHTS_0" : 0,
                        "NORMAL" : 1,
                        "JOINTS_0" : 2,
                        "COLOR_0" : 3,
                        "TEXCOORD_0" : 4,
                        "POSITION" : 5
                    },
                    "indices" : 6,
                    "material" : 0
                }
            ]
        }
    ],
    "textures" : [
        {
            "source" : 0,
            "sampler" : 0
        }
    ],
    "images" : [
        {
            "name" : "Dress_LS_Test.png",
            "mimeType" : "image/png",
            "bufferView" : 7
        }
    ],
    "skins" : [
        {
            "name" : "Armature",
            "inverseBindMatrices" : 7,
            "joints" : [
                35,
                34,
                6,
                5,
                4,
                1,
                0,
                3,
                2,
                33,
                10,
                9,
                8,
                7,
                14,
                13,
                12,
                11,
                17,
                16,
                15,
                20,
                19,
                18,
                23,
                22,
                21,
                26,
                25,
                24,
                29,
                28,
                27,
                32,
                31,
                30
            ]
        }
    ],
    "accessors" : [
        {
            "componentType" : 5126,
            "type" : "VEC4",
            "bufferView" : 0,
            "count" : 336
        },
        {
            "componentType" : 5126,
            "type" : "VEC3",
            "bufferView" : 1,
            "count" : 336
        },
        {
            "componentType" : 5123,
            "type" : "VEC4",
            "bufferView" : 2,
            "count" : 336
        },
        {
            "componentType" : 5126,
            "type" : "VEC4",
            "bufferView" : 3,
            "count" : 336
        },
        {
            "componentType" : 5126,
            "type" : "VEC2",
            "bufferView" : 4,
            "count" : 336
        },
        {
            "min" : [
                -2.794295072555542,
                2.747312545776367,
                -2.604442596435547
            ],
            "type" : "VEC3",
            "componentType" : 5126,
            "bufferView" : 5,
            "max" : [
                2.7942938804626465,
                8.694147109985352,
                2.5332133769989014
            ],
            "count" : 336
        },
        {
            "componentType" : 5123,
            "type" : "SCALAR",
            "bufferView" : 6,
            "count" : 1656
        },
        {
            "componentType" : 5126,
            "type" : "MAT4",
            "bufferView" : 8,
            "count" : 36
        }
    ],
    "bufferViews" : [
        {
            "byteLength" : 5376,
            "byteOffset" : 0,
            "buffer" : 0
        },
        {
            "byteLength" : 4032,
            "byteOffset" : 5376,
            "buffer" : 0
        },
        {
            "byteLength" : 2688,
            "byteOffset" : 9408,
            "buffer" : 0
        },
        {
            "byteLength" : 5376,
            "byteOffset" : 12096,
            "buffer" : 0
        },
        {
            "byteLength" : 2688,
            "byteOffset" : 17472,
            "buffer" : 0
        },
        {
            "byteLength" : 4032,
            "byteOffset" : 20160,
            "buffer" : 0
        },
        {
            "byteLength" : 3312,
            "byteOffset" : 24192,
            "buffer" : 0
        },
        {
            "byteLength" : 119,
            "byteOffset" : 27504,
            "buffer" : 0
        },
        {
            "byteLength" : 2304,
            "byteOffset" : 27624,
            "buffer" : 0
        }
    ],
    "samplers" : [
        {
            "wrapS" : 10497,
            "magFilter" : 9729,
            "minFilter" : 9986,
            "wrapT" : 10497
        }
    ],
    "buffers" : [
        {
            "uri" : "data:application/octet-stream;base64,",
            "byteLength" : 29928
        }
    ]
}
