{
    "asset" : {
        "generator" : "Khronos glTF Blender I/O v1.2.20",
        "version" : "2.0"
    },
    "scene" : 0,
    "scenes" : [
        {
            "nodes" : [
                29
            ],
            "name" : "Scene"
        }
    ],
    "nodes" : [
        {
            "translation" : [
                0.6800004839897156,
                -9.5367431640625e-07,
                -2.622635975058074e-08
            ],
            "name" : "Arm_1_L",
            "rotation" : [
                1.8626504783014752e-09,
                2.23517560016262e-08,
                4.163351231595363e-17,
                1
            ]
        },
        {
            "name" : "Clavicle_L",
            "children" : [
                0
            ],
            "scale" : [
                1,
                0.9999999403953552,
                1
            ],
            "translation" : [
                0.30000004172325134,
                0.7400007247924805,
                0.43000027537345886
            ],
            "rotation" : [
                0,
                -0.7071068286895752,
                0,
                0.7071067094802856
            ]
        },
        {
            "translation" : [
                -0.6800003051757812,
                -9.5367431640625e-07,
                -2.7775757871495443e-07
            ],
            "name" : "Arm_1_R",
            "rotation" : [
                0,
                -1.3174158652873302e-08,
                0,
                1
            ]
        },
        {
            "translation" : [
                0.3000001311302185,
                0.7400045394897461,
                -0.43000003695487976
            ],
            "children" : [
                2
            ],
            "name" : "Clavicle_R",
            "rotation" : [
                0,
                -0.7071065902709961,
                0,
                0.7071069478988647
            ]
        },
        {
            "children" : [
                1,
                3
            ],
            "translation" : [
                7.450578465295621e-08,
                1.2499990463256836,
                2.6077020720549626e-07
            ],
            "name" : "Spine_3"
        },
        {
            "children" : [
                4
            ],
            "translation" : [
                7.748590036271708e-08,
                1.3000001907348633,
                2.712010598315828e-07
            ],
            "name" : "Spine_2"
        },
        {
            "translation" : [
                4.126833152550552e-13,
                4.76837158203125e-07,
                -6.878046445108268e-14
            ],
            "children" : [
                5
            ],
            "name" : "Spine_1",
            "rotation" : [
                0,
                0.7071068286895752,
                0,
                0.7071068286895752
            ]
        },
        {
            "translation" : [
                1.1657547105414778e-07,
                -1.9400007724761963,
                -4.1851598098219256e-07
            ],
            "name" : "Leg_2_L",
            "rotation" : [
                0,
                0,
                2.328326975664652e-10,
                1
            ]
        },
        {
            "name" : "Leg_1_L_Sub",
            "children" : [
                7
            ],
            "scale" : [
                1,
                0.9999999403953552,
                1
            ],
            "translation" : [
                3.890078659196661e-08,
                -0.6501121520996094,
                -1.2049277131609415e-07
            ],
            "rotation" : [
                0,
                0,
                -1.164163487832326e-10,
                1
            ]
        },
        {
            "children" : [
                8
            ],
            "translation" : [
                -0.01700013317167759,
                0.1399998664855957,
                -0.9100001454353333
            ],
            "name" : "Leg_1_L"
        },
        {
            "translation" : [
                -1.7628948967285396e-07,
                -1.9400005340576172,
                -4.1648942783467646e-07
            ],
            "name" : "Leg_2_R"
        },
        {
            "children" : [
                10
            ],
            "translation" : [
                -5.8942823955021595e-08,
                -0.6501102447509766,
                -1.1846620395772334e-07
            ],
            "name" : "Leg_1_R_Sub"
        },
        {
            "translation" : [
                -0.01699989102780819,
                0.14000225067138672,
                0.9100002646446228
            ],
            "children" : [
                11
            ],
            "name" : "Leg_1_R",
            "rotation" : [
                0,
                -5.960464477539063e-08,
                0,
                1
            ]
        },
        {
            "name" : "Skirt_2_LB",
            "scale" : [
                0.9999999403953552,
                1,
                0.9999999403953552
            ],
            "translation" : [
                0.20918431878089905,
                -1.2213678359985352,
                0.036830008029937744
            ],
            "rotation" : [
                0,
                -0.002699399832636118,
                0,
                0.9999963641166687
            ]
        },
        {
            "translation" : [
                -1.4126558303833008,
                0.8752517700195312,
                -0.9055648446083069
            ],
            "children" : [
                13
            ],
            "name" : "Skirt_1_LB",
            "rotation" : [
                0,
                0.9828525185585022,
                0,
                0.18439340591430664
            ]
        },
        {
            "translation" : [
                0.11862301826477051,
                -1.202864646911621,
                -9.693150059320033e-05
            ],
            "name" : "Skirt_2_LC",
            "rotation" : [
                0,
                2.458880771882832e-06,
                0,
                1
            ]
        },
        {
            "name" : "Skirt_1_LC",
            "children" : [
                15
            ],
            "scale" : [
                1,
                0.9999999403953552,
                1
            ],
            "translation" : [
                -0.025223184376955032,
                0.9863462448120117,
                -1.7282496690750122
            ],
            "rotation" : [
                0,
                0.7071351408958435,
                0,
                0.7070785164833069
            ]
        },
        {
            "translation" : [
                0.12785211205482483,
                -1.292872428894043,
                -0.02803795039653778
            ],
            "name" : "Skirt_2_LF",
            "rotation" : [
                0,
                0.0010449296096339822,
                0,
                0.999999463558197
            ]
        },
        {
            "translation" : [
                1.40364408493042,
                0.9862203598022461,
                -0.9055647253990173
            ],
            "children" : [
                17
            ],
            "name" : "Skirt_1_LF",
            "rotation" : [
                0,
                0.21922817826271057,
                0,
                0.9756736159324646
            ]
        },
        {
            "name" : "Skirt_2_RB",
            "scale" : [
                0.9999999403953552,
                1,
                0.9999999403953552
            ],
            "translation" : [
                0.20602184534072876,
                -1.2213706970214844,
                -0.05166900157928467
            ],
            "rotation" : [
                0,
                0.0032053308095782995,
                0,
                0.9999948740005493
            ]
        },
        {
            "translation" : [
                -1.412660002708435,
                0.8752527236938477,
                0.9055652618408203
            ],
            "children" : [
                19
            ],
            "name" : "Skirt_1_RB",
            "rotation" : [
                0,
                -0.9888113141059875,
                0,
                0.14917175471782684
            ]
        },
        {
            "translation" : [
                0.1186240017414093,
                -1.2028679847717285,
                0.00011797866318374872
            ],
            "name" : "Skirt_2_RC",
            "rotation" : [
                0,
                -2.980228600790724e-06,
                0,
                1
            ]
        },
        {
            "translation" : [
                -0.02522273175418377,
                0.9863486289978027,
                1.7282510995864868
            ],
            "children" : [
                21
            ],
            "name" : "Skirt_1_RC",
            "rotation" : [
                0,
                -0.7070722579956055,
                0,
                0.7071412801742554
            ]
        },
        {
            "translation" : [
                0.12636372447013855,
                -1.2928729057312012,
                0.03412094712257385
            ],
            "name" : "Skirt_2_RF",
            "rotation" : [
                0,
                -0.001159445266239345,
                0,
                0.9999993443489075
            ]
        },
        {
            "translation" : [
                1.4036446809768677,
                0.9862208366394043,
                0.9055657982826233
            ],
            "children" : [
                23
            ],
            "name" : "Skirt_1_RF",
            "rotation" : [
                0,
                -0.1958233118057251,
                0,
                0.9806392192840576
            ]
        },
        {
            "translation" : [
                -4.126833152550552e-13,
                4.76837158203125e-07,
                -6.878046445108268e-14
            ],
            "children" : [
                9,
                12,
                14,
                16,
                18,
                20,
                22,
                24
            ],
            "name" : "Waist",
            "rotation" : [
                0,
                -0.7071068286895752,
                0,
                0.7071068286895752
            ]
        },
        {
            "children" : [
                6,
                25
            ],
            "translation" : [
                0,
                4.839999675750732,
                0
            ],
            "name" : "Skl_Root"
        },
        {
            "children" : [
                26
            ],
            "name" : "Root",
            "rotation" : [
                -0.7071068286895752,
                0,
                0,
                0.7071068286895752
            ]
        },
        {
            "skin" : 0,
            "mesh" : 0,
            "name" : "Body__mTops"
        },
        {
            "children" : [
                28,
                27
            ],
            "name" : "Armature",
            "rotation" : [
                0.7071068286895752,
                0,
                0,
                0.7071067094802856
            ]
        }
    ],
    "materials" : [
        {
            "pbrMetallicRoughness" : {
                "baseColorTexture" : {
                    "index" : 0,
                    "texCoord" : 0
                }
            },
            "name" : "mTops"
        }
    ],
    "meshes" : [
        {
            "primitives" : [
                {
                    "indices" : 5,
                    "material" : 0,
                    "attributes" : {
                        "JOINTS_0" : 0,
                        "NORMAL" : 1,
                        "POSITION" : 2,
                        "TEXCOORD_0" : 3,
                        "WEIGHTS_0" : 4
                    }
                }
            ],
            "name" : "Body__mTops"
        }
    ],
    "textures" : [
        {
            "sampler" : 0,
            "source" : 0
        }
    ],
    "images" : [
        {
            "bufferView" : 6,
            "mimeType" : "image/png",
            "name" : "Dress_LS_Test.png"
        }
    ],
    "skins" : [
        {
            "inverseBindMatrices" : 6,
            "joints" : [
                27,
                26,
                6,
                5,
                4,
                1,
                0,
                3,
                2,
                25,
                9,
                8,
                7,
                12,
                11,
                10,
                14,
                13,
                16,
                15,
                18,
                17,
                20,
                19,
                22,
                21,
                24,
                23
            ],
            "name" : "Armature"
        }
    ],
    "accessors" : [
        {
            "bufferView" : 0,
            "count" : 325,
            "componentType" : 5123,
            "type" : "VEC4"
        },
        {
            "bufferView" : 1,
            "count" : 325,
            "componentType" : 5126,
            "type" : "VEC3"
        },
        {
            "min" : [
                -1.9412540197372437,
                2.628908157348633,
                -1.7700214385986328
            ],
            "max" : [
                1.9412540197372437,
                8.874954223632812,
                1.7473804950714111
            ],
            "type" : "VEC3",
            "bufferView" : 2,
            "count" : 325,
            "componentType" : 5126
        },
        {
            "bufferView" : 3,
            "count" : 325,
            "componentType" : 5126,
            "type" : "VEC2"
        },
        {
            "bufferView" : 4,
            "count" : 325,
            "componentType" : 5126,
            "type" : "VEC4"
        },
        {
            "bufferView" : 5,
            "count" : 1608,
            "componentType" : 5123,
            "type" : "SCALAR"
        },
        {
            "bufferView" : 7,
            "count" : 28,
            "componentType" : 5126,
            "type" : "MAT4"
        }
    ],
    "bufferViews" : [
        {
            "byteOffset" : 0,
            "byteLength" : 2600,
            "buffer" : 0
        },
        {
            "byteOffset" : 2600,
            "byteLength" : 3900,
            "buffer" : 0
        },
        {
            "byteOffset" : 6500,
            "byteLength" : 3900,
            "buffer" : 0
        },
        {
            "byteOffset" : 10400,
            "byteLength" : 2600,
            "buffer" : 0
        },
        {
            "byteOffset" : 13000,
            "byteLength" : 5200,
            "buffer" : 0
        },
        {
            "byteOffset" : 18200,
            "byteLength" : 3216,
            "buffer" : 0
        },
        {
            "byteOffset" : 21416,
            "byteLength" : 119,
            "buffer" : 0
        },
        {
            "byteOffset" : 21536,
            "byteLength" : 1792,
            "buffer" : 0
        }
    ],
    "samplers" : [
        {
            "minFilter" : 9986,
            "magFilter" : 9729,
            "wrapT" : 10497,
            "wrapS" : 10497
        }
    ],
    "buffers" : [
        {
            "uri" : "data:application/octet-stream;base64,",
            "byteLength" : 23328
        }
    ]
}
