{
    "asset" : {
        "version" : "2.0",
        "generator" : "Khronos glTF Blender I/O v1.2.20"
    },
    "scene" : 0,
    "scenes" : [
        {
            "nodes" : [
                25
            ],
            "name" : "Scene"
        }
    ],
    "nodes" : [
        {
            "rotation" : [
                7.56010365421389e-09,
                2.23517560016262e-08,
                1.6898254358164088e-16,
                1
            ],
            "translation" : [
                0.6800004839897156,
                -1.0251995945509407e-06,
                -3.9469284729420906e-08
            ],
            "name" : "Arm_1_L"
        },
        {
            "rotation" : [
                -3.8182604568865906e-21,
                -0.7071068286895752,
                -8.422618660124257e-23,
                0.7071067094802856
            ],
            "scale" : [
                1,
                0.9999999403953552,
                1
            ],
            "translation" : [
                0.30000004172325134,
                0.7400006651878357,
                0.43000027537345886
            ],
            "children" : [
                0
            ],
            "name" : "Clavicle_L"
        },
        {
            "rotation" : [
                5.697462057696612e-09,
                -1.3174158652873302e-08,
                -7.505897758799257e-17,
                1
            ],
            "translation" : [
                -0.6800003051757812,
                -1.0251995945509407e-06,
                -2.9100118581482093e-07
            ],
            "name" : "Arm_1_R"
        },
        {
            "rotation" : [
                5.287540019933906e-21,
                -0.7071065902709961,
                2.3115441048759316e-21,
                0.7071069478988647
            ],
            "translation" : [
                0.3000001311302185,
                0.7400044798851013,
                -0.43000003695487976
            ],
            "children" : [
                2
            ],
            "name" : "Clavicle_R"
        },
        {
            "rotation" : [
                4.235164736271502e-22,
                -7.888895818926384e-22,
                3.552713678800501e-14,
                1
            ],
            "translation" : [
                7.450567807154584e-08,
                1.2499990463256836,
                2.6077017878378683e-07
            ],
            "children" : [
                1,
                3
            ],
            "name" : "Spine_3"
        },
        {
            "rotation" : [
                -2.08983051946509e-14,
                -3.5527119847346064e-15,
                -2.842170943040401e-14,
                1
            ],
            "translation" : [
                7.748590036271708e-08,
                1.3000001907348633,
                2.712010598315828e-07
            ],
            "children" : [
                4
            ],
            "name" : "Spine_2"
        },
        {
            "rotation" : [
                -5.02429705235034e-15,
                0.7071068286895752,
                -5.0242962053173926e-15,
                0.7071068286895752
            ],
            "translation" : [
                4.126833152550552e-13,
                4.768373287333816e-07,
                -1.1368683772161603e-13
            ],
            "children" : [
                5
            ],
            "name" : "Spine_1"
        },
        {
            "rotation" : [
                0,
                3.552713678800501e-15,
                0,
                1
            ],
            "translation" : [
                -0.01700013503432274,
                0.1399998664855957,
                -0.9100001454353333
            ],
            "name" : "Leg_1_L"
        },
        {
            "rotation" : [
                -2.117582368135751e-22,
                -5.960464477539063e-08,
                0,
                1
            ],
            "translation" : [
                -0.01699989102780819,
                0.14000225067138672,
                0.9100002646446228
            ],
            "name" : "Leg_1_R"
        },
        {
            "rotation" : [
                5.519899648476212e-09,
                0.0037943993229418993,
                -1.0935864658279115e-08,
                0.999992847442627
            ],
            "translation" : [
                0.23289334774017334,
                -1.1370686292648315,
                -0.016131479293107986
            ],
            "name" : "Skirt_2_LB"
        },
        {
            "rotation" : [
                0,
                0.9578434824943542,
                0,
                0.2872905433177948
            ],
            "translation" : [
                -1.3716684579849243,
                1.1606236696243286,
                -0.9137968420982361
            ],
            "children" : [
                9
            ],
            "name" : "Skirt_1_LB"
        },
        {
            "rotation" : [
                1.150247896930523e-09,
                1.899309063446708e-05,
                2.1846504368993463e-14,
                1
            ],
            "translation" : [
                0.2011846899986267,
                -1.1165132522583008,
                -8.400961814913899e-05
            ],
            "name" : "Skirt_2_LC"
        },
        {
            "rotation" : [
                0,
                0.7071327567100525,
                0,
                0.7070808410644531
            ],
            "scale" : [
                1,
                0.9999999403953552,
                1
            ],
            "translation" : [
                -0.12396291643381119,
                1.1454672813415527,
                -1.7598048448562622
            ],
            "children" : [
                11
            ],
            "name" : "Skirt_1_LC"
        },
        {
            "rotation" : [
                4.134531828015042e-09,
                0.004710040986537933,
                -5.458947960335081e-09,
                0.9999889135360718
            ],
            "translation" : [
                0.11135894060134888,
                -1.1260849237442017,
                -0.02442082390189171
            ],
            "name" : "Skirt_2_LF"
        },
        {
            "rotation" : [
                0,
                0.21922817826271057,
                0,
                0.9756736159324646
            ],
            "translation" : [
                1.4929420948028564,
                1.1426070928573608,
                -0.8871185183525085
            ],
            "children" : [
                13
            ],
            "name" : "Skirt_1_LF"
        },
        {
            "rotation" : [
                -1.329209076139648e-09,
                -0.0036846655420958996,
                1.096170620940029e-08,
                0.9999932050704956
            ],
            "scale" : [
                0.9999998807907104,
                1,
                0.9999998807907104
            ],
            "translation" : [
                0.23219160735607147,
                -1.1370652914047241,
                0.024217408150434494
            ],
            "name" : "Skirt_2_RB"
        },
        {
            "rotation" : [
                0,
                -0.9527049660682678,
                0,
                0.30389684438705444
            ],
            "translation" : [
                -1.371670126914978,
                1.1606189012527466,
                0.9137973785400391
            ],
            "children" : [
                15
            ],
            "name" : "Skirt_1_RB"
        },
        {
            "rotation" : [
                -1.1502443442168442e-09,
                -1.800059908418916e-05,
                2.0704941125319898e-14,
                1
            ],
            "translation" : [
                0.20118294656276703,
                -1.1165122985839844,
                0.00012020219583064318
            ],
            "name" : "Skirt_2_RC"
        },
        {
            "rotation" : [
                0,
                -0.707069456577301,
                0,
                0.7071442008018494
            ],
            "translation" : [
                -0.1239628717303276,
                1.1454658508300781,
                1.7598114013671875
            ],
            "children" : [
                17
            ],
            "name" : "Skirt_1_RC"
        },
        {
            "rotation" : [
                -4.174327106198916e-09,
                -0.003990622237324715,
                -1.6418573167698014e-08,
                0.9999920725822449
            ],
            "translation" : [
                0.11006279289722443,
                -1.1260849237442017,
                0.02971910499036312
            ],
            "name" : "Skirt_2_RF"
        },
        {
            "rotation" : [
                0,
                -0.1958233118057251,
                0,
                0.9806392192840576
            ],
            "translation" : [
                1.4929423332214355,
                1.1426066160202026,
                0.8871197700500488
            ],
            "children" : [
                19
            ],
            "name" : "Skirt_1_RF"
        },
        {
            "rotation" : [
                -5.02429705235034e-15,
                -0.7071068286895752,
                5.0242962053173926e-15,
                0.7071068286895752
            ],
            "translation" : [
                -4.126833152550552e-13,
                4.768373287333816e-07,
                -1.1368683772161603e-13
            ],
            "children" : [
                7,
                8,
                10,
                12,
                14,
                16,
                18,
                20
            ],
            "name" : "Waist"
        },
        {
            "translation" : [
                0,
                4.839999675750732,
                -5.684341886080802e-14
            ],
            "children" : [
                6,
                21
            ],
            "name" : "Skl_Root"
        },
        {
            "rotation" : [
                1.0033481601112726e-07,
                0,
                0,
                1
            ],
            "children" : [
                22
            ],
            "name" : "Root"
        },
        {
            "skin" : 0,
            "mesh" : 0,
            "name" : "Body__mTops"
        },
        {
            "children" : [
                24,
                23
            ],
            "name" : "Armature"
        }
    ],
    "materials" : [
        {
            "pbrMetallicRoughness" : {
                "baseColorTexture" : {
                    "texCoord" : 0,
                    "index" : 0
                }
            },
            "name" : "mTops.001"
        }
    ],
    "meshes" : [
        {
            "primitives" : [
                {
                    "indices" : 5,
                    "material" : 0,
                    "attributes" : {
                        "TEXCOORD_0" : 0,
                        "POSITION" : 1,
                        "NORMAL" : 2,
                        "WEIGHTS_0" : 3,
                        "JOINTS_0" : 4
                    }
                }
            ],
            "name" : "Body__mTops.002"
        }
    ],
    "textures" : [
        {
            "sampler" : 0,
            "source" : 0
        }
    ],
    "images" : [
        {
            "mimeType" : "image/png",
            "bufferView" : 6,
            "name" : "Dress_LS_Test.png"
        }
    ],
    "skins" : [
        {
            "inverseBindMatrices" : 6,
            "joints" : [
                23,
                22,
                6,
                5,
                4,
                1,
                0,
                3,
                2,
                21,
                7,
                8,
                10,
                9,
                12,
                11,
                14,
                13,
                16,
                15,
                18,
                17,
                20,
                19
            ],
            "name" : "Armature"
        }
    ],
    "accessors" : [
        {
            "bufferView" : 0,
            "type" : "VEC2",
            "count" : 318,
            "componentType" : 5126
        },
        {
            "bufferView" : 1,
            "max" : [
                1.9636799097061157,
                8.934866905212402,
                1.7527527809143066
            ],
            "type" : "VEC3",
            "min" : [
                -1.9636449813842773,
                2.9829888343811035,
                -1.8402332067489624
            ],
            "count" : 318,
            "componentType" : 5126
        },
        {
            "bufferView" : 2,
            "type" : "VEC3",
            "count" : 318,
            "componentType" : 5126
        },
        {
            "bufferView" : 3,
            "type" : "VEC4",
            "count" : 318,
            "componentType" : 5126
        },
        {
            "bufferView" : 4,
            "type" : "VEC4",
            "count" : 318,
            "componentType" : 5123
        },
        {
            "bufferView" : 5,
            "type" : "SCALAR",
            "count" : 1548,
            "componentType" : 5123
        },
        {
            "bufferView" : 7,
            "type" : "MAT4",
            "count" : 24,
            "componentType" : 5126
        }
    ],
    "bufferViews" : [
        {
            "buffer" : 0,
            "byteLength" : 2544,
            "byteOffset" : 0
        },
        {
            "buffer" : 0,
            "byteLength" : 3816,
            "byteOffset" : 2544
        },
        {
            "buffer" : 0,
            "byteLength" : 3816,
            "byteOffset" : 6360
        },
        {
            "buffer" : 0,
            "byteLength" : 5088,
            "byteOffset" : 10176
        },
        {
            "buffer" : 0,
            "byteLength" : 2544,
            "byteOffset" : 15264
        },
        {
            "buffer" : 0,
            "byteLength" : 3096,
            "byteOffset" : 17808
        },
        {
            "buffer" : 0,
            "byteLength" : 119,
            "byteOffset" : 20904
        },
        {
            "buffer" : 0,
            "byteLength" : 1536,
            "byteOffset" : 21024
        }
    ],
    "samplers" : [
        {
            "wrapT" : 10497,
            "magFilter" : 9729,
            "wrapS" : 10497,
            "minFilter" : 9986
        }
    ],
    "buffers" : [
        {
            "byteLength" : 22560,
            "uri" : "data:application/octet-stream;base64,"
        }
    ]
}
