{
    "asset" : {
        "version" : "2.0",
        "generator" : "Khronos glTF Blender I/O v1.2.20"
    },
    "scene" : 0,
    "scenes" : [
        {
            "nodes" : [
                2
            ],
            "name" : "Scene"
        }
    ],
    "nodes" : [
        {
            "rotation" : [
                1.0033481601112726e-07,
                0,
                0,
                1
            ],
            "name" : "Root"
        },
        {
            "skin" : 0,
            "mesh" : 0,
            "name" : "Body__mCap"
        },
        {
            "children" : [
                1,
                0
            ],
            "name" : "Armature"
        }
    ],
    "materials" : [
        {
            "pbrMetallicRoughness" : {
                "baseColorTexture" : {
                    "texCoord" : 0,
                    "index" : 0
                }
            },
            "name" : "mCap"
        }
    ],
    "meshes" : [
        {
            "primitives" : [
                {
                    "indices" : 5,
                    "material" : 0,
                    "attributes" : {
                        "TEXCOORD_0" : 0,
                        "POSITION" : 1,
                        "NORMAL" : 2,
                        "WEIGHTS_0" : 3,
                        "JOINTS_0" : 4
                    }
                }
            ],
            "name" : "Body__mCap"
        }
    ],
    "textures" : [
        {
            "sampler" : 0,
            "source" : 0
        }
    ],
    "images" : [
        {
            "mimeType" : "image/png",
            "bufferView" : 6,
            "name" : "Dress_LS_Test.png"
        }
    ],
    "skins" : [
        {
            "inverseBindMatrices" : 6,
            "joints" : [
                0
            ],
            "name" : "Armature"
        }
    ],
    "accessors" : [
        {
            "bufferView" : 0,
            "type" : "VEC2",
            "count" : 214,
            "componentType" : 5126
        },
        {
            "bufferView" : 1,
            "max" : [
                3.7274858951568604,
                3.438109874725342,
                3.8660728931427
            ],
            "type" : "VEC3",
            "min" : [
                -3.7274858951568604,
                -0.0005651725805364549,
                -4.176787853240967
            ],
            "count" : 214,
            "componentType" : 5126
        },
        {
            "bufferView" : 2,
            "type" : "VEC3",
            "count" : 214,
            "componentType" : 5126
        },
        {
            "bufferView" : 3,
            "type" : "VEC4",
            "count" : 214,
            "componentType" : 5126
        },
        {
            "bufferView" : 4,
            "type" : "VEC4",
            "count" : 214,
            "componentType" : 5123
        },
        {
            "bufferView" : 5,
            "type" : "SCALAR",
            "count" : 984,
            "componentType" : 5123
        },
        {
            "bufferView" : 7,
            "type" : "MAT4",
            "count" : 1,
            "componentType" : 5126
        }
    ],
    "bufferViews" : [
        {
            "buffer" : 0,
            "byteLength" : 1712,
            "byteOffset" : 0
        },
        {
            "buffer" : 0,
            "byteLength" : 2568,
            "byteOffset" : 1712
        },
        {
            "buffer" : 0,
            "byteLength" : 2568,
            "byteOffset" : 4280
        },
        {
            "buffer" : 0,
            "byteLength" : 3424,
            "byteOffset" : 6848
        },
        {
            "buffer" : 0,
            "byteLength" : 1712,
            "byteOffset" : 10272
        },
        {
            "buffer" : 0,
            "byteLength" : 1968,
            "byteOffset" : 11984
        },
        {
            "buffer" : 0,
            "byteLength" : 119,
            "byteOffset" : 13952
        },
        {
            "buffer" : 0,
            "byteLength" : 64,
            "byteOffset" : 14072
        }
    ],
    "samplers" : [
        {
            "wrapT" : 10497,
            "magFilter" : 9729,
            "wrapS" : 10497,
            "minFilter" : 9986
        }
    ],
    "buffers" : [
        {
            "byteLength" : 14136,
            "uri" : "data:application/octet-stream;base64,"
        }
    ]
}
