{
    "asset" : {
        "generator" : "Khronos glTF Blender I/O v1.2.20",
        "version" : "2.0"
    },
    "scene" : 0,
    "scenes" : [
        {
            "nodes" : [
                3
            ],
            "name" : "Scene"
        }
    ],
    "nodes" : [
        {
            "name" : "Root",
            "rotation" : [
                1.0033481601112726e-07,
                0,
                0,
                1
            ]
        },
        {
            "skin" : 0,
            "mesh" : 0,
            "name" : "Body__mCap"
        },
        {
            "skin" : 0,
            "mesh" : 1,
            "name" : "pCone1__mCapAlb"
        },
        {
            "children" : [
                1,
                2,
                0
            ],
            "name" : "Armature"
        }
    ],
    "materials" : [
        {
            "pbrMetallicRoughness" : {
                "baseColorTexture" : {
                    "index" : 0,
                    "texCoord" : 0
                }
            },
            "name" : "mCap.001"
        },
        {
            "pbrMetallicRoughness" : {
                "baseColorTexture" : {
                    "index" : 1,
                    "texCoord" : 0
                }
            },
            "name" : "mCapAlb"
        }
    ],
    "meshes" : [
        {
            "primitives" : [
                {
                    "indices" : 5,
                    "material" : 0,
                    "attributes" : {
                        "JOINTS_0" : 0,
                        "NORMAL" : 1,
                        "POSITION" : 2,
                        "TEXCOORD_0" : 3,
                        "WEIGHTS_0" : 4
                    }
                }
            ],
            "name" : "Body__mCap.002"
        },
        {
            "primitives" : [
                {
                    "indices" : 12,
                    "material" : 1,
                    "attributes" : {
                        "JOINTS_0" : 7,
                        "NORMAL" : 8,
                        "POSITION" : 9,
                        "TEXCOORD_0" : 10,
                        "WEIGHTS_0" : 11
                    }
                }
            ],
            "name" : "pCone1__mCapAlb"
        }
    ],
    "textures" : [
        {
            "sampler" : 0,
            "source" : 0
        },
        {
            "sampler" : 1,
            "source" : 1
        }
    ],
    "images" : [
        {
            "bufferView" : 6,
            "mimeType" : "image/png",
            "name" : "Dress_LS_Test.png"
        },
        {
            "bufferView" : 14,
            "mimeType" : "image/png",
            "name" : "mCapAlb_Alb.png"
        }
    ],
    "skins" : [
        {
            "inverseBindMatrices" : 6,
            "joints" : [
                0
            ],
            "name" : "Armature"
        }
    ],
    "accessors" : [
        {
            "bufferView" : 0,
            "count" : 218,
            "componentType" : 5123,
            "type" : "VEC4"
        },
        {
            "bufferView" : 1,
            "count" : 218,
            "componentType" : 5126,
            "type" : "VEC3"
        },
        {
            "min" : [
                -3.7927420139312744,
                -0.0005651725805364549,
                -4.206789970397949
            ],
            "max" : [
                3.7927420139312744,
                3.815864086151123,
                3.8960750102996826
            ],
            "type" : "VEC3",
            "bufferView" : 2,
            "count" : 218,
            "componentType" : 5126
        },
        {
            "bufferView" : 3,
            "count" : 218,
            "componentType" : 5126,
            "type" : "VEC2"
        },
        {
            "bufferView" : 4,
            "count" : 218,
            "componentType" : 5126,
            "type" : "VEC4"
        },
        {
            "bufferView" : 5,
            "count" : 1092,
            "componentType" : 5123,
            "type" : "SCALAR"
        },
        {
            "bufferView" : 7,
            "count" : 1,
            "componentType" : 5126,
            "type" : "MAT4"
        },
        {
            "bufferView" : 8,
            "count" : 194,
            "componentType" : 5123,
            "type" : "VEC4"
        },
        {
            "bufferView" : 9,
            "count" : 194,
            "componentType" : 5126,
            "type" : "VEC3"
        },
        {
            "min" : [
                -5.214635848999023,
                0.03987673670053482,
                -1.4260567426681519
            ],
            "max" : [
                5.214635848999023,
                3.706907033920288,
                1.0955212116241455
            ],
            "type" : "VEC3",
            "bufferView" : 10,
            "count" : 194,
            "componentType" : 5126
        },
        {
            "bufferView" : 11,
            "count" : 194,
            "componentType" : 5126,
            "type" : "VEC2"
        },
        {
            "bufferView" : 12,
            "count" : 194,
            "componentType" : 5126,
            "type" : "VEC4"
        },
        {
            "bufferView" : 13,
            "count" : 1080,
            "componentType" : 5123,
            "type" : "SCALAR"
        }
    ],
    "bufferViews" : [
        {
            "byteOffset" : 0,
            "byteLength" : 1744,
            "buffer" : 0
        },
        {
            "byteOffset" : 1744,
            "byteLength" : 2616,
            "buffer" : 0
        },
        {
            "byteOffset" : 4360,
            "byteLength" : 2616,
            "buffer" : 0
        },
        {
            "byteOffset" : 6976,
            "byteLength" : 1744,
            "buffer" : 0
        },
        {
            "byteOffset" : 8720,
            "byteLength" : 3488,
            "buffer" : 0
        },
        {
            "byteOffset" : 12208,
            "byteLength" : 2184,
            "buffer" : 0
        },
        {
            "byteOffset" : 14392,
            "byteLength" : 119,
            "buffer" : 0
        },
        {
            "byteOffset" : 14512,
            "byteLength" : 64,
            "buffer" : 0
        },
        {
            "byteOffset" : 14576,
            "byteLength" : 1552,
            "buffer" : 0
        },
        {
            "byteOffset" : 16128,
            "byteLength" : 2328,
            "buffer" : 0
        },
        {
            "byteOffset" : 18456,
            "byteLength" : 2328,
            "buffer" : 0
        },
        {
            "byteOffset" : 20784,
            "byteLength" : 1552,
            "buffer" : 0
        },
        {
            "byteOffset" : 22336,
            "byteLength" : 3104,
            "buffer" : 0
        },
        {
            "byteOffset" : 25440,
            "byteLength" : 2160,
            "buffer" : 0
        },
        {
            "byteOffset" : 27600,
            "byteLength" : 872,
            "buffer" : 0
        }
    ],
    "samplers" : [
        {
            "minFilter" : 9986,
            "magFilter" : 9729,
            "wrapT" : 10497,
            "wrapS" : 10497
        },
        {
            "minFilter" : 9986,
            "magFilter" : 9729,
            "wrapT" : 10497,
            "wrapS" : 10497
        }
    ],
    "buffers" : [
        {
            "uri" : "data:application/octet-stream;base64,",
            "byteLength" : 28472
        }
    ]
}
