{
    "asset": {
        "generator": "COLLADA2GLTF",
        "version": "2.0"
    },
    "scenes": [
        {
            "nodes": [
                0
            ]
        }
    ],
    "scene": 0,
    "nodes": [
        {
            "children": [
                2,
                1
            ],
            "name": "Y_UP"
        },
        {
            "mesh": 0,
            "skin": 0,
            "name": "mesh_0_"
        },
        {
            "children": [
                3
            ],
            "name": "root"
        },
        {
            "children": [
                11,
                4
            ],
            "matrix": [
                -0.000003000000106112566,
                1.0,
                0.0,
                0.0,
                -1.0,
                -0.000003000000106112566,
                0.0,
                0.0,
                0.0,
                0.0,
                1.0,
                0.0,
                0.0,
                14.0,
                0.0,
                1.0
            ],
            "name": "base"
        },
        {
            "children": [
                8,
                5
            ],
            "matrix": [
                -1.0,
                -0.0000019999999949504856,
                0.0,
                0.0,
                0.0000019999999949504856,
                -1.0,
                0.0,
                0.0,
                0.0,
                0.0,
                1.0,
                0.0,
                0.0,
                0.0,
                0.0,
                1.0
            ],
            "name": "waist"
        },
        {
            "children": [
                6
            ],
            "matrix": [
                1.0,
                0.0,
                0.0,
                0.0,
                0.0,
                1.0,
                0.0,
                0.0,
                0.0,
                0.0,
                1.0,
                0.0,
                2.0,
                -2.799999952316284,
                0.0,
                1.0
            ],
            "name": "Rfoot1"
        },
        {
            "children": [
                7
            ],
            "matrix": [
                1.0,
                0.0,
                0.0,
                0.0,
                0.0,
                1.0,
                0.0,
                0.0,
                0.0,
                0.0,
                1.0,
                0.0,
                5.099999904632568,
                -0.0,
                0.0,
                1.0
            ],
            "name": "Rfoot2"
        },
        {
            "matrix": [
                1.0,
                0.0,
                0.0,
                0.0,
                0.0,
                1.0,
                0.0,
                0.0,
                0.0,
                0.0,
                1.0,
                0.0,
                5.699999809265137,
                0.0,
                0.0,
                1.0
            ],
            "name": "Rfoot3"
        },
        {
            "children": [
                9
            ],
            "matrix": [
                1.0,
                0.0,
                0.0,
                0.0,
                0.0,
                1.0,
                0.0,
                0.0,
                0.0,
                0.0,
                1.0,
                0.0,
                2.0,
                2.799999952316284,
                0.0,
                1.0
            ],
            "name": "Lfoot1"
        },
        {
            "children": [
                10
            ],
            "matrix": [
                1.0,
                0.0,
                0.0,
                0.0,
                0.0,
                1.0,
                0.0,
                0.0,
                0.0,
                0.0,
                1.0,
                0.0,
                5.099999904632568,
                -0.0,
                0.0,
                1.0
            ],
            "name": "Lfoot2"
        },
        {
            "matrix": [
                1.0,
                0.0,
                0.0,
                0.0,
                0.0,
                1.0,
                0.0,
                0.0,
                0.0,
                0.0,
                1.0,
                0.0,
                5.699999809265137,
                0.0,
                0.0,
                1.0
            ],
            "name": "Lfoot3"
        },
        {
            "children": [
                17,
                14,
                12
            ],
            "matrix": [
                1.0,
                0.0,
                0.0,
                0.0,
                0.0,
                1.0,
                0.0,
                0.0,
                0.0,
                0.0,
                1.0,
                0.0,
                3.795880079269409,
                0.0,
                0.0,
                1.0
            ],
            "name": "chest"
        },
        {
            "children": [
                13
            ],
            "matrix": [
                1.0,
                0.0,
                0.0,
                0.0,
                0.0,
                1.0,
                0.0,
                0.0,
                0.0,
                0.0,
                1.0,
                0.0,
                8.604129791259766,
                0.0,
                0.0,
                1.0
            ],
            "name": "head"
        },
        {
            "matrix": [
                -0.000003000000106112566,
                -1.0,
                0.0,
                0.0,
                1.0,
                -0.000003000000106112566,
                0.0,
                0.0,
                0.0,
                0.0,
                1.0,
                0.0,
                10.996000289916993,
                0.0,
                0.0,
                1.0
            ],
            "name": "feel"
        },
        {
            "children": [
                15
            ],
            "matrix": [
                -0.000003000000106112566,
                1.0,
                0.0,
                0.0,
                -1.0,
                -0.000003000000106112566,
                0.0,
                0.0,
                0.0,
                0.0,
                1.0,
                0.0,
                7.604129791259766,
                3.5999999046325685,
                0.0,
                1.0
            ],
            "name": "Rarm1"
        },
        {
            "children": [
                16
            ],
            "matrix": [
                1.0,
                0.0,
                0.0,
                0.0,
                0.0,
                1.0,
                0.0,
                0.0,
                0.0,
                0.0,
                1.0,
                0.0,
                6.75,
                9.999999974752428e-7,
                0.0,
                1.0
            ],
            "name": "Rarm2"
        },
        {
            "matrix": [
                1.0,
                0.0,
                0.0,
                0.0,
                0.0,
                1.0,
                0.0,
                0.0,
                0.0,
                0.0,
                1.0,
                0.0,
                6.75,
                0.0,
                0.0,
                1.0
            ],
            "name": "Rhand"
        },
        {
            "children": [
                18
            ],
            "matrix": [
                -0.000003000000106112566,
                -1.0,
                0.0,
                0.0,
                1.0,
                -0.000003000000106112566,
                0.0,
                0.0,
                0.0,
                0.0,
                1.0,
                0.0,
                7.604129791259766,
                -3.5999999046325685,
                0.0,
                1.0
            ],
            "name": "Larm1"
        },
        {
            "children": [
                19
            ],
            "matrix": [
                1.0,
                0.0,
                0.0,
                0.0,
                0.0,
                1.0,
                0.0,
                0.0,
                0.0,
                0.0,
                1.0,
                0.0,
                6.75,
                0.0,
                0.0,
                1.0
            ],
            "name": "Larm2"
        },
        {
            "matrix": [
                1.0,
                0.0,
                0.0,
                0.0,
                0.0,
                1.0,
                0.0,
                0.0,
                0.0,
                0.0,
                1.0,
                0.0,
                6.75,
                0.0,
                0.0,
                1.0
            ],
            "name": "Lhand"
        }
    ],
    "meshes": [
        {
            "primitives": [
                {
                    "attributes": {
                        "COLOR_0": 1,
                        "JOINTS_0": 2,
                        "NORMAL": 3,
                        "POSITION": 4,
                        "TEXCOORD_0": 5,
                        "WEIGHTS_0": 6
                    },
                    "indices": 0,
                    "mode": 4
                }
            ],
            "name": "mesh_0_"
        }
    ],
    "skins": [
        {
            "inverseBindMatrices": 7,
            "skeleton": 2,
            "joints": [
                19,
                18,
                17,
                16,
                15,
                14,
                13,
                12,
                11,
                10,
                9,
                8,
                7,
                6,
                5,
                4,
                3,
                2
            ],
            "name": "Controller"
        }
    ],
    "accessors": [
        {
            "bufferView": 0,
            "byteOffset": 0,
            "componentType": 5123,
            "count": 1062,
            "max": [
                254
            ],
            "min": [
                0
            ],
            "type": "SCALAR"
        },
        {
            "bufferView": 1,
            "byteOffset": 0,
            "componentType": 5126,
            "count": 255,
            "max": [
                1.0,
                1.0,
                1.0
            ],
            "min": [
                1.0,
                1.0,
                1.0
            ],
            "type": "VEC3"
        },
        {
            "bufferView": 2,
            "byteOffset": 0,
            "componentType": 5123,
            "count": 255,
            "max": [
                16,
                0,
                0,
                0
            ],
            "min": [
                1,
                0,
                0,
                0
            ],
            "type": "VEC4"
        },
        {
            "bufferView": 1,
            "byteOffset": 3060,
            "componentType": 5126,
            "count": 255,
            "max": [
                1.0,
                0.9989479780197144,
                0.998453974723816
            ],
            "min": [
                -0.9081900119781494,
                -0.9992259740829468,
                -0.9999380111694336
            ],
            "type": "VEC3"
        },
        {
            "bufferView": 1,
            "byteOffset": 6120,
            "componentType": 5126,
            "count": 255,
            "max": [
                19.5,
                30.200000762939458,
                5.585949897766113
            ],
            "min": [
                -19.5,
                13.802300453186036,
                -5.573050022125244
            ],
            "type": "VEC3"
        },
        {
            "bufferView": 2,
            "byteOffset": 2040,
            "componentType": 5126,
            "count": 255,
            "max": [
                1.0000300407409669,
                0.7460939884185791
            ],
            "min": [
                0.00003099999958067201,
                -0.023440003395080568
            ],
            "type": "VEC2"
        },
        {
            "bufferView": 3,
            "byteOffset": 0,
            "componentType": 5126,
            "count": 255,
            "max": [
                1.0,
                0.0,
                0.0,
                0.0
            ],
            "min": [
                1.0,
                0.0,
                0.0,
                0.0
            ],
            "type": "VEC4"
        },
        {
            "bufferView": 4,
            "byteOffset": 0,
            "componentType": 5126,
            "count": 18,
            "max": [
                1.0,
                1.0,
                0.0,
                0.0,
                1.0,
                1.0,
                0.0,
                0.0,
                0.0,
                0.0,
                1.0,
                0.0,
                14.0,
                25.399999618530278,
                0.0,
                1.0
            ],
            "min": [
                -1.0,
                -1.0,
                0.0,
                0.0,
                -1.0,
                -1.0,
                0.0,
                0.0,
                0.0,
                0.0,
                1.0,
                0.0,
                -26.399999618530278,
                -37.39599990844727,
                0.0,
                1.0
            ],
            "type": "MAT4"
        }
    ],
    "bufferViews": [
        {
            "buffer": 0,
            "byteOffset": 18492,
            "byteLength": 2124,
            "target": 34963
        },
        {
            "buffer": 0,
            "byteOffset": 5232,
            "byteLength": 9180,
            "byteStride": 12,
            "target": 34962
        },
        {
            "buffer": 0,
            "byteOffset": 14412,
            "byteLength": 4080,
            "byteStride": 8,
            "target": 34962
        },
        {
            "buffer": 0,
            "byteOffset": 1152,
            "byteLength": 4080,
            "byteStride": 16,
            "target": 34962
        },
        {
            "buffer": 0,
            "byteOffset": 0,
            "byteLength": 1152
        }
    ],
    "buffers": [
        {
            "byteLength": 20616,
            "uri": "data:application/octet-stream;base64,"
        }
    ]
}
