{
    "asset" : {
        "generator" : "Khronos glTF Blender I/O v1.2.20",
        "version" : "2.0"
    },
    "scene" : 0,
    "scenes" : [
        {
            "nodes" : [
                21
            ],
            "name" : "Scene"
        }
    ],
    "nodes" : [
        {
            "translation" : [
                0.9099370837211609,
                -7.606135454807372e-08,
                3.878139409607684e-08
            ],
            "rotation" : [
                -1.7531043283725012e-09,
                7.1054265105680546e-15,
                4.235164736271502e-22,
                1
            ],
            "name" : "Arm_1_L_Sub"
        },
        {
            "translation" : [
                0.6800004839897156,
                -1.0251995945509407e-06,
                -3.9469284729420906e-08
            ],
            "rotation" : [
                7.56010365421389e-09,
                2.23517560016262e-08,
                1.6898254358164088e-16,
                1
            ],
            "children" : [
                0
            ],
            "name" : "Arm_1_L"
        },
        {
            "translation" : [
                0.30000004172325134,
                0.7400006651878357,
                0.43000027537345886
            ],
            "scale" : [
                1,
                0.9999999403953552,
                1
            ],
            "rotation" : [
                -3.8182604568865906e-21,
                -0.7071068286895752,
                -8.422618660124257e-23,
                0.7071067094802856
            ],
            "children" : [
                1
            ],
            "name" : "Clavicle_L"
        },
        {
            "translation" : [
                -0.9099403619766235,
                -7.494377740613345e-08,
                -5.068283712716948e-07
            ],
            "rotation" : [
                1.0955147899949225e-10,
                -2.842170943040401e-14,
                8.470329472543003e-22,
                1
            ],
            "name" : "Arm_1_R_Sub"
        },
        {
            "translation" : [
                -0.6800003051757812,
                -1.0251995945509407e-06,
                -2.9100118581482093e-07
            ],
            "rotation" : [
                5.697462057696612e-09,
                -1.3174158652873302e-08,
                -7.505897758799257e-17,
                1
            ],
            "children" : [
                3
            ],
            "name" : "Arm_1_R"
        },
        {
            "translation" : [
                0.3000001311302185,
                0.7400044798851013,
                -0.43000003695487976
            ],
            "rotation" : [
                5.287540019933906e-21,
                -0.7071065902709961,
                2.3115441048759316e-21,
                0.7071069478988647
            ],
            "children" : [
                4
            ],
            "name" : "Clavicle_R"
        },
        {
            "translation" : [
                7.450567807154584e-08,
                1.2499990463256836,
                2.6077017878378683e-07
            ],
            "rotation" : [
                4.235164736271502e-22,
                -7.888895818926384e-22,
                3.552713678800501e-14,
                1
            ],
            "children" : [
                2,
                5
            ],
            "name" : "Spine_3"
        },
        {
            "translation" : [
                7.748590036271708e-08,
                1.3000001907348633,
                2.712010598315828e-07
            ],
            "rotation" : [
                -2.08983051946509e-14,
                -3.5527119847346064e-15,
                -2.842170943040401e-14,
                1
            ],
            "children" : [
                6
            ],
            "name" : "Spine_2"
        },
        {
            "translation" : [
                4.126833152550552e-13,
                4.768373287333816e-07,
                -1.1368683772161603e-13
            ],
            "rotation" : [
                -5.02429705235034e-15,
                0.7071068286895752,
                -5.0242962053173926e-15,
                0.7071068286895752
            ],
            "children" : [
                7
            ],
            "name" : "Spine_1"
        },
        {
            "translation" : [
                -0.01700013503432274,
                0.1399998664855957,
                -0.9100001454353333
            ],
            "rotation" : [
                0,
                3.552713678800501e-15,
                0,
                1
            ],
            "name" : "Leg_1_L"
        },
        {
            "translation" : [
                -0.01699989102780819,
                0.14000225067138672,
                0.9100002646446228
            ],
            "rotation" : [
                -2.117582368135751e-22,
                -5.960464477539063e-08,
                0,
                1
            ],
            "name" : "Leg_1_R"
        },
        {
            "translation" : [
                -1.4245710372924805,
                0.856692910194397,
                -0.9063652753829956
            ],
            "scale" : [
                0.9999999403953552,
                1,
                0.9999999403953552
            ],
            "rotation" : [
                0,
                0.9630236625671387,
                0,
                0.2694169282913208
            ],
            "name" : "Skirt_1_LB"
        },
        {
            "translation" : [
                -0.10398676246404648,
                0.8497066497802734,
                -1.7428804636001587
            ],
            "rotation" : [
                0,
                0.7071067094802856,
                0,
                0.70710688829422
            ],
            "name" : "Skirt_1_LC"
        },
        {
            "translation" : [
                1.4307548999786377,
                0.7736872434616089,
                -0.8680781722068787
            ],
            "rotation" : [
                0,
                0.24485793709754944,
                0,
                0.9695590138435364
            ],
            "name" : "Skirt_1_LF"
        },
        {
            "translation" : [
                -1.4245694875717163,
                0.856690526008606,
                0.906364917755127
            ],
            "rotation" : [
                0,
                -0.9721738696098328,
                0,
                0.23426055908203125
            ],
            "name" : "Skirt_1_RB"
        },
        {
            "translation" : [
                -0.10398625582456589,
                0.8497104644775391,
                1.7428804636001587
            ],
            "scale" : [
                1,
                0.9999999403953552,
                1
            ],
            "rotation" : [
                0,
                -0.70710688829422,
                -1.197885663231341e-21,
                0.7071067094802856
            ],
            "name" : "Skirt_1_RC"
        },
        {
            "translation" : [
                1.4307550191879272,
                0.7736872434616089,
                0.8680784106254578
            ],
            "rotation" : [
                0,
                -0.2228154093027115,
                0,
                0.974860668182373
            ],
            "name" : "Skirt_1_RF"
        },
        {
            "translation" : [
                -4.126833152550552e-13,
                4.768373287333816e-07,
                -1.1368683772161603e-13
            ],
            "rotation" : [
                -5.02429705235034e-15,
                -0.7071068286895752,
                5.0242962053173926e-15,
                0.7071068286895752
            ],
            "children" : [
                9,
                10,
                11,
                12,
                13,
                14,
                15,
                16
            ],
            "name" : "Waist"
        },
        {
            "translation" : [
                0,
                4.839999675750732,
                -5.684341886080802e-14
            ],
            "children" : [
                8,
                17
            ],
            "name" : "Skl_Root"
        },
        {
            "rotation" : [
                1.0033481601112726e-07,
                0,
                0,
                1
            ],
            "children" : [
                18
            ],
            "name" : "Root"
        },
        {
            "skin" : 0,
            "mesh" : 0,
            "name" : "Body__mTops"
        },
        {
            "children" : [
                20,
                19
            ],
            "name" : "Armature"
        }
    ],
    "materials" : [
        {
            "name" : "mTops",
            "pbrMetallicRoughness" : {
                "baseColorTexture" : {
                    "index" : 0,
                    "texCoord" : 0
                }
            }
        }
    ],
    "meshes" : [
        {
            "primitives" : [
                {
                    "attributes" : {
                        "JOINTS_0" : 4,
                        "NORMAL" : 1,
                        "WEIGHTS_0" : 2,
                        "TEXCOORD_0" : 3,
                        "POSITION" : 0,
                        "COLOR_0" : 5
                    },
                    "material" : 0,
                    "indices" : 6
                }
            ],
            "name" : "Body__mTops"
        }
    ],
    "textures" : [
        {
            "source" : 0,
            "sampler" : 0
        }
    ],
    "images" : [
        {
            "bufferView" : 7,
            "mimeType" : "image/png",
            "name" : "mReFabric_Alb.png"
        }
    ],
    "skins" : [
        {
            "joints" : [
                19,
                18,
                8,
                7,
                6,
                2,
                1,
                0,
                5,
                4,
                3,
                17,
                9,
                10,
                11,
                12,
                13,
                14,
                15,
                16
            ],
            "inverseBindMatrices" : 7,
            "name" : "Armature"
        }
    ],
    "accessors" : [
        {
            "count" : 419,
            "type" : "VEC3",
            "componentType" : 5126,
            "bufferView" : 0,
            "min" : [
                -2.7361180782318115,
                4.456887722015381,
                -1.8318321704864502
            ],
            "max" : [
                2.7361180782318115,
                8.881081581115723,
                1.7758277654647827
            ]
        },
        {
            "bufferView" : 1,
            "count" : 419,
            "type" : "VEC3",
            "componentType" : 5126
        },
        {
            "bufferView" : 2,
            "count" : 419,
            "type" : "VEC4",
            "componentType" : 5126
        },
        {
            "bufferView" : 3,
            "count" : 419,
            "type" : "VEC2",
            "componentType" : 5126
        },
        {
            "bufferView" : 4,
            "count" : 419,
            "type" : "VEC4",
            "componentType" : 5123
        },
        {
            "bufferView" : 5,
            "count" : 419,
            "type" : "VEC4",
            "componentType" : 5126
        },
        {
            "bufferView" : 6,
            "count" : 1920,
            "type" : "SCALAR",
            "componentType" : 5123
        },
        {
            "bufferView" : 8,
            "count" : 20,
            "type" : "MAT4",
            "componentType" : 5126
        }
    ],
    "bufferViews" : [
        {
            "byteOffset" : 0,
            "buffer" : 0,
            "byteLength" : 5028
        },
        {
            "byteOffset" : 5028,
            "buffer" : 0,
            "byteLength" : 5028
        },
        {
            "byteOffset" : 10056,
            "buffer" : 0,
            "byteLength" : 6704
        },
        {
            "byteOffset" : 16760,
            "buffer" : 0,
            "byteLength" : 3352
        },
        {
            "byteOffset" : 20112,
            "buffer" : 0,
            "byteLength" : 3352
        },
        {
            "byteOffset" : 23464,
            "buffer" : 0,
            "byteLength" : 6704
        },
        {
            "byteOffset" : 30168,
            "buffer" : 0,
            "byteLength" : 3840
        },
        {
            "byteOffset" : 34008,
            "buffer" : 0,
            "byteLength" : 119
        },
        {
            "byteOffset" : 34128,
            "buffer" : 0,
            "byteLength" : 1280
        }
    ],
    "samplers" : [
        {
            "wrapT" : 10497,
            "magFilter" : 9729,
            "wrapS" : 10497,
            "minFilter" : 9986
        }
    ],
    "buffers" : [
        {
            "byteLength" : 35408,
            "uri" : "data:application/octet-stream;base64,"
        }
    ]
}
